LankaverseSans.glyphspackage
{
glyphname = Oslash;
layers = (
{
layerId = "7B4D842D-CA8D-4153-9CDE-FADFBE419175";
paths = (
{
closed = 1;
nodes = (
"38 132 OFFCURVE",
"165 -7 OFFCURVE",
"366 -7 CURVE SMOOTH",
"566 -7 OFFCURVE",
"694 133 OFFCURVE",
"694 339 CURVE SMOOTH",
"694 546 OFFCURVE",
"567 685 OFFCURVE",
"366 685 CURVE SMOOTH",
"166 685 OFFCURVE",
"38 545 OFFCURVE",
"38 339 CURVE SMOOTH"
);
},
{
closed = 1;
nodes = (
"196 470 OFFCURVE",
"262 553 OFFCURVE",
"366 553 CURVE SMOOTH",
"470 553 OFFCURVE",
"536 475 OFFCURVE",
"536 339 CURVE SMOOTH",
"536 208 OFFCURVE",
"470 125 OFFCURVE",
"366 125 CURVE SMOOTH",
"262 125 OFFCURVE",
"196 202 OFFCURVE",
"196 339 CURVE SMOOTH"
);
},
{
closed = 1;
nodes = (
"185 -7 LINE",
"695 684 LINE",
"550 684 LINE",
"39 -7 LINE"
);
}
);
width = 714;
},
{
layerId = "25BA55F5-DD3E-4682-A696-ADF7D9496427";
paths = (
{
closed = 1;
nodes = (
"42 128 OFFCURVE",
"161 -8 OFFCURVE",
"339 -8 CURVE SMOOTH",
"521 -8 OFFCURVE",
"633 128 OFFCURVE",
"633 340 CURVE SMOOTH",
"633 552 OFFCURVE",
"525 688 OFFCURVE",
"337 688 CURVE SMOOTH",
"156 688 OFFCURVE",
"42 552 OFFCURVE",
"42 340 CURVE SMOOTH"
);
},
{
closed = 1;
nodes = (
"106 519 OFFCURVE",
"192 628 OFFCURVE",
"337 628 CURVE SMOOTH",
"487 628 OFFCURVE",
"569 519 OFFCURVE",
"569 340 CURVE SMOOTH",
"569 161 OFFCURVE",
"487 52 OFFCURVE",
"339 52 CURVE SMOOTH",
"199 52 OFFCURVE",
"106 161 OFFCURVE",
"106 340 CURVE SMOOTH"
);
},
{
closed = 1;
nodes = (
"112 -9 LINE",
"634 688 LINE",
"562 688 LINE",
"41 -9 LINE"
);
}
);
width = 664;
}
);
unicode = 00D8;
}
{
glyphname = "aasign-sinh";
layers = (
{
layerId = "25BA55F5-DD3E-4682-A696-ADF7D9496427";
paths = (
{
closed = 1;
nodes = (
"281 -8 OFFCURVE",
"326 111 OFFCURVE",
"326 258 CURVE SMOOTH",
"326 393 OFFCURVE",
"271 513 OFFCURVE",
"129 513 CURVE SMOOTH",
"103 513 OFFCURVE",
"88 511 OFFCURVE",
"64 507 CURVE",
"64 452 LINE",
"80 456 OFFCURVE",
"97 458 OFFCURVE",
"117 458 CURVE SMOOTH",
"230 458 OFFCURVE",
"266 383 OFFCURVE",
"266 258 CURVE SMOOTH",
"266 122 OFFCURVE",
"229 47 OFFCURVE",
"109 47 CURVE SMOOTH",
"90 47 OFFCURVE",
"75 49 OFFCURVE",
"60 53 CURVE",
"60 -3 LINE",
"79 -6 OFFCURVE",
"92 -8 OFFCURVE",
"119 -8 CURVE SMOOTH"
);
}
);
width = 401;
},
{
layerId = "7B4D842D-CA8D-4153-9CDE-FADFBE419175";
paths = (
{
closed = 1;
nodes = (
"258 -8 OFFCURVE",
"366 82 OFFCURVE",
"366 265 CURVE SMOOTH",
"366 435 OFFCURVE",
"278 527 OFFCURVE",
"119 527 CURVE SMOOTH",
"93 527 OFFCURVE",
"68 525 OFFCURVE",
"44 521 CURVE",
"44 415 LINE",
"60 419 OFFCURVE",
"90 421 OFFCURVE",
"110 421 CURVE SMOOTH",
"196 421 OFFCURVE",
"226 360 OFFCURVE",
"226 265 CURVE SMOOTH",
"226 168 OFFCURVE",
"197 98 OFFCURVE",
"104 98 CURVE SMOOTH",
"85 98 OFFCURVE",
"55 100 OFFCURVE",
"40 104 CURVE",
"40 -3 LINE",
"59 -6 OFFCURVE",
"82 -8 OFFCURVE",
"109 -8 CURVE SMOOTH"
);
}
);
width = 411;
}
);
unicode = 0DCF;
subCategory = Spacing;
}
{
glyphname = acute;
layers = (
{
layerId = "7B4D842D-CA8D-4153-9CDE-FADFBE419175";
paths = (
{
closed = 1;
nodes = (
"255 621 LINE",
"366 798 LINE",
"220 798 LINE",
"134 621 LINE"
);
}
);
width = 500;
},
{
layerId = "25BA55F5-DD3E-4682-A696-ADF7D9496427";
paths = (
{
closed = 1;
nodes = (
"165 648 LINE",
"293 798 LINE",
"212 798 LINE",
"110 648 LINE"
);
}
);
width = 400;
}
);
unicode = 00B4;
}
{
glyphname = ae;
layers = (
{
layerId = "7B4D842D-CA8D-4153-9CDE-FADFBE419175";
paths = (
{
closed = 1;
nodes = (
"763 217 OFFCURVE",
"768 253 OFFCURVE",
"768 275 CURVE SMOOTH",
"768 437 OFFCURVE",
"679 512 OFFCURVE",
"548 512 CURVE SMOOTH",
"482 512 OFFCURVE",
"422 486 OFFCURVE",
"391 442 CURVE",
"370 486 OFFCURVE",
"315 516 OFFCURVE",
"242 516 CURVE SMOOTH",
"163 516 OFFCURVE",
"109 499 OFFCURVE",
"79 482 CURVE",
"79 351 LINE",
"117 376 OFFCURVE",
"172 397 OFFCURVE",
"231 397 CURVE SMOOTH",
"296 397 OFFCURVE",
"316 371 OFFCURVE",
"316 333 CURVE SMOOTH",
"316 298 LINE",
"252 298 LINE SMOOTH",
"108 298 OFFCURVE",
"40 238 OFFCURVE",
"40 144 CURVE SMOOTH",
"40 56 OFFCURVE",
"102 -4 OFFCURVE",
"218 -4 CURVE SMOOTH",
"323 -4 OFFCURVE",
"374 46 OFFCURVE",
"392 88 CURVE",
"432 21 OFFCURVE",
"518 -5 OFFCURVE",
"585 -5 CURVE SMOOTH",
"637 -5 OFFCURVE",
"701 6 OFFCURVE",
"737 29 CURVE",
"737 151 LINE",
"705 127 OFFCURVE",
"663 108 OFFCURVE",
"603 108 CURVE SMOOTH",
"535 108 OFFCURVE",
"482 139 OFFCURVE",
"461 196 CURVE",
"760 196 LINE"
);
},
{
closed = 1;
nodes = (
"610 401 OFFCURVE",
"628 361 OFFCURVE",
"632 311 CURVE SMOOTH",
"632 300 LINE",
"456 300 LINE",
"469 369 OFFCURVE",
"511 401 OFFCURVE",
"554 401 CURVE SMOOTH"
);
},
{
closed = 1;
nodes = (
"316 128 OFFCURVE",
"293 100 OFFCURVE",
"251 100 CURVE SMOOTH",
"211 100 OFFCURVE",
"192 118 OFFCURVE",
"192 151 CURVE SMOOTH",
"192 184 OFFCURVE",
"219 208 OFFCURVE",
"269 208 CURVE SMOOTH",
"316 208 LINE",
"316 171 LINE SMOOTH"
);
}
);
width = 808;
},
{
layerId = "25BA55F5-DD3E-4682-A696-ADF7D9496427";
paths = (
{
closed = 1;
nodes = (
"781 241 OFFCURVE",
"782 265 OFFCURVE",
"782 275 CURVE SMOOTH",
"782 426 OFFCURVE",
"714 513 OFFCURVE",
"583 513 CURVE SMOOTH",
"507 513 OFFCURVE",
"444 481 OFFCURVE",
"404 420 CURVE",
"380 481 OFFCURVE",
"326 515 OFFCURVE",
"235 515 CURVE SMOOTH",
"185 515 OFFCURVE",
"127 500 OFFCURVE",
"92 478 CURVE",
"92 415 LINE",
"130 441 OFFCURVE",
"187 457 OFFCURVE",
"234 457 CURVE SMOOTH",
"329 457 OFFCURVE",
"360 406 OFFCURVE",
"360 320 CURVE SMOOTH",
"360 298 LINE",
"264 298 LINE SMOOTH",
"140 298 OFFCURVE",
"55 242 OFFCURVE",
"55 142 CURVE SMOOTH",
"55 50 OFFCURVE",
"122 -5 OFFCURVE",
"214 -5 CURVE SMOOTH",
"305 -5 OFFCURVE",
"371 38 OFFCURVE",
"397 102 CURVE",
"437 39 OFFCURVE",
"515 -5 OFFCURVE",
"608 -5 CURVE SMOOTH",
"651 -5 OFFCURVE",
"707 6 OFFCURVE",
"745 25 CURVE",
"745 87 LINE",
"709 63 OFFCURVE",
"652 53 OFFCURVE",
"611 53 CURVE SMOOTH",
"511 53 OFFCURVE",
"432 111 OFFCURVE",
"422 226 CURVE",
"778 226 LINE"
);
},
{
closed = 1;
nodes = (
"658 456 OFFCURVE",
"719 407 OFFCURVE",
"719 305 CURVE SMOOTH",
"719 282 LINE",
"422 282 LINE",
"433 403 OFFCURVE",
"503 456 OFFCURVE",
"581 456 CURVE SMOOTH"
);
},
{
closed = 1;
nodes = (
"360 101 OFFCURVE",
"299 54 OFFCURVE",
"228 54 CURVE SMOOTH",
"155 54 OFFCURVE",
"119 91 OFFCURVE",
"119 144 CURVE SMOOTH",
"119 208 OFFCURVE",
"174 239 OFFCURVE",
"278 239 CURVE SMOOTH",
"360 239 LINE",
"360 178 LINE SMOOTH"
);
}
);
width = 822;
}
);
unicode = 00E6;
}
{
glyphname = "anusvaraya-sinh";
layers = (
{
background = {
paths = (
{
closed = 1;
nodes = (
"327 674 OFFCURVE",
"382 725 OFFCURVE",
"382 799 CURVE SMOOTH",
"382 873 OFFCURVE",
"327 923 OFFCURVE",
"248 923 CURVE SMOOTH",
"169 923 OFFCURVE",
"114 873 OFFCURVE",
"114 799 CURVE SMOOTH",
"114 725 OFFCURVE",
"169 674 OFFCURVE",
"248 674 CURVE SMOOTH"
);
},
{
closed = 1;
nodes = (
"219 748 OFFCURVE",
"202 770 OFFCURVE",
"202 799 CURVE SMOOTH",
"202 828 OFFCURVE",
"219 850 OFFCURVE",
"248 850 CURVE SMOOTH",
"277 850 OFFCURVE",
"294 828 OFFCURVE",
"294 799 CURVE SMOOTH",
"294 770 OFFCURVE",
"277 748 OFFCURVE",
"248 748 CURVE SMOOTH"
);
}
);
};
layerId = "25BA55F5-DD3E-4682-A696-ADF7D9496427";
paths = (
{
closed = 1;
nodes = (
"348 105 OFFCURVE",
"415 178 OFFCURVE",
"415 271 CURVE SMOOTH",
"415 361 OFFCURVE",
"348 435 OFFCURVE",
"248 435 CURVE SMOOTH",
"147 435 OFFCURVE",
"80 361 OFFCURVE",
"80 271 CURVE SMOOTH",
"80 178 OFFCURVE",
"147 105 OFFCURVE",
"248 105 CURVE SMOOTH"
);
},
{
closed = 1;
nodes = (
"179 160 OFFCURVE",
"140 206 OFFCURVE",
"140 271 CURVE SMOOTH",
"140 334 OFFCURVE",
"179 380 OFFCURVE",
"248 380 CURVE SMOOTH",
"316 380 OFFCURVE",
"355 334 OFFCURVE",
"355 271 CURVE SMOOTH",
"355 206 OFFCURVE",
"316 160 OFFCURVE",
"248 160 CURVE SMOOTH"
);
}
);
width = 495;
},
{
background = {
paths = (
{
closed = 1;
nodes = (
"293 671 LINE SMOOTH",
"349 671 OFFCURVE",
"371 701 OFFCURVE",
"371 749 CURVE SMOOTH",
"371 815 LINE SMOOTH",
"371 863 OFFCURVE",
"349 893 OFFCURVE",
"293 893 CURVE SMOOTH",
"183 893 LINE SMOOTH",
"127 893 OFFCURVE",
"105 863 OFFCURVE",
"105 815 CURVE SMOOTH",
"105 749 LINE SMOOTH",
"105 701 OFFCURVE",
"127 671 OFFCURVE",
"183 671 CURVE SMOOTH"
);
},
{
closed = 1;
nodes = (
"196 730 OFFCURVE",
"193 738 OFFCURVE",
"193 762 CURVE SMOOTH",
"193 802 LINE SMOOTH",
"193 826 OFFCURVE",
"196 834 OFFCURVE",
"222 834 CURVE SMOOTH",
"255 834 LINE SMOOTH",
"281 834 OFFCURVE",
"285 826 OFFCURVE",
"285 802 CURVE SMOOTH",
"285 762 LINE SMOOTH",
"285 738 OFFCURVE",
"281 730 OFFCURVE",
"255 730 CURVE SMOOTH",
"222 730 LINE SMOOTH"
);
}
);
};
layerId = "7B4D842D-CA8D-4153-9CDE-FADFBE419175";
paths = (
{
closed = 1;
nodes = (
"344 95 OFFCURVE",
"415 172 OFFCURVE",
"415 271 CURVE SMOOTH",
"415 367 OFFCURVE",
"344 445 OFFCURVE",
"238 445 CURVE SMOOTH",
"131 445 OFFCURVE",
"60 367 OFFCURVE",
"60 271 CURVE SMOOTH",
"60 172 OFFCURVE",
"131 95 OFFCURVE",
"238 95 CURVE SMOOTH"
);
},
{
closed = 1;
nodes = (
"180 178 OFFCURVE",
"147 216 OFFCURVE",
"147 271 CURVE SMOOTH",
"147 324 OFFCURVE",
"180 362 OFFCURVE",
"238 362 CURVE SMOOTH",
"295 362 OFFCURVE",
"328 324 OFFCURVE",
"328 271 CURVE SMOOTH",
"328 216 OFFCURVE",
"295 178 OFFCURVE",
"238 178 CURVE SMOOTH"
);
}
);
width = 475;
}
);
unicode = 0D82;
category = Mark;
subCategory = Spacing;
}
{
glyphname = "ausign-sinh";
layers = (
{
components = (
{
name = "esign-sinh";
},
{
name = "vocaliclsign-sinh";
transform = "{1, 0, 0, 1, 1240, 0}";
}
);
layerId = "25BA55F5-DD3E-4682-A696-ADF7D9496427";
paths = (
{
closed = 1;
nodes = (
"720 451 OFFCURVE",
"738 432 OFFCURVE",
"764 432 CURVE SMOOTH",
"790 432 OFFCURVE",
"808 451 OFFCURVE",
"808 477 CURVE SMOOTH",
"808 502 OFFCURVE",
"790 521 OFFCURVE",
"764 521 CURVE SMOOTH",
"738 521 OFFCURVE",
"720 502 OFFCURVE",
"720 477 CURVE SMOOTH"
);
},
{
closed = 1;
nodes = (
"638 342 OFFCURVE",
"658 323 OFFCURVE",
"684 323 CURVE SMOOTH",
"708 323 OFFCURVE",
"728 342 OFFCURVE",
"728 367 CURVE SMOOTH",
"728 392 OFFCURVE",
"708 411 OFFCURVE",
"684 411 CURVE SMOOTH",
"658 411 OFFCURVE",
"638 392 OFFCURVE",
"638 367 CURVE SMOOTH"
);
},
{
closed = 1;
nodes = (
"625 216 OFFCURVE",
"644 198 OFFCURVE",
"669 198 CURVE SMOOTH",
"695 198 OFFCURVE",
"713 216 OFFCURVE",
"713 241 CURVE SMOOTH",
"713 267 OFFCURVE",
"695 286 OFFCURVE",
"669 286 CURVE SMOOTH",
"644 286 OFFCURVE",
"625 267 OFFCURVE",
"625 241 CURVE SMOOTH"
);
},
{
closed = 1;
nodes = (
"677 99 OFFCURVE",
"695 81 OFFCURVE",
"721 81 CURVE SMOOTH",
"746 81 OFFCURVE",
"765 99 OFFCURVE",
"765 125 CURVE SMOOTH",
"765 150 OFFCURVE",
"746 169 OFFCURVE",
"721 169 CURVE SMOOTH",
"695 169 OFFCURVE",
"677 150 OFFCURVE",
"677 125 CURVE SMOOTH"
);
},
{
closed = 1;
nodes = (
"778 24 OFFCURVE",
"797 4 OFFCURVE",
"823 4 CURVE SMOOTH",
"848 4 OFFCURVE",
"867 24 OFFCURVE",
"867 50 CURVE SMOOTH",
"867 74 OFFCURVE",
"848 94 OFFCURVE",
"823 94 CURVE SMOOTH",
"797 94 OFFCURVE",
"778 74 OFFCURVE",
"778 50 CURVE SMOOTH"
);
},
{
closed = 1;
nodes = (
"905 8 OFFCURVE",
"923 -10 OFFCURVE",
"949 -10 CURVE SMOOTH",
"975 -10 OFFCURVE",
"994 8 OFFCURVE",
"994 34 CURVE SMOOTH",
"994 60 OFFCURVE",
"975 78 OFFCURVE",
"949 78 CURVE SMOOTH",
"923 78 OFFCURVE",
"905 60 OFFCURVE",
"905 34 CURVE SMOOTH"
);
},
{
closed = 1;
nodes = (
"1026 61 OFFCURVE",
"1045 43 OFFCURVE",
"1070 43 CURVE SMOOTH",
"1095 43 OFFCURVE",
"1115 61 OFFCURVE",
"1115 87 CURVE SMOOTH",
"1115 112 OFFCURVE",
"1095 131 OFFCURVE",
"1070 131 CURVE SMOOTH",
"1045 131 OFFCURVE",
"1026 112 OFFCURVE",
"1026 87 CURVE SMOOTH"
);
},
{
closed = 1;
nodes = (
"1099 160 OFFCURVE",
"1118 141 OFFCURVE",
"1144 141 CURVE SMOOTH",
"1168 141 OFFCURVE",
"1187 160 OFFCURVE",
"1187 185 CURVE SMOOTH",
"1187 211 OFFCURVE",
"1168 230 OFFCURVE",
"1144 230 CURVE SMOOTH",
"1118 230 OFFCURVE",
"1099 211 OFFCURVE",
"1099 185 CURVE SMOOTH"
);
},
{
closed = 1;
nodes = (
"1109 293 OFFCURVE",
"1127 275 OFFCURVE",
"1153 275 CURVE SMOOTH",
"1178 275 OFFCURVE",
"1197 293 OFFCURVE",
"1197 319 CURVE SMOOTH",
"1197 345 OFFCURVE",
"1178 363 OFFCURVE",
"1153 363 CURVE SMOOTH",
"1127 363 OFFCURVE",
"1109 345 OFFCURVE",
"1109 319 CURVE SMOOTH"
);
},
{
closed = 1;
nodes = (
"1059 412 OFFCURVE",
"1078 393 OFFCURVE",
"1103 393 CURVE SMOOTH",
"1129 393 OFFCURVE",
"1147 412 OFFCURVE",
"1147 437 CURVE SMOOTH",
"1147 463 OFFCURVE",
"1129 482 OFFCURVE",
"1103 482 CURVE SMOOTH",
"1078 482 OFFCURVE",
"1059 463 OFFCURVE",
"1059 437 CURVE SMOOTH"
);
},
{
closed = 1;
nodes = (
"964 481 OFFCURVE",
"983 461 OFFCURVE",
"1009 461 CURVE SMOOTH",
"1034 461 OFFCURVE",
"1052 481 OFFCURVE",
"1052 505 CURVE SMOOTH",
"1052 531 OFFCURVE",
"1034 550 OFFCURVE",
"1009 550 CURVE SMOOTH",
"983 550 OFFCURVE",
"964 531 OFFCURVE",
"964 505 CURVE SMOOTH"
);
},
{
closed = 1;
nodes = (
"838 494 OFFCURVE",
"856 476 OFFCURVE",
"882 476 CURVE SMOOTH",
"908 476 OFFCURVE",
"926 494 OFFCURVE",
"926 520 CURVE SMOOTH",
"926 546 OFFCURVE",
"908 564 OFFCURVE",
"882 564 CURVE SMOOTH",
"856 564 OFFCURVE",
"838 546 OFFCURVE",
"838 520 CURVE SMOOTH"
);
}
);
width = 1747;
},
{
components = (
{
name = "esign-sinh";
},
{
name = "vocaliclsign-sinh";
transform = "{1, 0, 0, 1, 1207, 0}";
}
);
layerId = "7B4D842D-CA8D-4153-9CDE-FADFBE419175";
paths = (
{
closed = 1;
nodes = (
"859 15 OFFCURVE",
"878 35 OFFCURVE",
"878 61 CURVE SMOOTH",
"878 85 OFFCURVE",
"859 105 OFFCURVE",
"834 105 CURVE SMOOTH",
"808 105 OFFCURVE",
"789 85 OFFCURVE",
"789 61 CURVE SMOOTH",
"789 35 OFFCURVE",
"808 15 OFFCURVE",
"834 15 CURVE SMOOTH"
);
},
{
closed = 1;
nodes = (
"757 92 OFFCURVE",
"776 110 OFFCURVE",
"776 136 CURVE SMOOTH",
"776 161 OFFCURVE",
"757 180 OFFCURVE",
"732 180 CURVE SMOOTH",
"706 180 OFFCURVE",
"688 161 OFFCURVE",
"688 136 CURVE SMOOTH",
"688 110 OFFCURVE",
"706 92 OFFCURVE",
"732 92 CURVE SMOOTH"
);
},
{
closed = 1;
nodes = (
"706 209 OFFCURVE",
"724 227 OFFCURVE",
"724 252 CURVE SMOOTH",
"724 278 OFFCURVE",
"706 297 OFFCURVE",
"680 297 CURVE SMOOTH",
"655 297 OFFCURVE",
"636 278 OFFCURVE",
"636 252 CURVE SMOOTH",
"636 227 OFFCURVE",
"655 209 OFFCURVE",
"680 209 CURVE SMOOTH"
);
},
{
closed = 1;
nodes = (
"986 1 OFFCURVE",
"1005 19 OFFCURVE",
"1005 45 CURVE SMOOTH",
"1005 71 OFFCURVE",
"986 89 OFFCURVE",
"960 89 CURVE SMOOTH",
"934 89 OFFCURVE",
"916 71 OFFCURVE",
"916 45 CURVE SMOOTH",
"916 19 OFFCURVE",
"934 1 OFFCURVE",
"960 1 CURVE SMOOTH"
);
},
{
closed = 1;
nodes = (
"719 334 OFFCURVE",
"739 353 OFFCURVE",
"739 378 CURVE SMOOTH",
"739 403 OFFCURVE",
"719 422 OFFCURVE",
"695 422 CURVE SMOOTH",
"669 422 OFFCURVE",
"649 403 OFFCURVE",
"649 378 CURVE SMOOTH",
"649 353 OFFCURVE",
"669 334 OFFCURVE",
"695 334 CURVE SMOOTH"
);
},
{
closed = 1;
nodes = (
"1106 54 OFFCURVE",
"1126 72 OFFCURVE",
"1126 98 CURVE SMOOTH",
"1126 123 OFFCURVE",
"1106 142 OFFCURVE",
"1081 142 CURVE SMOOTH",
"1056 142 OFFCURVE",
"1037 123 OFFCURVE",
"1037 98 CURVE SMOOTH",
"1037 72 OFFCURVE",
"1056 54 OFFCURVE",
"1081 54 CURVE SMOOTH"
);
},
{
closed = 1;
nodes = (
"801 443 OFFCURVE",
"819 462 OFFCURVE",
"819 488 CURVE SMOOTH",
"819 513 OFFCURVE",
"801 532 OFFCURVE",
"775 532 CURVE SMOOTH",
"749 532 OFFCURVE",
"731 513 OFFCURVE",
"731 488 CURVE SMOOTH",
"731 462 OFFCURVE",
"749 443 OFFCURVE",
"775 443 CURVE SMOOTH"
);
},
{
closed = 1;
nodes = (
"1179 152 OFFCURVE",
"1198 171 OFFCURVE",
"1198 196 CURVE SMOOTH",
"1198 222 OFFCURVE",
"1179 241 OFFCURVE",
"1155 241 CURVE SMOOTH",
"1129 241 OFFCURVE",
"1110 222 OFFCURVE",
"1110 196 CURVE SMOOTH",
"1110 171 OFFCURVE",
"1129 152 OFFCURVE",
"1155 152 CURVE SMOOTH"
);
},
{
closed = 1;
nodes = (
"919 487 OFFCURVE",
"937 505 OFFCURVE",
"937 531 CURVE SMOOTH",
"937 557 OFFCURVE",
"919 575 OFFCURVE",
"893 575 CURVE SMOOTH",
"867 575 OFFCURVE",
"849 557 OFFCURVE",
"849 531 CURVE SMOOTH",
"849 505 OFFCURVE",
"867 487 OFFCURVE",
"893 487 CURVE SMOOTH"
);
},
{
closed = 1;
nodes = (
"1189 286 OFFCURVE",
"1208 304 OFFCURVE",
"1208 330 CURVE SMOOTH",
"1208 356 OFFCURVE",
"1189 374 OFFCURVE",
"1164 374 CURVE SMOOTH",
"1138 374 OFFCURVE",
"1120 356 OFFCURVE",
"1120 330 CURVE SMOOTH",
"1120 304 OFFCURVE",
"1138 286 OFFCURVE",
"1164 286 CURVE SMOOTH"
);
},
{
closed = 1;
nodes = (
"1045 472 OFFCURVE",
"1063 492 OFFCURVE",
"1063 516 CURVE SMOOTH",
"1063 542 OFFCURVE",
"1045 561 OFFCURVE",
"1020 561 CURVE SMOOTH",
"994 561 OFFCURVE",
"975 542 OFFCURVE",
"975 516 CURVE SMOOTH",
"975 492 OFFCURVE",
"994 472 OFFCURVE",
"1020 472 CURVE SMOOTH"
);
},
{
closed = 1;
nodes = (
"1140 404 OFFCURVE",
"1158 423 OFFCURVE",
"1158 448 CURVE SMOOTH",
"1158 474 OFFCURVE",
"1140 493 OFFCURVE",
"1114 493 CURVE SMOOTH",
"1089 493 OFFCURVE",
"1070 474 OFFCURVE",
"1070 448 CURVE SMOOTH",
"1070 423 OFFCURVE",
"1089 404 OFFCURVE",
"1114 404 CURVE SMOOTH"
);
}
);
width = 1792;
}
);
unicode = 0DDE;
category = Mark;
subCategory = Spacing;
}
{
glyphname = "bha-sinh";
layers = (
{
layerId = "25BA55F5-DD3E-4682-A696-ADF7D9496427";
paths = (
{
closed = 1;
nodes = (
"135 424 LINE",
"140 470 OFFCURVE",
"171 498 OFFCURVE",
"220 498 CURVE",
"295 498 OFFCURVE",
"316 439 OFFCURVE",
"316 380 CURVE",
"30 380 LINE",
"30 325 LINE",
"375 326 LINE",
"377 340 OFFCURVE",
"378 353 OFFCURVE",
"378 367 CURVE",
"378 462 OFFCURVE",
"336 553 OFFCURVE",
"219 553 CURVE SMOOTH",
"132 553 OFFCURVE",
"77 499 OFFCURVE",
"75 424 CURVE"
);
},
{
closed = 1;
nodes = (
"470 553 OFFCURVE",
"397 414 OFFCURVE",
"397 236 CURVE",
"451 236 LINE",
"448 328 OFFCURVE",
"478 498 OFFCURVE",
"634 498 CURVE",
"762 498 OFFCURVE",
"803 405 OFFCURVE",
"803 277 CURVE SMOOTH",
"803 175 OFFCURVE",
"768 71 OFFCURVE",
"720 0 CURVE",
"786 0 LINE",
"826 52 OFFCURVE",
"865 163 OFFCURVE",
"865 277 CURVE SMOOTH",
"865 421 OFFCURVE",
"809 553 OFFCURVE",
"635 553 CURVE"
);
},
{
closed = 1;
nodes = (
"544 -10 OFFCURVE",
"650 77 OFFCURVE",
"650 212 CURVE SMOOTH",
"650 290 OFFCURVE",
"606 352 OFFCURVE",
"534 352 CURVE SMOOTH",
"482 352 OFFCURVE",
"431 322 OFFCURVE",
"431 236 CURVE",
"460 236 LINE",
"460 270 OFFCURVE",
"486 297 OFFCURVE",
"522 297 CURVE SMOOTH",
"570 297 OFFCURVE",
"590 258 OFFCURVE",
"590 211 CURVE SMOOTH",
"590 111 OFFCURVE",
"520 45 OFFCURVE",
"357 45 CURVE",
"231 45 OFFCURVE",
"127 93 OFFCURVE",
"127 202 CURVE SMOOTH",
"127 278 OFFCURVE",
"172 326 OFFCURVE",
"239 326 CURVE",
"127 326 LINE",
"86 303 OFFCURVE",
"63 256 OFFCURVE",
"63 201 CURVE SMOOTH",
"63 61 OFFCURVE",
"197 -10 OFFCURVE",
"356 -10 CURVE"
);
}
);
width = 940;
},
{
layerId = "7B4D842D-CA8D-4153-9CDE-FADFBE419175";
paths = (
{
closed = 1;
nodes = (
"198 453 LINE",
"200 475 OFFCURVE",
"215 492 OFFCURVE",
"242 492 CURVE SMOOTH",
"278 492 OFFCURVE",
"291 461 OFFCURVE",
"291 422 CURVE",
"40 424 LINE",
"40 329 LINE",
"401 329 LINE",
"404 347 OFFCURVE",
"405 370 OFFCURVE",
"405 387 CURVE SMOOTH",
"405 499 OFFCURVE",
"353 586 OFFCURVE",
"243 586 CURVE SMOOTH",
"136 586 OFFCURVE",
"89 517 OFFCURVE",
"85 453 CURVE"
);
},
{
closed = 1;
nodes = (
"478 576 OFFCURVE",
"419 379 OFFCURVE",
"408 251 CURVE",
"531 248 LINE",
"540 341 OFFCURVE",
"577 464 OFFCURVE",
"696 464 CURVE",
"795 464 OFFCURVE",
"839 390 OFFCURVE",
"839 271 CURVE SMOOTH",
"839 185 OFFCURVE",
"805 77 OFFCURVE",
"742 1 CURVE",
"895 1 LINE",
"954 82 OFFCURVE",
"974 192 OFFCURVE",
"974 271 CURVE SMOOTH",
"974 435 OFFCURVE",
"889 576 OFFCURVE",
"697 576 CURVE"
);
},
{
closed = 1;
nodes = (
"613 -10 OFFCURVE",
"735 66 OFFCURVE",
"735 222 CURVE SMOOTH",
"735 304 OFFCURVE",
"688 370 OFFCURVE",
"607 370 CURVE SMOOTH",
"519 370 OFFCURVE",
"500 303 OFFCURVE",
"500 249 CURVE",
"531 248 LINE",
"533 261 OFFCURVE",
"543 276 OFFCURVE",
"564 276 CURVE SMOOTH",
"594 276 OFFCURVE",
"608 257 OFFCURVE",
"608 223 CURVE",
"608 146 OFFCURVE",
"545 102 OFFCURVE",
"421 102 CURVE",
"303 102 OFFCURVE",
"206 135 OFFCURVE",
"206 223 CURVE",
"206 288 OFFCURVE",
"256 329 OFFCURVE",
"315 329 CURVE",
"126 329 LINE",
"96 302 OFFCURVE",
"70 263 OFFCURVE",
"70 206 CURVE",
"70 65 OFFCURVE",
"225 -10 OFFCURVE",
"418 -10 CURVE"
);
}
);
width = 1043;
}
);
unicode = 0DB7;
}
{
glyphname = brokenbar;
layers = (
{
layerId = "7B4D842D-CA8D-4153-9CDE-FADFBE419175";
paths = (
{
closed = 1;
nodes = (
"210 707 LINE",
"70 707 LINE",
"70 369 LINE",
"210 369 LINE"
);
},
{
closed = 1;
nodes = (
"210 221 LINE",
"70 221 LINE",
"70 -117 LINE",
"210 -117 LINE"
);
}
);
width = 280;
},
{
layerId = "25BA55F5-DD3E-4682-A696-ADF7D9496427";
paths = (
{
closed = 1;
nodes = (
"134 695 LINE",
"80 695 LINE",
"80 366 LINE",
"134 366 LINE"
);
},
{
closed = 1;
nodes = (
"134 135 LINE",
"80 135 LINE",
"80 -194 LINE",
"134 -194 LINE"
);
}
);
width = 214;
}
);
unicode = 00A6;
}
{
glyphname = "ca-sinh";
layers = (
{
layerId = "25BA55F5-DD3E-4682-A696-ADF7D9496427";
paths = (
{
closed = 1;
nodes = (
"141 424 LINE",
"143 464 OFFCURVE",
"165 498 OFFCURVE",
"218 498 CURVE",
"297 498 OFFCURVE",
"316 439 OFFCURVE",
"316 380 CURVE",
"30 380 LINE",
"30 325 LINE",
"378 326 LINE",
"380 340 OFFCURVE",
"380 353 OFFCURVE",
"380 367 CURVE",
"380 462 OFFCURVE",
"338 553 OFFCURVE",
"217 553 CURVE SMOOTH",
"125 553 OFFCURVE",
"83 493 OFFCURVE",
"81 424 CURVE"
);
},
{
closed = 1;
nodes = (
"615 178 OFFCURVE",
"518 45 OFFCURVE",
"330 45 CURVE SMOOTH",
"207 45 OFFCURVE",
"126 103 OFFCURVE",
"126 202 CURVE SMOOTH",
"126 278 OFFCURVE",
"171 326 OFFCURVE",
"238 326 CURVE",
"120 326 LINE",
"85 303 OFFCURVE",
"62 259 OFFCURVE",
"62 201 CURVE SMOOTH",
"62 71 OFFCURVE",
"173 -10 OFFCURVE",
"329 -10 CURVE SMOOTH",
"584 -10 OFFCURVE",
"675 177 OFFCURVE",
"675 367 CURVE",
"675 573 OFFCURVE",
"587 773 OFFCURVE",
"302 773 CURVE",
"213 773 OFFCURVE",
"130 753 OFFCURVE",
"69 727 CURVE",
"69 672 LINE",
"129 697 OFFCURVE",
"213 718 OFFCURVE",
"302 718 CURVE",
"530 718 OFFCURVE",
"615 570 OFFCURVE",
"615 367 CURVE"
);
}
);
width = 755;
},
{
layerId = "7B4D842D-CA8D-4153-9CDE-FADFBE419175";
paths = (
{
closed = 1;
nodes = (
"183 453 LINE",
"183 477 OFFCURVE",
"208 492 OFFCURVE",
"237 492 CURVE SMOOTH",
"288 492 OFFCURVE",
"305 463 OFFCURVE",
"305 422 CURVE",
"34 424 LINE",
"34 329 LINE",
"415 329 LINE",
"418 347 OFFCURVE",
"419 370 OFFCURVE",
"419 387 CURVE SMOOTH",
"419 499 OFFCURVE",
"373 586 OFFCURVE",
"236 586 CURVE SMOOTH",
"129 586 OFFCURVE",
"77 517 OFFCURVE",
"73 453 CURVE"
);
},
{
closed = 1;
nodes = (
"594 241 OFFCURVE",
"521 102 OFFCURVE",
"366 102 CURVE",
"267 102 OFFCURVE",
"200 142 OFFCURVE",
"200 220 CURVE",
"200 279 OFFCURVE",
"243 329 OFFCURVE",
"320 329 CURVE",
"127 329 LINE",
"84 303 OFFCURVE",
"62 257 OFFCURVE",
"62 200 CURVE",
"62 70 OFFCURVE",
"202 -10 OFFCURVE",
"365 -10 CURVE",
"665 -10 OFFCURVE",
"729 235 OFFCURVE",
"729 396 CURVE",
"729 623 OFFCURVE",
"597 806 OFFCURVE",
"309 806 CURVE",
"214 806 OFFCURVE",
"147 788 OFFCURVE",
"74 759 CURVE",
"74 645 LINE",
"140 674 OFFCURVE",
"217 694 OFFCURVE",
"310 694 CURVE",
"511 694 OFFCURVE",
"594 563 OFFCURVE",
"594 399 CURVE"
);
}
);
width = 784;
}
);
unicode = 0DA0;
}
{
glyphname = "cha-sinh";
layers = (
{
layerId = "25BA55F5-DD3E-4682-A696-ADF7D9496427";
paths = (
{
closed = 1;
nodes = (
"429 350 LINE",
"440 351 OFFCURVE",
"450 351 OFFCURVE",
"461 351 CURVE SMOOTH",
"567 351 OFFCURVE",
"639 321 OFFCURVE",
"639 220 CURVE",
"639 93 OFFCURVE",
"527 45 OFFCURVE",
"378 45 CURVE",
"236 45 OFFCURVE",
"108 94 OFFCURVE",
"108 213 CURVE",
"108 297 OFFCURVE",
"164 336 OFFCURVE",
"262 336 CURVE SMOOTH",
"344 336 LINE",
"346 349 OFFCURVE",
"347 362 OFFCURVE",
"347 386 CURVE",
"347 481 OFFCURVE",
"309 553 OFFCURVE",
"203 553 CURVE SMOOTH",
"115 553 OFFCURVE",
"74 499 OFFCURVE",
"73 434 CURVE",
"133 434 LINE",
"135 474 OFFCURVE",
"161 498 OFFCURVE",
"204 498 CURVE",
"268 498 OFFCURVE",
"283 449 OFFCURVE",
"283 390 CURVE",
"243 391 LINE",
"126 391 OFFCURVE",
"48 327 OFFCURVE",
"48 212 CURVE",
"48 62 OFFCURVE",
"204 -10 OFFCURVE",
"379 -10 CURVE",
"561 -10 OFFCURVE",
"699 61 OFFCURVE",
"699 219 CURVE",
"699 348 OFFCURVE",
"602 411 OFFCURVE",
"470 411 CURVE SMOOTH",
"456 411 OFFCURVE",
"440 410 OFFCURVE",
"425 408 CURVE"
);
},
{
closed = 1;
nodes = (
"617 211 OFFCURVE",
"663 290 OFFCURVE",
"663 384 CURVE SMOOTH",
"663 461 OFFCURVE",
"632 553 OFFCURVE",
"537 553 CURVE SMOOTH",
"477 553 OFFCURVE",
"435 500 OFFCURVE",
"421 458 CURVE",
"383 391 LINE",
"383 283 OFFCURVE",
"431 211 OFFCURVE",
"523 211 CURVE SMOOTH"
);
},
{
closed = 1;
nodes = (
"465 266 OFFCURVE",
"441 321 OFFCURVE",
"441 384 CURVE SMOOTH",
"441 444 OFFCURVE",
"467 498 OFFCURVE",
"523 498 CURVE SMOOTH",
"586 498 OFFCURVE",
"605 439 OFFCURVE",
"605 384 CURVE SMOOTH",
"605 327 OFFCURVE",
"586 266 OFFCURVE",
"523 266 CURVE SMOOTH"
);
},
{
closed = 1;
nodes = (
"594 668 LINE",
"428 648 OFFCURVE",
"383 518 OFFCURVE",
"383 391 CURVE",
"434 417 LINE",
"434 521 OFFCURVE",
"493 600 OFFCURVE",
"594 614 CURVE"
);
}
);
width = 754;
},
{
layerId = "7B4D842D-CA8D-4153-9CDE-FADFBE419175";
paths = (
{
closed = 1;
nodes = (
"505 343 LINE",
"519 345 OFFCURVE",
"534 346 OFFCURVE",
"548 346 CURVE SMOOTH",
"626 346 OFFCURVE",
"698 318 OFFCURVE",
"698 240 CURVE",
"698 138 OFFCURVE",
"589 102 OFFCURVE",
"442 102 CURVE",
"315 102 OFFCURVE",
"188 129 OFFCURVE",
"188 231 CURVE",
"188 306 OFFCURVE",
"247 338 OFFCURVE",
"334 338 CURVE",
"400 338 LINE",
"403 356 OFFCURVE",
"404 370 OFFCURVE",
"404 387 CURVE SMOOTH",
"404 499 OFFCURVE",
"352 586 OFFCURVE",
"233 586 CURVE SMOOTH",
"130 586 OFFCURVE",
"80 520 OFFCURVE",
"76 448 CURVE",
"186 448 LINE",
"186 472 OFFCURVE",
"203 492 OFFCURVE",
"234 492 CURVE SMOOTH",
"275 492 OFFCURVE",
"290 457 OFFCURVE",
"290 422 CURVE",
"271 422 LINE",
"146 422 OFFCURVE",
"59 345 OFFCURVE",
"59 230 CURVE",
"59 60 OFFCURVE",
"236 -10 OFFCURVE",
"441 -10 CURVE",
"656 -10 OFFCURVE",
"805 65 OFFCURVE",
"805 225 CURVE",
"805 379 OFFCURVE",
"670 440 OFFCURVE",
"562 440 CURVE SMOOTH",
"549 440 OFFCURVE",
"535 439 OFFCURVE",
"523 437 CURVE"
);
},
{
closed = 1;
nodes = (
"697 195 OFFCURVE",
"763 292 OFFCURVE",
"763 384 CURVE SMOOTH",
"763 495 OFFCURVE",
"714 581 OFFCURVE",
"617 581 CURVE SMOOTH",
"577 581 OFFCURVE",
"526 558 OFFCURVE",
"509 521 CURVE",
"432 404 LINE",
"432 287 OFFCURVE",
"493 195 OFFCURVE",
"600 195 CURVE SMOOTH"
);
},
{
closed = 1;
nodes = (
"556 285 OFFCURVE",
"529 312 OFFCURVE",
"529 384 CURVE SMOOTH",
"529 462 OFFCURVE",
"554 494 OFFCURVE",
"599 494 CURVE SMOOTH",
"648 494 OFFCURVE",
"668 455 OFFCURVE",
"668 384 CURVE SMOOTH",
"668 324 OFFCURVE",
"648 285 OFFCURVE",
"600 285 CURVE SMOOTH"
);
},
{
closed = 1;
nodes = (
"690 726 LINE",
"511 726 OFFCURVE",
"432 565 OFFCURVE",
"432 404 CURVE",
"532 455 LINE",
"532 558 OFFCURVE",
"579 621 OFFCURVE",
"690 621 CURVE"
);
}
);
width = 840;
}
);
unicode = 0DA1;
}
{
glyphname = copyright;
layers = (
{
layerId = "7B4D842D-CA8D-4153-9CDE-FADFBE419175";
paths = (
{
closed = 1;
nodes = (
"35 147 OFFCURVE",
"190 -8 OFFCURVE",
"381 -8 CURVE SMOOTH",
"571 -8 OFFCURVE",
"726 147 OFFCURVE",
"726 338 CURVE SMOOTH",
"726 528 OFFCURVE",
"571 683 OFFCURVE",
"381 683 CURVE SMOOTH",
"190 683 OFFCURVE",
"35 528 OFFCURVE",
"35 338 CURVE SMOOTH"
);
},
{
closed = 1;
nodes = (
"132 480 OFFCURVE",
"237 585 OFFCURVE",
"381 585 CURVE SMOOTH",
"524 585 OFFCURVE",
"629 480 OFFCURVE",
"629 337 CURVE SMOOTH",
"629 192 OFFCURVE",
"524 88 OFFCURVE",
"381 88 CURVE SMOOTH",
"237 88 OFFCURVE",
"132 192 OFFCURVE",
"132 337 CURVE SMOOTH"
);
},
{
closed = 1;
nodes = (
"335 390 OFFCURVE",
"375 412 OFFCURVE",
"407 412 CURVE SMOOTH",
"435 412 OFFCURVE",
"463 405 OFFCURVE",
"487 390 CURVE",
"487 484 LINE",
"455 501 OFFCURVE",
"424 506 OFFCURVE",
"397 506 CURVE SMOOTH",
"289 506 OFFCURVE",
"222 436 OFFCURVE",
"221 337 CURVE",
"221 234 OFFCURVE",
"303 171 OFFCURVE",
"391 171 CURVE SMOOTH",
"426 171 OFFCURVE",
"461 178 OFFCURVE",
"487 192 CURVE",
"487 287 LINE",
"461 271 OFFCURVE",
"432 263 OFFCURVE",
"405 263 CURVE SMOOTH",
"369 263 OFFCURVE",
"337 289 OFFCURVE",
"334 337 CURVE"
);
}
);
width = 761;
},
{
layerId = "25BA55F5-DD3E-4682-A696-ADF7D9496427";
paths = (
{
closed = 1;
nodes = (
"45 148 OFFCURVE",
"202 -9 OFFCURVE",
"390 -9 CURVE SMOOTH",
"578 -9 OFFCURVE",
"735 148 OFFCURVE",
"735 336 CURVE SMOOTH",
"735 524 OFFCURVE",
"578 682 OFFCURVE",
"390 682 CURVE SMOOTH",
"202 682 OFFCURVE",
"45 524 OFFCURVE",
"45 336 CURVE SMOOTH"
);
},
{
closed = 1;
nodes = (
"104 493 OFFCURVE",
"234 624 OFFCURVE",
"391 624 CURVE SMOOTH",
"548 624 OFFCURVE",
"678 493 OFFCURVE",
"678 336 CURVE SMOOTH",
"678 179 OFFCURVE",
"548 49 OFFCURVE",
"391 49 CURVE SMOOTH",
"234 49 OFFCURVE",
"104 179 OFFCURVE",
"104 336 CURVE SMOOTH"
);
},
{
closed = 1;
nodes = (
"282 415 OFFCURVE",
"336 475 OFFCURVE",
"420 475 CURVE SMOOTH",
"441 475 OFFCURVE",
"475 467 OFFCURVE",
"497 452 CURVE",
"497 509 LINE",
"471 524 OFFCURVE",
"437 529 OFFCURVE",
"416 529 CURVE SMOOTH",
"291 529 OFFCURVE",
"224 431 OFFCURVE",
"224 334 CURVE SMOOTH",
"224 234 OFFCURVE",
"290 140 OFFCURVE",
"416 140 CURVE SMOOTH",
"443 140 OFFCURVE",
"479 149 OFFCURVE",
"497 162 CURVE",
"497 219 LINE",
"481 205 OFFCURVE",
"449 194 OFFCURVE",
"420 194 CURVE SMOOTH",
"335 194 OFFCURVE",
"282 256 OFFCURVE",
"282 333 CURVE SMOOTH"
);
}
);
width = 780;
}
);
unicode = 00A9;
}
{
color = 1;
glyphname = "da-sinh";
layers = (
{
layerId = "25BA55F5-DD3E-4682-A696-ADF7D9496427";
paths = (
{
closed = 1;
nodes = (
"222 434 LINE",
"222 477 OFFCURVE",
"255 498 OFFCURVE",
"301 498 CURVE",
"365 498 OFFCURVE",
"393 449 OFFCURVE",
"393 390 CURVE",
"278 391 LINE",
"141 391 OFFCURVE",
"55 312 OFFCURVE",
"55 197 CURVE",
"55 39 OFFCURVE",
"185 -10 OFFCURVE",
"319 -10 CURVE SMOOTH",
"369 -10 OFFCURVE",
"426 0 OFFCURVE",
"466 13 CURVE",
"466 68 LINE",
"429 54 OFFCURVE",
"367 45 OFFCURVE",
"313 45 CURVE SMOOTH",
"219 45 OFFCURVE",
"115 78 OFFCURVE",
"115 198 CURVE",
"115 282 OFFCURVE",
"172 336 OFFCURVE",
"280 336 CURVE SMOOTH",
"454 336 LINE",
"456 349 OFFCURVE",
"457 362 OFFCURVE",
"457 386 CURVE",
"457 481 OFFCURVE",
"404 553 OFFCURVE",
"298 553 CURVE SMOOTH",
"209 553 OFFCURVE",
"162 499 OFFCURVE",
"162 434 CURVE"
);
},
{
closed = 1;
nodes = (
"423 37 LINE",
"363 13 OFFCURVE",
"319 -39 OFFCURVE",
"319 -93 CURVE SMOOTH",
"319 -159 OFFCURVE",
"380 -186 OFFCURVE",
"433 -186 CURVE SMOOTH",
"442 -186 OFFCURVE",
"453 -185 OFFCURVE",
"459 -184 CURVE",
"460 -137 LINE",
"418 -137 OFFCURVE",
"382 -126 OFFCURVE",
"382 -87 CURVE SMOOTH",
"382 -40 OFFCURVE",
"422 -6 OFFCURVE",
"466 13 CURVE"
);
}
);
width = 531;
},
{
layerId = "7B4D842D-CA8D-4153-9CDE-FADFBE419175";
paths = (
{
closed = 1;
nodes = (
"269 421 LINE",
"270 457 OFFCURVE",
"296 475 OFFCURVE",
"327 475 CURVE SMOOTH",
"373 475 OFFCURVE",
"399 441 OFFCURVE",
"399 396 CURVE",
"306 396 LINE",
"181 396 OFFCURVE",
"36 343 OFFCURVE",
"35 191 CURVE",
"35 60 OFFCURVE",
"152 -10 OFFCURVE",
"316 -10 CURVE",
"368 -10 OFFCURVE",
"483 4 OFFCURVE",
"528 21 CURVE",
"528 128 LINE",
"479 117 OFFCURVE",
"390 102 OFFCURVE",
"318 102 CURVE",
"221 102 OFFCURVE",
"167 131 OFFCURVE",
"167 194 CURVE SMOOTH",
"167 262 OFFCURVE",
"225 291 OFFCURVE",
"310 291 CURVE",
"521 291 LINE",
"524 313 OFFCURVE",
"526 345 OFFCURVE",
"526 367 CURVE SMOOTH",
"526 497 OFFCURVE",
"452 587 OFFCURVE",
"319 587 CURVE SMOOTH",
"205 587 OFFCURVE",
"139 521 OFFCURVE",
"131 421 CURVE"
);
},
{
closed = 1;
nodes = (
"429 48 LINE",
"381 14 OFFCURVE",
"342 -37 OFFCURVE",
"342 -99 CURVE SMOOTH",
"342 -160 OFFCURVE",
"391 -200 OFFCURVE",
"467 -200 CURVE SMOOTH",
"482 -200 OFFCURVE",
"498 -198 OFFCURVE",
"515 -195 CURVE",
"517 -103 LINE",
"487 -102 OFFCURVE",
"468 -92 OFFCURVE",
"468 -64 CURVE SMOOTH",
"468 -34 OFFCURVE",
"494 3 OFFCURVE",
"528 21 CURVE"
);
}
);
width = 598;
}
);
unicode = 0DAF;
}
{
glyphname = "dha-sinh";
layers = (
{
layerId = "25BA55F5-DD3E-4682-A696-ADF7D9496427";
paths = (
{
closed = 1;
nodes = (
"173 45 OFFCURVE",
"133 106 OFFCURVE",
"133 201 CURVE",
"133 317 OFFCURVE",
"195 396 OFFCURVE",
"301 396 CURVE SMOOTH",
"320 396 OFFCURVE",
"343 395 OFFCURVE",
"362 391 CURVE",
"362 444 LINE",
"343 450 OFFCURVE",
"320 452 OFFCURVE",
"301 452 CURVE SMOOTH",
"139 452 OFFCURVE",
"73 333 OFFCURVE",
"73 200 CURVE",
"73 83 OFFCURVE",
"135 -10 OFFCURVE",
"250 -10 CURVE SMOOTH",
"316 -10 OFFCURVE",
"351 24 OFFCURVE",
"371 58 CURVE",
"387 29 OFFCURVE",
"427 -10 OFFCURVE",
"489 -10 CURVE SMOOTH",
"652 -10 OFFCURVE",
"686 152 OFFCURVE",
"686 319 CURVE",
"686 556 OFFCURVE",
"594 773 OFFCURVE",
"318 773 CURVE",
"237 773 OFFCURVE",
"149 754 OFFCURVE",
"88 722 CURVE",
"88 667 LINE",
"149 698 OFFCURVE",
"237 718 OFFCURVE",
"318 718 CURVE",
"537 718 OFFCURVE",
"626 553 OFFCURVE",
"626 319 CURVE",
"626 177 OFFCURVE",
"600 45 OFFCURVE",
"493 45 CURVE SMOOTH",
"424 45 OFFCURVE",
"400 94 OFFCURVE",
"400 142 CURVE",
"400 176 LINE",
"341 176 LINE",
"341 142 LINE",
"341 93 OFFCURVE",
"315 45 OFFCURVE",
"251 45 CURVE SMOOTH"
);
}
);
width = 761;
},
{
layerId = "7B4D842D-CA8D-4153-9CDE-FADFBE419175";
paths = (
{
closed = 1;
nodes = (
"195 102 OFFCURVE",
"171 154 OFFCURVE",
"171 229 CURVE",
"171 332 OFFCURVE",
"224 387 OFFCURVE",
"318 387 CURVE SMOOTH",
"340 387 OFFCURVE",
"366 385 OFFCURVE",
"385 381 CURVE",
"385 496 LINE",
"367 500 OFFCURVE",
"344 502 OFFCURVE",
"317 502 CURVE SMOOTH",
"149 502 OFFCURVE",
"36 404 OFFCURVE",
"36 232 CURVE SMOOTH",
"36 92 OFFCURVE",
"120 -10 OFFCURVE",
"257 -10 CURVE",
"322 -10 OFFCURVE",
"376 15 OFFCURVE",
"409 78 CURVE",
"436 25 OFFCURVE",
"490 -10 OFFCURVE",
"574 -10 CURVE SMOOTH",
"767 -10 OFFCURVE",
"819 189 OFFCURVE",
"819 358 CURVE",
"819 615 OFFCURVE",
"668 806 OFFCURVE",
"357 806 CURVE",
"235 806 OFFCURVE",
"117 773 OFFCURVE",
"44 744 CURVE",
"44 622 LINE",
"111 654 OFFCURVE",
"233 694 OFFCURVE",
"357 694 CURVE",
"581 694 OFFCURVE",
"684 555 OFFCURVE",
"684 361 CURVE",
"684 217 OFFCURVE",
"663 102 OFFCURVE",
"565 102 CURVE SMOOTH",
"507 102 OFFCURVE",
"480 141 OFFCURVE",
"480 194 CURVE",
"480 230 LINE",
"339 230 LINE",
"339 192 LINE",
"339 143 OFFCURVE",
"315 102 OFFCURVE",
"261 102 CURVE"
);
}
);
width = 874;
}
);
unicode = 0DB0;
}
{
glyphname = "eesign-sinh";
layers = (
{
components = (
{
name = "esign-sinh";
},
{
name = "virama-sinh";
transform = "{1, 0, 0, 1, 1177, 80}";
}
);
layerId = "25BA55F5-DD3E-4682-A696-ADF7D9496427";
paths = (
{
closed = 1;
nodes = (
"670 451 OFFCURVE",
"688 432 OFFCURVE",
"714 432 CURVE SMOOTH",
"740 432 OFFCURVE",
"758 451 OFFCURVE",
"758 477 CURVE SMOOTH",
"758 502 OFFCURVE",
"740 521 OFFCURVE",
"714 521 CURVE SMOOTH",
"688 521 OFFCURVE",
"670 502 OFFCURVE",
"670 477 CURVE SMOOTH"
);
},
{
closed = 1;
nodes = (
"588 342 OFFCURVE",
"608 323 OFFCURVE",
"634 323 CURVE SMOOTH",
"658 323 OFFCURVE",
"678 342 OFFCURVE",
"678 367 CURVE SMOOTH",
"678 392 OFFCURVE",
"658 411 OFFCURVE",
"634 411 CURVE SMOOTH",
"608 411 OFFCURVE",
"588 392 OFFCURVE",
"588 367 CURVE SMOOTH"
);
},
{
closed = 1;
nodes = (
"575 216 OFFCURVE",
"594 198 OFFCURVE",
"619 198 CURVE SMOOTH",
"645 198 OFFCURVE",
"663 216 OFFCURVE",
"663 241 CURVE SMOOTH",
"663 267 OFFCURVE",
"645 286 OFFCURVE",
"619 286 CURVE SMOOTH",
"594 286 OFFCURVE",
"575 267 OFFCURVE",
"575 241 CURVE SMOOTH"
);
},
{
closed = 1;
nodes = (
"627 99 OFFCURVE",
"645 81 OFFCURVE",
"671 81 CURVE SMOOTH",
"696 81 OFFCURVE",
"715 99 OFFCURVE",
"715 125 CURVE SMOOTH",
"715 150 OFFCURVE",
"696 169 OFFCURVE",
"671 169 CURVE SMOOTH",
"645 169 OFFCURVE",
"627 150 OFFCURVE",
"627 125 CURVE SMOOTH"
);
},
{
closed = 1;
nodes = (
"728 24 OFFCURVE",
"747 4 OFFCURVE",
"773 4 CURVE SMOOTH",
"798 4 OFFCURVE",
"817 24 OFFCURVE",
"817 50 CURVE SMOOTH",
"817 74 OFFCURVE",
"798 94 OFFCURVE",
"773 94 CURVE SMOOTH",
"747 94 OFFCURVE",
"728 74 OFFCURVE",
"728 50 CURVE SMOOTH"
);
},
{
closed = 1;
nodes = (
"855 8 OFFCURVE",
"873 -10 OFFCURVE",
"899 -10 CURVE SMOOTH",
"925 -10 OFFCURVE",
"944 8 OFFCURVE",
"944 34 CURVE SMOOTH",
"944 60 OFFCURVE",
"925 78 OFFCURVE",
"899 78 CURVE SMOOTH",
"873 78 OFFCURVE",
"855 60 OFFCURVE",
"855 34 CURVE SMOOTH"
);
},
{
closed = 1;
nodes = (
"976 61 OFFCURVE",
"995 43 OFFCURVE",
"1020 43 CURVE SMOOTH",
"1045 43 OFFCURVE",
"1065 61 OFFCURVE",
"1065 87 CURVE SMOOTH",
"1065 112 OFFCURVE",
"1045 131 OFFCURVE",
"1020 131 CURVE SMOOTH",
"995 131 OFFCURVE",
"976 112 OFFCURVE",
"976 87 CURVE SMOOTH"
);
},
{
closed = 1;
nodes = (
"1049 160 OFFCURVE",
"1068 141 OFFCURVE",
"1094 141 CURVE SMOOTH",
"1118 141 OFFCURVE",
"1137 160 OFFCURVE",
"1137 185 CURVE SMOOTH",
"1137 211 OFFCURVE",
"1118 230 OFFCURVE",
"1094 230 CURVE SMOOTH",
"1068 230 OFFCURVE",
"1049 211 OFFCURVE",
"1049 185 CURVE SMOOTH"
);
},
{
closed = 1;
nodes = (
"1059 293 OFFCURVE",
"1077 275 OFFCURVE",
"1103 275 CURVE SMOOTH",
"1128 275 OFFCURVE",
"1147 293 OFFCURVE",
"1147 319 CURVE SMOOTH",
"1147 345 OFFCURVE",
"1128 363 OFFCURVE",
"1103 363 CURVE SMOOTH",
"1077 363 OFFCURVE",
"1059 345 OFFCURVE",
"1059 319 CURVE SMOOTH"
);
},
{
closed = 1;
nodes = (
"1009 412 OFFCURVE",
"1028 393 OFFCURVE",
"1053 393 CURVE SMOOTH",
"1079 393 OFFCURVE",
"1097 412 OFFCURVE",
"1097 437 CURVE SMOOTH",
"1097 463 OFFCURVE",
"1079 482 OFFCURVE",
"1053 482 CURVE SMOOTH",
"1028 482 OFFCURVE",
"1009 463 OFFCURVE",
"1009 437 CURVE SMOOTH"
);
},
{
closed = 1;
nodes = (
"914 481 OFFCURVE",
"933 461 OFFCURVE",
"959 461 CURVE SMOOTH",
"984 461 OFFCURVE",
"1002 481 OFFCURVE",
"1002 505 CURVE SMOOTH",
"1002 531 OFFCURVE",
"984 550 OFFCURVE",
"959 550 CURVE SMOOTH",
"933 550 OFFCURVE",
"914 531 OFFCURVE",
"914 505 CURVE SMOOTH"
);
},
{
closed = 1;
nodes = (
"788 494 OFFCURVE",
"806 476 OFFCURVE",
"832 476 CURVE SMOOTH",
"858 476 OFFCURVE",
"876 494 OFFCURVE",
"876 520 CURVE SMOOTH",
"876 546 OFFCURVE",
"858 564 OFFCURVE",
"832 564 CURVE SMOOTH",
"806 564 OFFCURVE",
"788 546 OFFCURVE",
"788 520 CURVE SMOOTH"
);
}
);
width = 1177;
},
{
components = (
{
name = "esign-sinh";
},
{
name = "virama-sinh";
transform = "{1, 0, 0, 1, 1273, 60}";
}
);
layerId = "7B4D842D-CA8D-4153-9CDE-FADFBE419175";
paths = (
{
closed = 1;
nodes = (
"859 15 OFFCURVE",
"878 35 OFFCURVE",
"878 61 CURVE SMOOTH",
"878 85 OFFCURVE",
"859 105 OFFCURVE",
"834 105 CURVE SMOOTH",
"808 105 OFFCURVE",
"789 85 OFFCURVE",
"789 61 CURVE SMOOTH",
"789 35 OFFCURVE",
"808 15 OFFCURVE",
"834 15 CURVE SMOOTH"
);
},
{
closed = 1;
nodes = (
"757 92 OFFCURVE",
"776 110 OFFCURVE",
"776 136 CURVE SMOOTH",
"776 161 OFFCURVE",
"757 180 OFFCURVE",
"732 180 CURVE SMOOTH",
"706 180 OFFCURVE",
"688 161 OFFCURVE",
"688 136 CURVE SMOOTH",
"688 110 OFFCURVE",
"706 92 OFFCURVE",
"732 92 CURVE SMOOTH"
);
},
{
closed = 1;
nodes = (
"706 209 OFFCURVE",
"724 227 OFFCURVE",
"724 252 CURVE SMOOTH",
"724 278 OFFCURVE",
"706 297 OFFCURVE",
"680 297 CURVE SMOOTH",
"655 297 OFFCURVE",
"636 278 OFFCURVE",
"636 252 CURVE SMOOTH",
"636 227 OFFCURVE",
"655 209 OFFCURVE",
"680 209 CURVE SMOOTH"
);
},
{
closed = 1;
nodes = (
"986 1 OFFCURVE",
"1005 19 OFFCURVE",
"1005 45 CURVE SMOOTH",
"1005 71 OFFCURVE",
"986 89 OFFCURVE",
"960 89 CURVE SMOOTH",
"934 89 OFFCURVE",
"916 71 OFFCURVE",
"916 45 CURVE SMOOTH",
"916 19 OFFCURVE",
"934 1 OFFCURVE",
"960 1 CURVE SMOOTH"
);
},
{
closed = 1;
nodes = (
"719 334 OFFCURVE",
"739 353 OFFCURVE",
"739 378 CURVE SMOOTH",
"739 403 OFFCURVE",
"719 422 OFFCURVE",
"695 422 CURVE SMOOTH",
"669 422 OFFCURVE",
"649 403 OFFCURVE",
"649 378 CURVE SMOOTH",
"649 353 OFFCURVE",
"669 334 OFFCURVE",
"695 334 CURVE SMOOTH"
);
},
{
closed = 1;
nodes = (
"1106 54 OFFCURVE",
"1126 72 OFFCURVE",
"1126 98 CURVE SMOOTH",
"1126 123 OFFCURVE",
"1106 142 OFFCURVE",
"1081 142 CURVE SMOOTH",
"1056 142 OFFCURVE",
"1037 123 OFFCURVE",
"1037 98 CURVE SMOOTH",
"1037 72 OFFCURVE",
"1056 54 OFFCURVE",
"1081 54 CURVE SMOOTH"
);
},
{
closed = 1;
nodes = (
"801 443 OFFCURVE",
"819 462 OFFCURVE",
"819 488 CURVE SMOOTH",
"819 513 OFFCURVE",
"801 532 OFFCURVE",
"775 532 CURVE SMOOTH",
"749 532 OFFCURVE",
"731 513 OFFCURVE",
"731 488 CURVE SMOOTH",
"731 462 OFFCURVE",
"749 443 OFFCURVE",
"775 443 CURVE SMOOTH"
);
},
{
closed = 1;
nodes = (
"1179 152 OFFCURVE",
"1198 171 OFFCURVE",
"1198 196 CURVE SMOOTH",
"1198 222 OFFCURVE",
"1179 241 OFFCURVE",
"1155 241 CURVE SMOOTH",
"1129 241 OFFCURVE",
"1110 222 OFFCURVE",
"1110 196 CURVE SMOOTH",
"1110 171 OFFCURVE",
"1129 152 OFFCURVE",
"1155 152 CURVE SMOOTH"
);
},
{
closed = 1;
nodes = (
"919 487 OFFCURVE",
"937 505 OFFCURVE",
"937 531 CURVE SMOOTH",
"937 557 OFFCURVE",
"919 575 OFFCURVE",
"893 575 CURVE SMOOTH",
"867 575 OFFCURVE",
"849 557 OFFCURVE",
"849 531 CURVE SMOOTH",
"849 505 OFFCURVE",
"867 487 OFFCURVE",
"893 487 CURVE SMOOTH"
);
},
{
closed = 1;
nodes = (
"1189 286 OFFCURVE",
"1208 304 OFFCURVE",
"1208 330 CURVE SMOOTH",
"1208 356 OFFCURVE",
"1189 374 OFFCURVE",
"1164 374 CURVE SMOOTH",
"1138 374 OFFCURVE",
"1120 356 OFFCURVE",
"1120 330 CURVE SMOOTH",
"1120 304 OFFCURVE",
"1138 286 OFFCURVE",
"1164 286 CURVE SMOOTH"
);
},
{
closed = 1;
nodes = (
"1045 472 OFFCURVE",
"1063 492 OFFCURVE",
"1063 516 CURVE SMOOTH",
"1063 542 OFFCURVE",
"1045 561 OFFCURVE",
"1020 561 CURVE SMOOTH",
"994 561 OFFCURVE",
"975 542 OFFCURVE",
"975 516 CURVE SMOOTH",
"975 492 OFFCURVE",
"994 472 OFFCURVE",
"1020 472 CURVE SMOOTH"
);
},
{
closed = 1;
nodes = (
"1140 404 OFFCURVE",
"1158 423 OFFCURVE",
"1158 448 CURVE SMOOTH",
"1158 474 OFFCURVE",
"1140 493 OFFCURVE",
"1114 493 CURVE SMOOTH",
"1089 493 OFFCURVE",
"1070 474 OFFCURVE",
"1070 448 CURVE SMOOTH",
"1070 423 OFFCURVE",
"1089 404 OFFCURVE",
"1114 404 CURVE SMOOTH"
);
}
);
width = 1273;
}
);
unicode = 0DDA;
subCategory = Spacing;
}
{
glyphname = "esign-sinh";
layers = (
{
layerId = "25BA55F5-DD3E-4682-A696-ADF7D9496427";
paths = (
{
closed = 1;
nodes = (
"448 -12 OFFCURVE",
"541 69 OFFCURVE",
"541 193 CURVE",
"541 296 OFFCURVE",
"470 362 OFFCURVE",
"345 362 CURVE",
"262 361 OFFCURVE",
"195 324 OFFCURVE",
"195 242 CURVE SMOOTH",
"195 167 OFFCURVE",
"254 130 OFFCURVE",
"316 130 CURVE SMOOTH",
"388 130 OFFCURVE",
"431 173 OFFCURVE",
"431 239 CURVE SMOOTH",
"431 280 OFFCURVE",
"407 306 OFFCURVE",
"383 314 CURVE",
"378 300 LINE",
"452 300 OFFCURVE",
"481 249 OFFCURVE",
"481 194 CURVE",
"481 105 OFFCURVE",
"420 45 OFFCURVE",
"316 45 CURVE",
"190 45 OFFCURVE",
"120 127 OFFCURVE",
"120 245 CURVE SMOOTH",
"120 375 OFFCURVE",
"195 451 OFFCURVE",
"325 451 CURVE SMOOTH",
"382 451 OFFCURVE",
"438 442 OFFCURVE",
"481 430 CURVE",
"480 483 LINE",
"430 498 OFFCURVE",
"377 506 OFFCURVE",
"323 506 CURVE SMOOTH",
"153 506 OFFCURVE",
"60 398 OFFCURVE",
"60 246 CURVE SMOOTH",
"60 105 OFFCURVE",
"147 -10 OFFCURVE",
"316 -10 CURVE"
);
},
{
closed = 1;
nodes = (
"277 181 OFFCURVE",
"254 208 OFFCURVE",
"254 242 CURVE SMOOTH",
"254 275 OFFCURVE",
"277 302 OFFCURVE",
"315 302 CURVE SMOOTH",
"352 302 OFFCURVE",
"375 275 OFFCURVE",
"375 242 CURVE SMOOTH",
"375 208 OFFCURVE",
"352 181 OFFCURVE",
"315 181 CURVE SMOOTH"
);
}
);
width = 591;
},
{
layerId = "7B4D842D-CA8D-4153-9CDE-FADFBE419175";
paths = (
{
closed = 1;
nodes = (
"500 -12 OFFCURVE",
"601 66 OFFCURVE",
"601 200 CURVE",
"601 313 OFFCURVE",
"519 386 OFFCURVE",
"384 386 CURVE",
"281 385 OFFCURVE",
"206 343 OFFCURVE",
"206 251 CURVE SMOOTH",
"206 172 OFFCURVE",
"266 134 OFFCURVE",
"338 134 CURVE SMOOTH",
"422 134 OFFCURVE",
"465 182 OFFCURVE",
"465 238 CURVE SMOOTH",
"465 294 OFFCURVE",
"435 313 OFFCURVE",
"398 319 CURVE",
"393 298 LINE",
"469 298 OFFCURVE",
"497 256 OFFCURVE",
"497 201 CURVE",
"497 122 OFFCURVE",
"430 81 OFFCURVE",
"340 81 CURVE",
"224 81 OFFCURVE",
"159 156 OFFCURVE",
"159 249 CURVE SMOOTH",
"159 379 OFFCURVE",
"264 432 OFFCURVE",
"380 432 CURVE SMOOTH",
"429 432 OFFCURVE",
"479 424 OFFCURVE",
"523 409 CURVE",
"522 505 LINE",
"472 520 OFFCURVE",
"417 528 OFFCURVE",
"363 528 CURVE SMOOTH",
"197 528 OFFCURVE",
"45 444 OFFCURVE",
"45 252 CURVE SMOOTH",
"45 106 OFFCURVE",
"161 -10 OFFCURVE",
"340 -10 CURVE"
);
},
{
closed = 1;
nodes = (
"314 212 OFFCURVE",
"301 226 OFFCURVE",
"301 251 CURVE SMOOTH",
"301 275 OFFCURVE",
"314 290 OFFCURVE",
"337 290 CURVE SMOOTH",
"363 290 OFFCURVE",
"376 275 OFFCURVE",
"376 251 CURVE SMOOTH",
"376 226 OFFCURVE",
"363 212 OFFCURVE",
"337 212 CURVE SMOOTH"
);
}
);
width = 646;
}
);
unicode = 0DD9;
category = Mark;
subCategory = Spacing;
}
{
glyphname = eth;
layers = (
{
layerId = "7B4D842D-CA8D-4153-9CDE-FADFBE419175";
paths = (
{
closed = 1;
nodes = (
"441 586 OFFCURVE",
"510 418 OFFCURVE",
"510 289 CURVE SMOOTH",
"510 116 OFFCURVE",
"431 -10 OFFCURVE",
"268 -10 CURVE SMOOTH",
"116 -10 OFFCURVE",
"35 91 OFFCURVE",
"35 204 CURVE SMOOTH",
"35 323 OFFCURVE",
"114 402 OFFCURVE",
"226 402 CURVE SMOOTH",
"323 402 OFFCURVE",
"387 344 OFFCURVE",
"412 275 CURVE",
"406 176 LINE",
"372 232 OFFCURVE",
"333 279 OFFCURVE",
"266 279 CURVE SMOOTH",
"213 279 OFFCURVE",
"184 247 OFFCURVE",
"184 194 CURVE SMOOTH",
"184 151 OFFCURVE",
"215 120 OFFCURVE",
"267 120 CURVE SMOOTH",
"318 120 OFFCURVE",
"366 147 OFFCURVE",
"366 289 CURVE SMOOTH",
"366 451 OFFCURVE",
"282 574 OFFCURVE",
"128 674 CURVE",
"312 674 LINE"
);
},
{
closed = 1;
nodes = (
"157 523 LINE",
"482 682 LINE",
"482 601 LINE",
"157 442 LINE"
);
}
);
width = 557;
},
{
layerId = "25BA55F5-DD3E-4682-A696-ADF7D9496427";
paths = (
{
closed = 1;
nodes = (
"336 613 OFFCURVE",
"461 472 OFFCURVE",
"461 264 CURVE SMOOTH",
"461 76 OFFCURVE",
"372 -9 OFFCURVE",
"247 -9 CURVE SMOOTH",
"121 -9 OFFCURVE",
"39 90 OFFCURVE",
"39 202 CURVE SMOOTH",
"39 339 OFFCURVE",
"141 410 OFFCURVE",
"243 410 CURVE SMOOTH",
"316 410 OFFCURVE",
"384 372 OFFCURVE",
"420 304 CURVE",
"420 234 LINE",
"389 298 OFFCURVE",
"323 350 OFFCURVE",
"240 350 CURVE SMOOTH",
"166 350 OFFCURVE",
"103 299 OFFCURVE",
"103 202 CURVE SMOOTH",
"103 105 OFFCURVE",
"165 49 OFFCURVE",
"247 49 CURVE SMOOTH",
"329 49 OFFCURVE",
"404 112 OFFCURVE",
"404 265 CURVE SMOOTH",
"404 488 OFFCURVE",
"235 626 OFFCURVE",
"132 674 CURVE",
"240 674 LINE"
);
},
{
closed = 1;
nodes = (
"162 526 LINE",
"444 672 LINE",
"444 616 LINE",
"162 470 LINE"
);
}
);
width = 506;
}
);
unicode = 00F0;
}
{
glyphname = guillemotleft;
layers = (
{
layerId = "7B4D842D-CA8D-4153-9CDE-FADFBE419175";
paths = (
{
closed = 1;
nodes = (
"178 415 LINE",
"330 415 LINE",
"184 253 LINE",
"26 253 LINE"
);
},
{
closed = 1;
nodes = (
"330 91 LINE",
"178 91 LINE",
"26 253 LINE",
"184 253 LINE"
);
},
{
closed = 1;
nodes = (
"398 415 LINE",
"550 415 LINE",
"404 253 LINE",
"246 253 LINE"
);
},
{
closed = 1;
nodes = (
"550 91 LINE",
"398 91 LINE",
"246 253 LINE",
"404 253 LINE"
);
}
);
width = 592;
},
{
layerId = "25BA55F5-DD3E-4682-A696-ADF7D9496427";
paths = (
{
closed = 1;
nodes = (
"177 415 LINE",
"247 415 LINE",
"100 253 LINE",
"27 253 LINE"
);
},
{
closed = 1;
nodes = (
"247 91 LINE",
"177 91 LINE",
"27 253 LINE",
"100 253 LINE"
);
},
{
closed = 1;
nodes = (
"354 415 LINE",
"424 415 LINE",
"277 253 LINE",
"204 253 LINE"
);
},
{
closed = 1;
nodes = (
"424 91 LINE",
"354 91 LINE",
"204 253 LINE",
"277 253 LINE"
);
}
);
width = 450;
}
);
unicode = 00AB;
}
{
glyphname = guillemotright;
layers = (
{
layerId = "7B4D842D-CA8D-4153-9CDE-FADFBE419175";
paths = (
{
closed = 1;
nodes = (
"413 415 LINE",
"261 415 LINE",
"407 253 LINE",
"565 253 LINE"
);
},
{
closed = 1;
nodes = (
"261 91 LINE",
"413 91 LINE",
"565 253 LINE",
"407 253 LINE"
);
},
{
closed = 1;
nodes = (
"193 415 LINE",
"41 415 LINE",
"187 253 LINE",
"345 253 LINE"
);
},
{
closed = 1;
nodes = (
"41 91 LINE",
"193 91 LINE",
"345 253 LINE",
"187 253 LINE"
);
}
);
width = 591;
},
{
layerId = "25BA55F5-DD3E-4682-A696-ADF7D9496427";
paths = (
{
closed = 1;
nodes = (
"273 415 LINE",
"203 415 LINE",
"350 253 LINE",
"423 253 LINE"
);
},
{
closed = 1;
nodes = (
"203 91 LINE",
"273 91 LINE",
"423 253 LINE",
"350 253 LINE"
);
},
{
closed = 1;
nodes = (
"96 415 LINE",
"26 415 LINE",
"173 253 LINE",
"246 253 LINE"
);
},
{
closed = 1;
nodes = (
"26 91 LINE",
"96 91 LINE",
"246 253 LINE",
"173 253 LINE"
);
}
);
width = 453;
}
);
unicode = 00BB;
}
{
glyphname = "i-sinh";
layers = (
{
layerId = "25BA55F5-DD3E-4682-A696-ADF7D9496427";
paths = (
{
closed = 1;
nodes = (
"425 214 OFFCURVE",
"392 186 OFFCURVE",
"344 186 CURVE SMOOTH",
"297 186 OFFCURVE",
"263 214 OFFCURVE",
"263 267 CURVE SMOOTH",
"263 317 OFFCURVE",
"297 348 OFFCURVE",
"344 348 CURVE SMOOTH",
"392 348 OFFCURVE",
"425 317 OFFCURVE",
"425 267 CURVE SMOOTH"
);
},
{
closed = 1;
nodes = (
"184 553 OFFCURVE",
"70 474 OFFCURVE",
"70 320 CURVE SMOOTH",
"70 211 OFFCURVE",
"147 122 OFFCURVE",
"298 122 CURVE",
"396 122 OFFCURVE",
"483 168 OFFCURVE",
"483 268 CURVE SMOOTH",
"483 347 OFFCURVE",
"427 402 OFFCURVE",
"345 402 CURVE SMOOTH",
"267 402 OFFCURVE",
"205 351 OFFCURVE",
"205 269 CURVE SMOOTH",
"205 222 OFFCURVE",
"234 167 OFFCURVE",
"294 159 CURVE",
"293 166 LINE",
"196 166 OFFCURVE",
"127 218 OFFCURVE",
"127 320 CURVE SMOOTH",
"127 452 OFFCURVE",
"230 498 OFFCURVE",
"340 498 CURVE",
"499 498 OFFCURVE",
"567 403 OFFCURVE",
"567 284 CURVE SMOOTH",
"567 144 OFFCURVE",
"481 55 OFFCURVE",
"300 55 CURVE SMOOTH",
"235 55 LINE",
"235 0 LINE",
"318 0 LINE SMOOTH",
"398 0 OFFCURVE",
"462 -7 OFFCURVE",
"462 -64 CURVE SMOOTH",
"462 -116 OFFCURVE",
"423 -142 OFFCURVE",
"341 -142 CURVE SMOOTH",
"245 -142 OFFCURVE",
"196 -103 OFFCURVE",
"196 -40 CURVE",
"136 -40 LINE",
"136 -154 OFFCURVE",
"238 -197 OFFCURVE",
"340 -197 CURVE SMOOTH",
"443 -197 OFFCURVE",
"522 -153 OFFCURVE",
"522 -65 CURVE SMOOTH",
"522 -10 OFFCURVE",
"489 28 OFFCURVE",
"433 35 CURVE",
"413 20 LINE",
"560 36 OFFCURVE",
"627 169 OFFCURVE",
"627 283 CURVE SMOOTH",
"627 443 OFFCURVE",
"523 553 OFFCURVE",
"340 553 CURVE"
);
}
);
width = 707;
},
{
layerId = "7B4D842D-CA8D-4153-9CDE-FADFBE419175";
paths = (
{
closed = 1;
nodes = (
"426 261 OFFCURVE",
"406 247 OFFCURVE",
"381 247 CURVE SMOOTH",
"355 247 OFFCURVE",
"335 261 OFFCURVE",
"335 293 CURVE SMOOTH",
"335 326 OFFCURVE",
"355 339 OFFCURVE",
"381 339 CURVE SMOOTH",
"406 339 OFFCURVE",
"426 326 OFFCURVE",
"426 293 CURVE SMOOTH"
);
},
{
closed = 1;
nodes = (
"195 588 OFFCURVE",
"50 503 OFFCURVE",
"50 348 CURVE",
"50 201 OFFCURVE",
"170 137 OFFCURVE",
"321 137 CURVE",
"467 138 OFFCURVE",
"541 195 OFFCURVE",
"541 293 CURVE SMOOTH",
"541 383 OFFCURVE",
"468 431 OFFCURVE",
"380 431 CURVE SMOOTH",
"292 431 OFFCURVE",
"230 382 OFFCURVE",
"230 306 CURVE SMOOTH",
"230 252 OFFCURVE",
"262 222 OFFCURVE",
"301 216 CURVE",
"318 221 LINE",
"211 221 OFFCURVE",
"170 278 OFFCURVE",
"170 346 CURVE",
"170 450 OFFCURVE",
"265 489 OFFCURVE",
"375 489 CURVE",
"519 489 OFFCURVE",
"612 433 OFFCURVE",
"612 318 CURVE SMOOTH",
"612 192 OFFCURVE",
"529 100 OFFCURVE",
"358 100 CURVE SMOOTH",
"251 100 LINE",
"251 0 LINE",
"388 0 LINE SMOOTH",
"428 0 OFFCURVE",
"471 -5 OFFCURVE",
"471 -44 CURVE SMOOTH",
"471 -83 OFFCURVE",
"447 -111 OFFCURVE",
"385 -111 CURVE SMOOTH",
"328 -111 OFFCURVE",
"289 -93 OFFCURVE",
"289 -40 CURVE",
"159 -40 LINE",
"159 -144 OFFCURVE",
"240 -214 OFFCURVE",
"382 -214 CURVE SMOOTH",
"525 -214 OFFCURVE",
"608 -145 OFFCURVE",
"608 -47 CURVE SMOOTH",
"608 8 OFFCURVE",
"570 46 OFFCURVE",
"514 59 CURVE",
"514 23 LINE",
"644 55 OFFCURVE",
"734 171 OFFCURVE",
"734 315 CURVE SMOOTH",
"734 491 OFFCURVE",
"593 586 OFFCURVE",
"375 586 CURVE"
);
}
);
width = 787;
}
);
unicode = 0D89;
}
{
glyphname = icircumflex;
layers = (
{
components = (
{
name = circumflex;
transform = "{1, 0, 0, 1, -111, -67}";
}
);
layerId = "7B4D842D-CA8D-4153-9CDE-FADFBE419175";
paths = (
{
closed = 1;
nodes = (
"211 0 LINE",
"211 507 LINE",
"65 507 LINE",
"65 0 LINE"
);
}
);
width = 276;
},
{
components = (
{
name = circumflex;
transform = "{1, 0, 0, 1, -88, -86}";
}
);
layerId = "25BA55F5-DD3E-4682-A696-ADF7D9496427";
paths = (
{
closed = 1;
nodes = (
"141 0 LINE",
"141 507 LINE",
"80 507 LINE",
"80 0 LINE"
);
}
);
width = 221;
}
);
unicode = 00EE;
}
{
glyphname = "ii-sinh";
layers = (
{
layerId = "25BA55F5-DD3E-4682-A696-ADF7D9496427";
paths = (
{
closed = 1;
nodes = (
"341 575 OFFCURVE",
"457 678 OFFCURVE",
"507 755 CURVE",
"566 755 LINE",
"519 660 OFFCURVE",
"399 558 OFFCURVE",
"307 520 CURVE",
"250 535 LINE"
);
},
{
closed = 1;
nodes = (
"273 647 OFFCURVE",
"254 666 OFFCURVE",
"254 693 CURVE SMOOTH",
"254 719 OFFCURVE",
"273 740 OFFCURVE",
"300 740 CURVE SMOOTH",
"327 740 OFFCURVE",
"348 719 OFFCURVE",
"348 693 CURVE SMOOTH",
"348 666 OFFCURVE",
"327 647 OFFCURVE",
"300 647 CURVE SMOOTH"
);
},
{
closed = 1;
nodes = (
"540 534 OFFCURVE",
"521 553 OFFCURVE",
"521 580 CURVE SMOOTH",
"521 606 OFFCURVE",
"540 627 OFFCURVE",
"567 627 CURVE SMOOTH",
"594 627 OFFCURVE",
"615 606 OFFCURVE",
"615 580 CURVE SMOOTH",
"615 553 OFFCURVE",
"594 534 OFFCURVE",
"567 534 CURVE SMOOTH"
);
},
{
closed = 1;
nodes = (
"200 -10 OFFCURVE",
"80 95 OFFCURVE",
"80 271 CURVE SMOOTH",
"80 446 OFFCURVE",
"200 553 OFFCURVE",
"354 553 CURVE SMOOTH",
"507 553 OFFCURVE",
"623 446 OFFCURVE",
"623 271 CURVE SMOOTH",
"623 95 OFFCURVE",
"507 -10 OFFCURVE",
"354 -10 CURVE SMOOTH"
);
},
{
closed = 1;
nodes = (
"479 42 OFFCURVE",
"565 129 OFFCURVE",
"565 271 CURVE SMOOTH",
"565 412 OFFCURVE",
"479 501 OFFCURVE",
"354 501 CURVE SMOOTH",
"228 501 OFFCURVE",
"138 412 OFFCURVE",
"138 271 CURVE SMOOTH",
"138 129 OFFCURVE",
"228 42 OFFCURVE",
"354 42 CURVE SMOOTH"
);
}
);
width = 719;
},
{
layerId = "7B4D842D-CA8D-4153-9CDE-FADFBE419175";
paths = (
{
closed = 1;
nodes = (
"341 604 OFFCURVE",
"414 702 OFFCURVE",
"464 785 CURVE",
"618 785 LINE",
"581 694 OFFCURVE",
"484 591 OFFCURVE",
"398 555 CURVE",
"222 554 LINE"
);
},
{
closed = 1;
nodes = (
"193 619 OFFCURVE",
"156 656 OFFCURVE",
"156 703 CURVE SMOOTH",
"156 749 OFFCURVE",
"193 786 OFFCURVE",
"241 786 CURVE SMOOTH",
"288 786 OFFCURVE",
"325 749 OFFCURVE",
"325 703 CURVE SMOOTH",
"325 656 OFFCURVE",
"288 619 OFFCURVE",
"241 619 CURVE SMOOTH"
);
},
{
closed = 1;
nodes = (
"609 531 OFFCURVE",
"572 568 OFFCURVE",
"572 615 CURVE SMOOTH",
"572 661 OFFCURVE",
"609 698 OFFCURVE",
"657 698 CURVE SMOOTH",
"704 698 OFFCURVE",
"741 661 OFFCURVE",
"741 615 CURVE SMOOTH",
"741 568 OFFCURVE",
"704 531 OFFCURVE",
"657 531 CURVE SMOOTH"
);
},
{
closed = 1;
nodes = (
"198 -10 OFFCURVE",
"50 97 OFFCURVE",
"50 287 CURVE SMOOTH",
"50 477 OFFCURVE",
"198 585 OFFCURVE",
"378 585 CURVE SMOOTH",
"559 585 OFFCURVE",
"706 477 OFFCURVE",
"706 287 CURVE SMOOTH",
"706 97 OFFCURVE",
"559 -10 OFFCURVE",
"378 -10 CURVE SMOOTH"
);
},
{
closed = 1;
nodes = (
"485 102 OFFCURVE",
"566 167 OFFCURVE",
"566 287 CURVE SMOOTH",
"566 407 OFFCURVE",
"485 473 OFFCURVE",
"378 473 CURVE SMOOTH",
"273 473 OFFCURVE",
"190 407 OFFCURVE",
"190 287 CURVE SMOOTH",
"190 167 OFFCURVE",
"273 102 OFFCURVE",
"378 102 CURVE SMOOTH"
);
}
);
width = 774;
}
);
unicode = 0D8A;
}
{
glyphname = "isign-sinh";
layers = (
{
layerId = "25BA55F5-DD3E-4682-A696-ADF7D9496427";
paths = (
{
closed = 1;
nodes = (
"-624 598 LINE",
"-624 711 OFFCURVE",
"-510 761 OFFCURVE",
"-396 761 CURVE SMOOTH",
"-273 761 OFFCURVE",
"-157 711 OFFCURVE",
"-157 598 CURVE",
"-217 598 LINE",
"-217 672 OFFCURVE",
"-297 706 OFFCURVE",
"-396 706 CURVE SMOOTH",
"-489 706 OFFCURVE",
"-564 672 OFFCURVE",
"-564 598 CURVE"
);
}
);
width = 0;
},
{
layerId = "7B4D842D-CA8D-4153-9CDE-FADFBE419175";
paths = (
{
closed = 1;
nodes = (
"-704 619 LINE",
"-704 757 OFFCURVE",
"-595 839 OFFCURVE",
"-420 839 CURVE SMOOTH",
"-240 839 OFFCURVE",
"-127 759 OFFCURVE",
"-127 619 CURVE",
"-272 619 LINE",
"-272 693 OFFCURVE",
"-328 727 OFFCURVE",
"-420 727 CURVE SMOOTH",
"-500 727 OFFCURVE",
"-559 693 OFFCURVE",
"-559 619 CURVE"
);
}
);
width = 0;
}
);
unicode = 0DD2;
subCategory = Spacing;
}
{
glyphname = "ja-sinh";
layers = (
{
layerId = "25BA55F5-DD3E-4682-A696-ADF7D9496427";
paths = (
{
closed = 1;
nodes = (
"521 342 LINE",
"594 342 OFFCURVE",
"630 394 OFFCURVE",
"630 448 CURVE",
"630 501 OFFCURVE",
"599 555 OFFCURVE",
"533 555 CURVE SMOOTH",
"472 555 OFFCURVE",
"449 509 OFFCURVE",
"436 467 CURVE",
"457 437 LINE",
"457 474 OFFCURVE",
"480 502 OFFCURVE",
"521 502 CURVE SMOOTH",
"557 502 OFFCURVE",
"576 481 OFFCURVE",
"576 448 CURVE",
"576 414 OFFCURVE",
"550 391 OFFCURVE",
"506 391 CURVE"
);
},
{
closed = 1;
nodes = (
"236 45 OFFCURVE",
"108 94 OFFCURVE",
"108 213 CURVE",
"108 297 OFFCURVE",
"164 336 OFFCURVE",
"262 336 CURVE SMOOTH",
"344 336 LINE",
"346 349 OFFCURVE",
"347 362 OFFCURVE",
"347 386 CURVE",
"347 481 OFFCURVE",
"308 553 OFFCURVE",
"204 553 CURVE SMOOTH",
"114 553 OFFCURVE",
"74 499 OFFCURVE",
"73 434 CURVE",
"133 434 LINE",
"135 474 OFFCURVE",
"161 498 OFFCURVE",
"204 498 CURVE",
"268 498 OFFCURVE",
"283 449 OFFCURVE",
"283 390 CURVE",
"243 391 LINE",
"126 391 OFFCURVE",
"48 327 OFFCURVE",
"48 212 CURVE",
"48 62 OFFCURVE",
"204 -10 OFFCURVE",
"379 -10 CURVE",
"547 -10 OFFCURVE",
"703 59 OFFCURVE",
"703 209 CURVE",
"703 324 OFFCURVE",
"623 391 OFFCURVE",
"506 391 CURVE",
"461 390 LINE",
"458 407 OFFCURVE",
"457 418 OFFCURVE",
"457 434 CURVE SMOOTH",
"457 532 OFFCURVE",
"492 610 OFFCURVE",
"592 610 CURVE",
"592 664 LINE",
"442 664 OFFCURVE",
"396 560 OFFCURVE",
"396 440 CURVE SMOOTH",
"396 397 OFFCURVE",
"402 352 OFFCURVE",
"407 336 CURVE",
"485 336 LINE",
"583 336 OFFCURVE",
"641 294 OFFCURVE",
"641 210 CURVE",
"641 91 OFFCURVE",
"513 45 OFFCURVE",
"378 45 CURVE"
);
}
);
width = 758;
},
{
layerId = "7B4D842D-CA8D-4153-9CDE-FADFBE419175";
paths = (
{
closed = 1;
nodes = (
"609 359 LINE",
"696 359 OFFCURVE",
"742 409 OFFCURVE",
"742 472 CURVE SMOOTH",
"742 536 OFFCURVE",
"692 587 OFFCURVE",
"615 587 CURVE SMOOTH",
"561 587 OFFCURVE",
"532 545 OFFCURVE",
"520 520 CURVE",
"538 446 LINE SMOOTH",
"538 477 OFFCURVE",
"551 503 OFFCURVE",
"587 503 CURVE SMOOTH",
"613 503 OFFCURVE",
"628 487 OFFCURVE",
"628 463 CURVE SMOOTH",
"628 438 OFFCURVE",
"612 422 OFFCURVE",
"581 422 CURVE"
);
},
{
closed = 1;
nodes = (
"290 102 OFFCURVE",
"183 135 OFFCURVE",
"183 227 CURVE",
"183 302 OFFCURVE",
"244 338 OFFCURVE",
"331 338 CURVE",
"397 338 LINE",
"400 356 OFFCURVE",
"401 370 OFFCURVE",
"401 387 CURVE SMOOTH",
"401 499 OFFCURVE",
"347 586 OFFCURVE",
"223 586 CURVE SMOOTH",
"120 586 OFFCURVE",
"76 515 OFFCURVE",
"72 447 CURVE",
"182 447 LINE",
"182 471 OFFCURVE",
"201 492 OFFCURVE",
"232 492 CURVE SMOOTH",
"270 492 OFFCURVE",
"287 463 OFFCURVE",
"287 422 CURVE",
"268 422 LINE",
"143 422 OFFCURVE",
"54 341 OFFCURVE",
"54 226 CURVE",
"54 66 OFFCURVE",
"220 -10 OFFCURVE",
"425 -10 CURVE",
"630 -10 OFFCURVE",
"786 67 OFFCURVE",
"786 227 CURVE",
"786 342 OFFCURVE",
"706 422 OFFCURVE",
"581 422 CURVE",
"540 422 LINE",
"539 430 OFFCURVE",
"538 438 OFFCURVE",
"538 446 CURVE",
"538 547 OFFCURVE",
"570 631 OFFCURVE",
"687 631 CURVE",
"687 734 LINE",
"518 734 OFFCURVE",
"441 623 OFFCURVE",
"441 462 CURVE SMOOTH",
"441 425 OFFCURVE",
"450 373 OFFCURVE",
"466 338 CURVE",
"518 338 LINE",
"605 338 OFFCURVE",
"657 303 OFFCURVE",
"657 228 CURVE",
"657 136 OFFCURVE",
"553 102 OFFCURVE",
"426 102 CURVE"
);
}
);
width = 831;
}
);
unicode = 0DA2;
}
{
glyphname = kunddaliya;
layers = (
{
background = {
paths = (
{
closed = 1;
nodes = (
"311 49 LINE",
"310 58 OFFCURVE",
"306 73 OFFCURVE",
"296 115 CURVE",
"260 44 OFFCURVE",
"213 7 OFFCURVE",
"146 7 CURVE SMOOTH",
"63 7 OFFCURVE",
"20 67 OFFCURVE",
"20 148 CURVE",
"123 148 LINE",
"130 121 OFFCURVE",
"141 107 OFFCURVE",
"161 107 CURVE SMOOTH",
"217 107 OFFCURVE",
"245 182 OFFCURVE",
"279 272 CURVE",
"339 272 LINE",
"342 246 OFFCURVE",
"346 226 OFFCURVE",
"351 208 CURVE",
"371 263 OFFCURVE",
"397 324 OFFCURVE",
"427 387 CURVE",
"489 387 LINE",
"491 357 OFFCURVE",
"498 319 OFFCURVE",
"508 267 CURVE",
"542 340 OFFCURVE",
"574 399 OFFCURVE",
"603 440 CURVE",
"666 440 LINE",
"667 422 OFFCURVE",
"668 402 OFFCURVE",
"669 374 CURVE SMOOTH",
"674 287 LINE",
"715 346 OFFCURVE",
"737 374 OFFCURVE",
"770 414 CURVE",
"832 414 LINE",
"828 354 OFFCURVE",
"823 296 OFFCURVE",
"818 233 CURVE",
"852 267 OFFCURVE",
"872 288 OFFCURVE",
"897 313 CURVE",
"949 313 LINE",
"939 252 OFFCURVE",
"933 205 OFFCURVE",
"927 163 CURVE",
"949 182 OFFCURVE",
"955 190 OFFCURVE",
"974 211 CURVE",
"1021 211 LINE",
"1021 164 OFFCURVE",
"1038 100 OFFCURVE",
"1073 100 CURVE SMOOTH",
"1091 100 OFFCURVE",
"1100 112 OFFCURVE",
"1100 137 CURVE SMOOTH",
"1100 144 OFFCURVE",
"1099 150 OFFCURVE",
"1097 163 CURVE",
"1195 163 LINE",
"1199 157 OFFCURVE",
"1200 139 OFFCURVE",
"1200 119 CURVE SMOOTH",
"1200 44 OFFCURVE",
"1161 2 OFFCURVE",
"1085 2 CURVE SMOOTH",
"1014 2 OFFCURVE",
"971 34 OFFCURVE",
"956 99 CURVE",
"929 71 OFFCURVE",
"921 63 OFFCURVE",
"894 35 CURVE",
"836 35 LINE",
"845 101 OFFCURVE",
"853 128 OFFCURVE",
"860 172 CURVE",
"832 146 OFFCURVE",
"819 128 OFFCURVE",
"785 94 CURVE",
"734 94 LINE",
"737 248 LINE",
"708 207 OFFCURVE",
"681 165 OFFCURVE",
"657 129 CURVE",
"603 129 LINE",
"593 264 LINE",
"559 193 OFFCURVE",
"536 135 OFFCURVE",
"521 98 CURVE",
"458 98 LINE",
"449 148 OFFCURVE",
"440 183 OFFCURVE",
"433 211 CURVE",
"417 175 OFFCURVE",
"394 119 OFFCURVE",
"365 49 CURVE"
);
}
);
};
layerId = "25BA55F5-DD3E-4682-A696-ADF7D9496427";
paths = (
{
closed = 1;
nodes = (
"1101 1 OFFCURVE",
"1115 56 OFFCURVE",
"1115 110 CURVE SMOOTH",
"1115 125 OFFCURVE",
"1114 136 OFFCURVE",
"1111 147 CURVE",
"1072 147 LINE",
"1074 136 OFFCURVE",
"1074 130 OFFCURVE",
"1074 124 CURVE SMOOTH",
"1074 97 OFFCURVE",
"1069 50 OFFCURVE",
"1035 50 CURVE SMOOTH",
"983 50 OFFCURVE",
"978 129 OFFCURVE",
"963 191 CURVE",
"940 191 LINE",
"923 166 OFFCURVE",
"910 147 OFFCURVE",
"886 112 CURVE",
"899 178 OFFCURVE",
"908 228 OFFCURVE",
"917 283 CURVE",
"870 283 LINE",
"848 257 OFFCURVE",
"801 201 OFFCURVE",
"775 170 CURVE",
"786 226 OFFCURVE",
"800 297 OFFCURVE",
"811 375 CURVE",
"755 375 LINE",
"724 319 OFFCURVE",
"691 259 OFFCURVE",
"661 206 CURVE",
"661 399 LINE",
"604 399 LINE",
"563 297 OFFCURVE",
"529 214 OFFCURVE",
"502 148 CURVE",
"493 195 OFFCURVE",
"486 268 OFFCURVE",
"470 351 CURVE",
"430 350 LINE",
"403 271 OFFCURVE",
"372 191 OFFCURVE",
"354 141 CURVE",
"350 158 OFFCURVE",
"337 223 OFFCURVE",
"334 246 CURVE",
"300 246 LINE",
"272 173 OFFCURVE",
"254 94 OFFCURVE",
"205 94 CURVE SMOOTH",
"184 94 OFFCURVE",
"167 109 OFFCURVE",
"168 134 CURVE",
"125 134 LINE",
"125 70 OFFCURVE",
"163 44 OFFCURVE",
"200 44 CURVE SMOOTH",
"245 44 OFFCURVE",
"288 79 OFFCURVE",
"311 158 CURVE",
"317 114 OFFCURVE",
"320 89 OFFCURVE",
"329 44 CURVE",
"358 44 LINE",
"378 93 OFFCURVE",
"421 201 OFFCURVE",
"441 250 CURVE",
"448 225 OFFCURVE",
"466 134 OFFCURVE",
"474 88 CURVE",
"525 88 LINE",
"544 130 OFFCURVE",
"591 247 OFFCURVE",
"620 311 CURVE",
"620 225 OFFCURVE",
"619 178 OFFCURVE",
"619 117 CURVE",
"655 117 LINE",
"708 207 OFFCURVE",
"726 240 OFFCURVE",
"758 298 CURVE",
"748 242 OFFCURVE",
"735 160 OFFCURVE",
"722 85 CURVE",
"757 85 LINE",
"812 153 OFFCURVE",
"828 173 OFFCURVE",
"871 228 CURVE",
"864 188 OFFCURVE",
"846 91 OFFCURVE",
"835 31 CURVE",
"874 31 LINE",
"900 68 OFFCURVE",
"922 102 OFFCURVE",
"944 133 CURVE",
"960 38 OFFCURVE",
"983 1 OFFCURVE",
"1041 1 CURVE SMOOTH"
);
}
);
width = 1220;
},
{
layerId = "7B4D842D-CA8D-4153-9CDE-FADFBE419175";
paths = (
{
closed = 1;
nodes = (
"1151 2 OFFCURVE",
"1190 42 OFFCURVE",
"1190 124 CURVE SMOOTH",
"1190 137 OFFCURVE",
"1189 157 OFFCURVE",
"1185 163 CURVE",
"1087 163 LINE",
"1089 150 OFFCURVE",
"1090 144 OFFCURVE",
"1090 137 CURVE SMOOTH",
"1090 112 OFFCURVE",
"1080 100 OFFCURVE",
"1064 100 CURVE SMOOTH",
"1027 100 OFFCURVE",
"1011 165 OFFCURVE",
"1011 211 CURVE",
"964 211 LINE",
"945 190 OFFCURVE",
"939 182 OFFCURVE",
"917 163 CURVE",
"923 205 OFFCURVE",
"929 252 OFFCURVE",
"939 313 CURVE",
"887 313 LINE",
"862 288 OFFCURVE",
"842 267 OFFCURVE",
"808 233 CURVE",
"813 296 OFFCURVE",
"818 354 OFFCURVE",
"822 414 CURVE",
"760 414 LINE",
"727 374 OFFCURVE",
"705 346 OFFCURVE",
"664 287 CURVE",
"656 440 LINE",
"593 440 LINE",
"564 399 OFFCURVE",
"532 340 OFFCURVE",
"498 267 CURVE",
"488 319 OFFCURVE",
"481 357 OFFCURVE",
"479 387 CURVE",
"417 387 LINE",
"387 324 OFFCURVE",
"361 263 OFFCURVE",
"341 208 CURVE",
"336 226 OFFCURVE",
"332 246 OFFCURVE",
"329 272 CURVE",
"269 272 LINE",
"238 190 OFFCURVE",
"208 107 OFFCURVE",
"152 107 CURVE SMOOTH",
"132 107 OFFCURVE",
"121 118 OFFCURVE",
"113 148 CURVE",
"10 148 LINE",
"10 67 OFFCURVE",
"53 7 OFFCURVE",
"137 7 CURVE SMOOTH",
"203 7 OFFCURVE",
"250 44 OFFCURVE",
"286 115 CURVE",
"296 73 OFFCURVE",
"300 58 OFFCURVE",
"301 49 CURVE",
"355 49 LINE",
"384 119 OFFCURVE",
"407 175 OFFCURVE",
"423 211 CURVE",
"430 183 OFFCURVE",
"439 148 OFFCURVE",
"448 98 CURVE",
"511 98 LINE",
"526 135 OFFCURVE",
"549 193 OFFCURVE",
"583 264 CURVE",
"586 219 OFFCURVE",
"590 174 OFFCURVE",
"593 129 CURVE",
"647 129 LINE",
"671 165 OFFCURVE",
"698 207 OFFCURVE",
"727 248 CURVE",
"726 197 OFFCURVE",
"725 145 OFFCURVE",
"724 94 CURVE",
"775 94 LINE",
"809 128 OFFCURVE",
"822 146 OFFCURVE",
"850 172 CURVE",
"843 128 OFFCURVE",
"835 101 OFFCURVE",
"826 35 CURVE",
"884 35 LINE",
"905 56 OFFCURVE",
"925 78 OFFCURVE",
"946 99 CURVE",
"961 33 OFFCURVE",
"1006 2 OFFCURVE",
"1074 2 CURVE SMOOTH"
);
}
);
width = 1200;
}
);
unicode = 0DF4;
}
{
glyphname = macron;
layers = (
{
layerId = "7B4D842D-CA8D-4153-9CDE-FADFBE419175";
paths = (
{
closed = 1;
nodes = (
"428 750 LINE",
"72 750 LINE",
"72 651 LINE",
"428 651 LINE"
);
}
);
width = 500;
},
{
layerId = "25BA55F5-DD3E-4682-A696-ADF7D9496427";
paths = (
{
closed = 1;
nodes = (
"331 749 LINE",
"68 749 LINE",
"68 704 LINE",
"331 704 LINE"
);
}
);
width = 400;
}
);
unicode = 00AF;
}
{
glyphname = mu.math;
layers = (
{
layerId = "7B4D842D-CA8D-4153-9CDE-FADFBE419175";
paths = (
{
closed = 1;
nodes = (
"379 507 LINE",
"379 0 LINE",
"525 0 LINE",
"525 507 LINE"
);
},
{
closed = 1;
nodes = (
"110 431 LINE",
"110 168 LINE SMOOTH",
"110 60 OFFCURVE",
"186 -4 OFFCURVE",
"275 -4 CURVE SMOOTH",
"365 -4 OFFCURVE",
"408 82 OFFCURVE",
"396 177 CURVE",
"379 239 LINE",
"379 143 OFFCURVE",
"350 112 OFFCURVE",
"294 112 CURVE SMOOTH",
"245 112 OFFCURVE",
"206 142 OFFCURVE",
"206 201 CURVE SMOOTH",
"206 431 LINE"
);
},
{
closed = 1;
nodes = (
"60 507 LINE",
"60 -180 LINE",
"206 -180 LINE",
"206 507 LINE"
);
}
);
width = 585;
},
{
layerId = "25BA55F5-DD3E-4682-A696-ADF7D9496427";
paths = (
{
closed = 1;
nodes = (
"398 507 LINE",
"398 0 LINE",
"459 0 LINE",
"459 507 LINE"
);
},
{
closed = 1;
nodes = (
"96 467 LINE",
"96 155 LINE SMOOTH",
"96 59 OFFCURVE",
"158 -7 OFFCURVE",
"257 -7 CURVE SMOOTH",
"359 -7 OFFCURVE",
"420 57 OFFCURVE",
"417 206 CURVE",
"398 225 LINE",
"398 123 OFFCURVE",
"348 52 OFFCURVE",
"268 52 CURVE SMOOTH",
"203 52 OFFCURVE",
"137 92 OFFCURVE",
"137 172 CURVE SMOOTH",
"137 467 LINE"
);
},
{
closed = 1;
nodes = (
"76 507 LINE",
"76 -179 LINE",
"137 -179 LINE",
"137 507 LINE"
);
}
);
width = 535;
}
);
unicode = 00B5;
}
{
glyphname = "nga-sinh";
layers = (
{
layerId = "25BA55F5-DD3E-4682-A696-ADF7D9496427";
paths = (
{
closed = 1;
nodes = (
"393 467 OFFCURVE",
"332 553 OFFCURVE",
"195 553 CURVE SMOOTH",
"117 553 OFFCURVE",
"55 517 OFFCURVE",
"55 443 CURVE SMOOTH",
"55 385 OFFCURVE",
"102 349 OFFCURVE",
"155 349 CURVE SMOOTH",
"229 349 OFFCURVE",
"254 395 OFFCURVE",
"254 452 CURVE SMOOTH",
"254 471 OFFCURVE",
"248 495 OFFCURVE",
"241 516 CURVE",
"193 523 LINE",
"197 505 OFFCURVE",
"202 488 OFFCURVE",
"202 465 CURVE SMOOTH",
"202 442 OFFCURVE",
"199 401 OFFCURVE",
"156 401 CURVE SMOOTH",
"132 401 OFFCURVE",
"111 415 OFFCURVE",
"111 444 CURVE SMOOTH",
"111 487 OFFCURVE",
"143 502 OFFCURVE",
"194 502 CURVE",
"274 502 OFFCURVE",
"330 448 OFFCURVE",
"330 364 CURVE SMOOTH",
"330 348 OFFCURVE",
"329 337 OFFCURVE",
"328 330 CURVE",
"244 331 LINE",
"137 331 OFFCURVE",
"65 275 OFFCURVE",
"65 162 CURVE SMOOTH",
"65 65 OFFCURVE",
"128 -10 OFFCURVE",
"234 -10 CURVE SMOOTH",
"298 -10 OFFCURVE",
"341 19 OFFCURVE",
"361 58 CURVE",
"377 29 OFFCURVE",
"417 -10 OFFCURVE",
"479 -10 CURVE SMOOTH",
"642 -10 OFFCURVE",
"683 188 OFFCURVE",
"683 355 CURVE",
"683 565 OFFCURVE",
"600 773 OFFCURVE",
"309 773 CURVE",
"220 773 OFFCURVE",
"137 753 OFFCURVE",
"76 727 CURVE",
"76 672 LINE",
"136 697 OFFCURVE",
"220 718 OFFCURVE",
"309 718 CURVE",
"543 718 OFFCURVE",
"623 563 OFFCURVE",
"623 356 CURVE",
"623 214 OFFCURVE",
"590 45 OFFCURVE",
"483 45 CURVE SMOOTH",
"414 45 OFFCURVE",
"390 94 OFFCURVE",
"390 142 CURVE",
"390 156 LINE",
"331 156 LINE",
"331 142 LINE",
"331 94 OFFCURVE",
"301 45 OFFCURVE",
"235 45 CURVE SMOOTH",
"163 45 OFFCURVE",
"125 97 OFFCURVE",
"125 163 CURVE SMOOTH",
"125 245 OFFCURVE",
"175 276 OFFCURVE",
"283 276 CURVE",
"389 276 LINE",
"391 289 OFFCURVE",
"393 320 OFFCURVE",
"393 344 CURVE"
);
}
);
width = 763;
},
{
layerId = "7B4D842D-CA8D-4153-9CDE-FADFBE419175";
paths = (
{
closed = 1;
nodes = (
"503 464 OFFCURVE",
"453 586 OFFCURVE",
"259 586 CURVE",
"126 586 OFFCURVE",
"63 534 OFFCURVE",
"63 458 CURVE SMOOTH",
"63 390 OFFCURVE",
"119 359 OFFCURVE",
"182 359 CURVE SMOOTH",
"265 359 OFFCURVE",
"295 403 OFFCURVE",
"295 452 CURVE SMOOTH",
"295 487 OFFCURVE",
"284 513 OFFCURVE",
"278 526 CURVE",
"200 522 LINE",
"204 512 OFFCURVE",
"212 491 OFFCURVE",
"212 463 CURVE SMOOTH",
"212 446 OFFCURVE",
"204 428 OFFCURVE",
"181 428 CURVE SMOOTH",
"164 428 OFFCURVE",
"154 440 OFFCURVE",
"154 456 CURVE SMOOTH",
"154 489 OFFCURVE",
"193 503 OFFCURVE",
"261 503 CURVE",
"351 503 OFFCURVE",
"383 449 OFFCURVE",
"383 388 CURVE SMOOTH",
"383 375 OFFCURVE",
"381 362 OFFCURVE",
"379 349 CURVE",
"287 349 LINE",
"172 349 OFFCURVE",
"60 310 OFFCURVE",
"60 190 CURVE",
"60 70 OFFCURVE",
"142 -10 OFFCURVE",
"279 -10 CURVE",
"344 -10 OFFCURVE",
"406 15 OFFCURVE",
"439 78 CURVE",
"473 24 OFFCURVE",
"523 -10 OFFCURVE",
"614 -10 CURVE SMOOTH",
"799 -10 OFFCURVE",
"869 189 OFFCURVE",
"869 358 CURVE",
"869 615 OFFCURVE",
"704 806 OFFCURVE",
"393 806 CURVE",
"271 806 OFFCURVE",
"147 773 OFFCURVE",
"74 744 CURVE",
"74 622 LINE",
"141 654 OFFCURVE",
"269 694 OFFCURVE",
"393 694 CURVE",
"617 694 OFFCURVE",
"734 555 OFFCURVE",
"734 361 CURVE",
"734 217 OFFCURVE",
"693 102 OFFCURVE",
"595 102 CURVE SMOOTH",
"543 102 OFFCURVE",
"510 131 OFFCURVE",
"510 184 CURVE",
"510 200 LINE",
"369 200 LINE",
"369 184 LINE",
"369 135 OFFCURVE",
"335 102 OFFCURVE",
"284 102 CURVE",
"234 102 OFFCURVE",
"195 129 OFFCURVE",
"195 184 CURVE",
"195 242 OFFCURVE",
"241 262 OFFCURVE",
"301 262 CURVE",
"495 262 LINE",
"500 289 OFFCURVE",
"503 320 OFFCURVE",
"503 352 CURVE SMOOTH"
);
}
);
width = 919;
}
);
unicode = 0D9E;
}
{
glyphname = "nndda-sinh";
layers = (
{
layerId = "25BA55F5-DD3E-4682-A696-ADF7D9496427";
paths = (
{
closed = 1;
nodes = (
"538 -10 OFFCURVE",
"580 22 OFFCURVE",
"600 61 CURVE",
"614 24 OFFCURVE",
"656 -10 OFFCURVE",
"723 -10 CURVE SMOOTH",
"886 -10 OFFCURVE",
"922 152 OFFCURVE",
"922 339 CURVE",
"922 546 OFFCURVE",
"837 773 OFFCURVE",
"546 773 CURVE",
"457 773 OFFCURVE",
"376 750 OFFCURVE",
"315 713 CURVE",
"315 658 LINE",
"375 694 OFFCURVE",
"457 718 OFFCURVE",
"546 718 CURVE",
"780 718 OFFCURVE",
"862 544 OFFCURVE",
"862 340 CURVE",
"862 178 OFFCURVE",
"834 45 OFFCURVE",
"727 45 CURVE SMOOTH",
"650 45 OFFCURVE",
"629 94 OFFCURVE",
"629 142 CURVE",
"629 176 LINE",
"570 176 LINE",
"570 142 LINE",
"570 94 OFFCURVE",
"549 45 OFFCURVE",
"475 45 CURVE SMOOTH",
"410 45 OFFCURVE",
"356 90 OFFCURVE",
"356 176 CURVE",
"356 272 OFFCURVE",
"412 326 OFFCURVE",
"479 326 CURVE",
"365 326 LINE",
"327 305 OFFCURVE",
"296 247 OFFCURVE",
"296 175 CURVE",
"296 58 OFFCURVE",
"375 -10 OFFCURVE",
"474 -10 CURVE SMOOTH"
);
},
{
closed = 1;
nodes = (
"356 424 LINE",
"359 471 OFFCURVE",
"390 498 OFFCURVE",
"443 498 CURVE",
"527 498 OFFCURVE",
"547 439 OFFCURVE",
"547 380 CURVE",
"261 380 LINE",
"261 325 LINE",
"609 326 LINE",
"611 340 OFFCURVE",
"611 353 OFFCURVE",
"611 367 CURVE",
"611 462 OFFCURVE",
"568 553 OFFCURVE",
"442 553 CURVE SMOOTH",
"350 553 OFFCURVE",
"296 499 OFFCURVE",
"296 424 CURVE"
);
},
{
closed = 1;
nodes = (
"202 0 LINE",
"158 81 OFFCURVE",
"125 182 OFFCURVE",
"125 281 CURVE SMOOTH",
"125 420 OFFCURVE",
"166 503 OFFCURVE",
"241 503 CURVE SMOOTH",
"269 503 OFFCURVE",
"296 488 OFFCURVE",
"311 470 CURVE",
"356 493 LINE",
"336 525 OFFCURVE",
"292 553 OFFCURVE",
"240 553 CURVE SMOOTH",
"125 553 OFFCURVE",
"65 443 OFFCURVE",
"65 284 CURVE",
"65 171 OFFCURVE",
"97 66 OFFCURVE",
"135 0 CURVE"
);
}
);
width = 997;
},
{
layerId = "7B4D842D-CA8D-4153-9CDE-FADFBE419175";
paths = (
{
closed = 1;
nodes = (
"631 -10 OFFCURVE",
"692 15 OFFCURVE",
"725 78 CURVE",
"759 24 OFFCURVE",
"809 -10 OFFCURVE",
"900 -10 CURVE SMOOTH",
"1085 -10 OFFCURVE",
"1127 189 OFFCURVE",
"1127 358 CURVE",
"1127 615 OFFCURVE",
"984 806 OFFCURVE",
"673 806 CURVE",
"551 806 OFFCURVE",
"433 773 OFFCURVE",
"360 744 CURVE",
"360 622 LINE",
"427 654 OFFCURVE",
"549 694 OFFCURVE",
"673 694 CURVE",
"897 694 OFFCURVE",
"992 555 OFFCURVE",
"992 361 CURVE",
"992 217 OFFCURVE",
"979 102 OFFCURVE",
"881 102 CURVE SMOOTH",
"829 102 OFFCURVE",
"796 131 OFFCURVE",
"796 184 CURVE",
"796 230 LINE",
"655 230 LINE",
"655 184 LINE",
"655 135 OFFCURVE",
"623 102 OFFCURVE",
"564 102 CURVE",
"495 102 OFFCURVE",
"456 142 OFFCURVE",
"456 210 CURVE",
"456 275 OFFCURVE",
"497 329 OFFCURVE",
"576 329 CURVE",
"385 329 LINE",
"339 305 OFFCURVE",
"318 247 OFFCURVE",
"318 190 CURVE",
"318 70 OFFCURVE",
"414 -10 OFFCURVE",
"557 -10 CURVE"
);
},
{
closed = 1;
nodes = (
"439 453 LINE",
"439 477 OFFCURVE",
"464 492 OFFCURVE",
"493 492 CURVE SMOOTH",
"544 492 OFFCURVE",
"561 463 OFFCURVE",
"561 422 CURVE",
"290 424 LINE",
"290 329 LINE",
"671 329 LINE",
"674 347 OFFCURVE",
"675 370 OFFCURVE",
"675 387 CURVE SMOOTH",
"675 499 OFFCURVE",
"629 586 OFFCURVE",
"492 586 CURVE SMOOTH",
"385 586 OFFCURVE",
"333 517 OFFCURVE",
"329 453 CURVE"
);
},
{
closed = 1;
nodes = (
"272 0 LINE",
"228 91 OFFCURVE",
"192 192 OFFCURVE",
"192 291 CURVE SMOOTH",
"192 395 OFFCURVE",
"221 483 OFFCURVE",
"295 483 CURVE SMOOTH",
"321 483 OFFCURVE",
"338 475 OFFCURVE",
"353 463 CURVE",
"418 531 LINE",
"392 563 OFFCURVE",
"348 586 OFFCURVE",
"290 586 CURVE SMOOTH",
"127 586 OFFCURVE",
"65 453 OFFCURVE",
"65 294 CURVE",
"65 181 OFFCURVE",
"97 76 OFFCURVE",
"135 0 CURVE"
);
}
);
width = 1192;
}
);
unicode = 0DAC;
}
{
glyphname = "nnga-sinh";
layers = (
{
layerId = "25BA55F5-DD3E-4682-A696-ADF7D9496427";
paths = (
{
closed = 1;
nodes = (
"202 0 LINE",
"158 81 OFFCURVE",
"125 182 OFFCURVE",
"125 281 CURVE",
"125 420 OFFCURVE",
"175 493 OFFCURVE",
"271 493 CURVE",
"369 493 LINE",
"387 543 LINE",
"270 543 LINE",
"134 543 OFFCURVE",
"65 443 OFFCURVE",
"65 284 CURVE",
"65 171 OFFCURVE",
"97 66 OFFCURVE",
"135 0 CURVE"
);
},
{
closed = 1;
nodes = (
"563 553 OFFCURVE",
"488 447 OFFCURVE",
"488 276 CURVE SMOOTH",
"488 253 OFFCURVE",
"492 226 OFFCURVE",
"494 216 CURVE",
"546 216 LINE",
"543 231 OFFCURVE",
"541 250 OFFCURVE",
"541 277 CURVE SMOOTH",
"541 383 OFFCURVE",
"579 498 OFFCURVE",
"715 498 CURVE",
"843 498 OFFCURVE",
"888 405 OFFCURVE",
"888 277 CURVE SMOOTH",
"888 175 OFFCURVE",
"853 71 OFFCURVE",
"805 0 CURVE",
"871 0 LINE",
"911 52 OFFCURVE",
"950 163 OFFCURVE",
"950 277 CURVE SMOOTH",
"950 421 OFFCURVE",
"890 553 OFFCURVE",
"716 553 CURVE"
);
},
{
closed = 1;
nodes = (
"408 543 LINE",
"369 543 LINE",
"321 488 OFFCURVE",
"275 384 OFFCURVE",
"275 276 CURVE SMOOTH",
"275 122 OFFCURVE",
"360 -10 OFFCURVE",
"533 -10 CURVE",
"661 -10 OFFCURVE",
"741 72 OFFCURVE",
"741 197 CURVE SMOOTH",
"741 262 OFFCURVE",
"701 332 OFFCURVE",
"629 332 CURVE SMOOTH",
"577 332 OFFCURVE",
"526 303 OFFCURVE",
"526 217 CURVE",
"562 216 LINE",
"562 250 OFFCURVE",
"581 277 OFFCURVE",
"617 277 CURVE SMOOTH",
"660 277 OFFCURVE",
"681 243 OFFCURVE",
"681 196 CURVE SMOOTH",
"681 116 OFFCURVE",
"637 45 OFFCURVE",
"534 45 CURVE",
"407 45 OFFCURVE",
"337 138 OFFCURVE",
"337 276 CURVE SMOOTH",
"337 353 OFFCURVE",
"359 433 OFFCURVE",
"408 506 CURVE"
);
}
);
width = 1015;
},
{
layerId = "7B4D842D-CA8D-4153-9CDE-FADFBE419175";
paths = (
{
closed = 1;
nodes = (
"272 0 LINE",
"218 91 OFFCURVE",
"182 192 OFFCURVE",
"182 291 CURVE",
"182 395 OFFCURVE",
"215 471 OFFCURVE",
"301 471 CURVE",
"368 471 LINE",
"438 576 LINE",
"300 576 LINE",
"127 576 OFFCURVE",
"55 453 OFFCURVE",
"55 294 CURVE",
"55 181 OFFCURVE",
"90 76 OFFCURVE",
"133 0 CURVE"
);
},
{
closed = 1;
nodes = (
"613 586 OFFCURVE",
"514 446 OFFCURVE",
"514 282 CURVE SMOOTH",
"514 263 OFFCURVE",
"515 242 OFFCURVE",
"518 221 CURVE",
"649 218 LINE",
"646 243 OFFCURVE",
"644 269 OFFCURVE",
"644 291 CURVE SMOOTH",
"644 395 OFFCURVE",
"694 474 OFFCURVE",
"798 474 CURVE",
"914 474 OFFCURVE",
"964 389 OFFCURVE",
"964 263 CURVE SMOOTH",
"964 177 OFFCURVE",
"929 77 OFFCURVE",
"866 0 CURVE",
"1013 0 LINE",
"1078 81 OFFCURVE",
"1103 184 OFFCURVE",
"1103 263 CURVE SMOOTH",
"1103 434 OFFCURVE",
"1017 586 OFFCURVE",
"799 586 CURVE"
);
},
{
closed = 1;
nodes = (
"465 576 LINE",
"377 576 LINE",
"310 493 OFFCURVE",
"280 394 OFFCURVE",
"280 303 CURVE SMOOTH",
"280 120 OFFCURVE",
"402 -10 OFFCURVE",
"596 -10 CURVE",
"764 -10 OFFCURVE",
"859 90 OFFCURVE",
"859 213 CURVE",
"859 295 OFFCURVE",
"814 370 OFFCURVE",
"732 370 CURVE SMOOTH",
"644 370 OFFCURVE",
"618 303 OFFCURVE",
"618 219 CURVE",
"649 218 LINE",
"649 246 OFFCURVE",
"663 264 OFFCURVE",
"688 264 CURVE SMOOTH",
"714 264 OFFCURVE",
"727 244 OFFCURVE",
"727 210 CURVE",
"727 149 OFFCURVE",
"683 102 OFFCURVE",
"596 102 CURVE",
"487 102 OFFCURVE",
"419 175 OFFCURVE",
"419 303 CURVE SMOOTH",
"419 362 OFFCURVE",
"435 426 OFFCURVE",
"465 486 CURVE"
);
}
);
width = 1158;
}
);
unicode = 0D9F;
}
{
glyphname = onequarter;
layers = (
{
layerId = "7B4D842D-CA8D-4153-9CDE-FADFBE419175";
paths = (
{
closed = 1;
nodes = (
"667 0 LINE",
"769 0 LINE",
"769 430 LINE",
"667 430 LINE"
);
},
{
closed = 1;
nodes = (
"473 86 LINE",
"821 86 LINE",
"821 171 LINE",
"473 171 LINE"
);
},
{
closed = 1;
nodes = (
"473 171 LINE",
"578 171 LINE",
"705 430 LINE",
"606 430 LINE"
);
},
{
closed = 1;
nodes = (
"126 599 LINE",
"126 278 LINE",
"229 278 LINE",
"229 711 LINE",
"144 711 LINE",
"10 635 LINE",
"10 537 LINE"
);
},
{
closed = 1;
nodes = (
"232 0 LINE",
"660 711 LINE",
"552 711 LINE",
"123 0 LINE"
);
}
);
width = 829;
},
{
layerId = "25BA55F5-DD3E-4682-A696-ADF7D9496427";
paths = (
{
closed = 1;
nodes = (
"663 0 LINE",
"713 0 LINE",
"713 429 LINE",
"663 429 LINE"
);
},
{
closed = 1;
nodes = (
"465 102 LINE",
"778 102 LINE",
"778 144 LINE",
"465 144 LINE"
);
},
{
closed = 1;
nodes = (
"465 144 LINE",
"518 144 LINE",
"689 429 LINE",
"638 429 LINE"
);
},
{
closed = 1;
nodes = (
"184 648 LINE",
"184 282 LINE",
"236 282 LINE",
"236 711 LINE",
"193 711 LINE",
"80 647 LINE",
"80 590 LINE"
);
},
{
closed = 1;
nodes = (
"211 0 LINE",
"668 712 LINE",
"606 712 LINE",
"150 0 LINE"
);
}
);
width = 833;
}
);
unicode = 00BC;
}
{
glyphname = onesuperior;
layers = (
{
layerId = "7B4D842D-CA8D-4153-9CDE-FADFBE419175";
paths = (
{
closed = 1;
nodes = (
"126 713 LINE",
"126 392 LINE",
"229 392 LINE",
"229 825 LINE",
"144 825 LINE",
"10 749 LINE",
"10 651 LINE"
);
}
);
width = 279;
},
{
layerId = "25BA55F5-DD3E-4682-A696-ADF7D9496427";
paths = (
{
closed = 1;
nodes = (
"114 758 LINE",
"114 392 LINE",
"166 392 LINE",
"166 821 LINE",
"123 821 LINE",
"10 757 LINE",
"10 700 LINE"
);
}
);
width = 242;
}
);
unicode = 00B9;
}
{
glyphname = "oosign-sinh";
layers = (
{
components = (
{
name = "esign-sinh";
},
{
name = "aasign-sinh";
transform = "{1, 0, 0, 1, 1230, 0}";
}
);
layerId = "25BA55F5-DD3E-4682-A696-ADF7D9496427";
paths = (
{
closed = 1;
nodes = (
"1408 492 LINE",
"1408 720 LINE",
"1408 745 OFFCURVE",
"1406 772 OFFCURVE",
"1394 794 CURVE",
"1382 763 LINE",
"1394 775 OFFCURVE",
"1421 788 OFFCURVE",
"1444 788 CURVE SMOOTH",
"1486 788 OFFCURVE",
"1504 763 OFFCURVE",
"1504 731 CURVE SMOOTH",
"1504 656 OFFCURVE",
"1433 646 OFFCURVE",
"1367 646 CURVE",
"1382 587 LINE SMOOTH",
"1484 587 OFFCURVE",
"1564 637 OFFCURVE",
"1564 727 CURVE SMOOTH",
"1564 792 OFFCURVE",
"1523 845 OFFCURVE",
"1448 845 CURVE SMOOTH",
"1409 845 OFFCURVE",
"1380 826 OFFCURVE",
"1362 802 CURVE",
"1391 802 LINE",
"1385 819 OFFCURVE",
"1379 831 OFFCURVE",
"1369 842 CURVE",
"1308 842 LINE",
"1342 798 OFFCURVE",
"1348 755 OFFCURVE",
"1348 700 CURVE SMOOTH",
"1348 492 LINE"
);
},
{
closed = 1;
nodes = (
"746 81 OFFCURVE",
"765 99 OFFCURVE",
"765 125 CURVE SMOOTH",
"765 150 OFFCURVE",
"746 169 OFFCURVE",
"721 169 CURVE SMOOTH",
"695 169 OFFCURVE",
"677 150 OFFCURVE",
"677 125 CURVE SMOOTH",
"677 99 OFFCURVE",
"695 81 OFFCURVE",
"721 81 CURVE SMOOTH"
);
},
{
closed = 1;
nodes = (
"848 4 OFFCURVE",
"867 24 OFFCURVE",
"867 50 CURVE SMOOTH",
"867 74 OFFCURVE",
"848 94 OFFCURVE",
"823 94 CURVE SMOOTH",
"797 94 OFFCURVE",
"778 74 OFFCURVE",
"778 50 CURVE SMOOTH",
"778 24 OFFCURVE",
"797 4 OFFCURVE",
"823 4 CURVE SMOOTH"
);
},
{
closed = 1;
nodes = (
"695 198 OFFCURVE",
"713 216 OFFCURVE",
"713 241 CURVE SMOOTH",
"713 267 OFFCURVE",
"695 286 OFFCURVE",
"669 286 CURVE SMOOTH",
"644 286 OFFCURVE",
"625 267 OFFCURVE",
"625 241 CURVE SMOOTH",
"625 216 OFFCURVE",
"644 198 OFFCURVE",
"669 198 CURVE SMOOTH"
);
},
{
closed = 1;
nodes = (
"975 -10 OFFCURVE",
"994 8 OFFCURVE",
"994 34 CURVE SMOOTH",
"994 60 OFFCURVE",
"975 78 OFFCURVE",
"949 78 CURVE SMOOTH",
"923 78 OFFCURVE",
"905 60 OFFCURVE",
"905 34 CURVE SMOOTH",
"905 8 OFFCURVE",
"923 -10 OFFCURVE",
"949 -10 CURVE SMOOTH"
);
},
{
closed = 1;
nodes = (
"708 323 OFFCURVE",
"728 342 OFFCURVE",
"728 367 CURVE SMOOTH",
"728 392 OFFCURVE",
"708 411 OFFCURVE",
"684 411 CURVE SMOOTH",
"658 411 OFFCURVE",
"638 392 OFFCURVE",
"638 367 CURVE SMOOTH",
"638 342 OFFCURVE",
"658 323 OFFCURVE",
"684 323 CURVE SMOOTH"
);
},
{
closed = 1;
nodes = (
"1095 43 OFFCURVE",
"1115 61 OFFCURVE",
"1115 87 CURVE SMOOTH",
"1115 112 OFFCURVE",
"1095 131 OFFCURVE",
"1070 131 CURVE SMOOTH",
"1045 131 OFFCURVE",
"1026 112 OFFCURVE",
"1026 87 CURVE SMOOTH",
"1026 61 OFFCURVE",
"1045 43 OFFCURVE",
"1070 43 CURVE SMOOTH"
);
},
{
closed = 1;
nodes = (
"790 432 OFFCURVE",
"808 451 OFFCURVE",
"808 477 CURVE SMOOTH",
"808 502 OFFCURVE",
"790 521 OFFCURVE",
"764 521 CURVE SMOOTH",
"738 521 OFFCURVE",
"720 502 OFFCURVE",
"720 477 CURVE SMOOTH",
"720 451 OFFCURVE",
"738 432 OFFCURVE",
"764 432 CURVE SMOOTH"
);
},
{
closed = 1;
nodes = (
"1168 141 OFFCURVE",
"1187 160 OFFCURVE",
"1187 185 CURVE SMOOTH",
"1187 211 OFFCURVE",
"1168 230 OFFCURVE",
"1144 230 CURVE SMOOTH",
"1118 230 OFFCURVE",
"1099 211 OFFCURVE",
"1099 185 CURVE SMOOTH",
"1099 160 OFFCURVE",
"1118 141 OFFCURVE",
"1144 141 CURVE SMOOTH"
);
},
{
closed = 1;
nodes = (
"908 476 OFFCURVE",
"926 494 OFFCURVE",
"926 520 CURVE SMOOTH",
"926 546 OFFCURVE",
"908 564 OFFCURVE",
"882 564 CURVE SMOOTH",
"856 564 OFFCURVE",
"838 546 OFFCURVE",
"838 520 CURVE SMOOTH",
"838 494 OFFCURVE",
"856 476 OFFCURVE",
"882 476 CURVE SMOOTH"
);
},
{
closed = 1;
nodes = (
"1178 275 OFFCURVE",
"1197 293 OFFCURVE",
"1197 319 CURVE SMOOTH",
"1197 345 OFFCURVE",
"1178 363 OFFCURVE",
"1153 363 CURVE SMOOTH",
"1127 363 OFFCURVE",
"1109 345 OFFCURVE",
"1109 319 CURVE SMOOTH",
"1109 293 OFFCURVE",
"1127 275 OFFCURVE",
"1153 275 CURVE SMOOTH"
);
},
{
closed = 1;
nodes = (
"1034 461 OFFCURVE",
"1052 481 OFFCURVE",
"1052 505 CURVE SMOOTH",
"1052 531 OFFCURVE",
"1034 550 OFFCURVE",
"1009 550 CURVE SMOOTH",
"983 550 OFFCURVE",
"964 531 OFFCURVE",
"964 505 CURVE SMOOTH",
"964 481 OFFCURVE",
"983 461 OFFCURVE",
"1009 461 CURVE SMOOTH"
);
},
{
closed = 1;
nodes = (
"1129 393 OFFCURVE",
"1147 412 OFFCURVE",
"1147 437 CURVE SMOOTH",
"1147 463 OFFCURVE",
"1129 482 OFFCURVE",
"1103 482 CURVE SMOOTH",
"1078 482 OFFCURVE",
"1059 463 OFFCURVE",
"1059 437 CURVE SMOOTH",
"1059 412 OFFCURVE",
"1078 393 OFFCURVE",
"1103 393 CURVE SMOOTH"
);
}
);
width = 1631;
},
{
components = (
{
name = "esign-sinh";
},
{
name = "aasign-sinh";
transform = "{1, 0, 0, 1, 1210, 0}";
}
);
layerId = "7B4D842D-CA8D-4153-9CDE-FADFBE419175";
paths = (
{
closed = 1;
nodes = (
"1422 501 LINE",
"1422 689 LINE",
"1422 724 OFFCURVE",
"1420 747 OFFCURVE",
"1412 776 CURVE",
"1396 741 LINE",
"1408 753 OFFCURVE",
"1425 767 OFFCURVE",
"1448 767 CURVE SMOOTH",
"1467 767 OFFCURVE",
"1480 755 OFFCURVE",
"1480 736 CURVE SMOOTH",
"1480 691 OFFCURVE",
"1424 675 OFFCURVE",
"1358 675 CURVE",
"1391 590 LINE",
"1493 590 OFFCURVE",
"1573 646 OFFCURVE",
"1573 736 CURVE SMOOTH",
"1573 801 OFFCURVE",
"1533 855 OFFCURVE",
"1458 855 CURVE SMOOTH",
"1403 855 OFFCURVE",
"1369 815 OFFCURVE",
"1356 780 CURVE",
"1394 797 LINE",
"1380 828 OFFCURVE",
"1375 835 OFFCURVE",
"1361 851 CURVE",
"1260 851 LINE",
"1297 807 OFFCURVE",
"1319 764 OFFCURVE",
"1319 709 CURVE SMOOTH",
"1319 501 LINE"
);
},
{
closed = 1;
nodes = (
"746 81 OFFCURVE",
"765 99 OFFCURVE",
"765 125 CURVE SMOOTH",
"765 150 OFFCURVE",
"746 169 OFFCURVE",
"721 169 CURVE SMOOTH",
"695 169 OFFCURVE",
"677 150 OFFCURVE",
"677 125 CURVE SMOOTH",
"677 99 OFFCURVE",
"695 81 OFFCURVE",
"721 81 CURVE SMOOTH"
);
},
{
closed = 1;
nodes = (
"848 4 OFFCURVE",
"867 24 OFFCURVE",
"867 50 CURVE SMOOTH",
"867 74 OFFCURVE",
"848 94 OFFCURVE",
"823 94 CURVE SMOOTH",
"797 94 OFFCURVE",
"778 74 OFFCURVE",
"778 50 CURVE SMOOTH",
"778 24 OFFCURVE",
"797 4 OFFCURVE",
"823 4 CURVE SMOOTH"
);
},
{
closed = 1;
nodes = (
"695 198 OFFCURVE",
"713 216 OFFCURVE",
"713 241 CURVE SMOOTH",
"713 267 OFFCURVE",
"695 286 OFFCURVE",
"669 286 CURVE SMOOTH",
"644 286 OFFCURVE",
"625 267 OFFCURVE",
"625 241 CURVE SMOOTH",
"625 216 OFFCURVE",
"644 198 OFFCURVE",
"669 198 CURVE SMOOTH"
);
},
{
closed = 1;
nodes = (
"975 -10 OFFCURVE",
"994 8 OFFCURVE",
"994 34 CURVE SMOOTH",
"994 60 OFFCURVE",
"975 78 OFFCURVE",
"949 78 CURVE SMOOTH",
"923 78 OFFCURVE",
"905 60 OFFCURVE",
"905 34 CURVE SMOOTH",
"905 8 OFFCURVE",
"923 -10 OFFCURVE",
"949 -10 CURVE SMOOTH"
);
},
{
closed = 1;
nodes = (
"708 323 OFFCURVE",
"728 342 OFFCURVE",
"728 367 CURVE SMOOTH",
"728 392 OFFCURVE",
"708 411 OFFCURVE",
"684 411 CURVE SMOOTH",
"658 411 OFFCURVE",
"638 392 OFFCURVE",
"638 367 CURVE SMOOTH",
"638 342 OFFCURVE",
"658 323 OFFCURVE",
"684 323 CURVE SMOOTH"
);
},
{
closed = 1;
nodes = (
"1095 43 OFFCURVE",
"1115 61 OFFCURVE",
"1115 87 CURVE SMOOTH",
"1115 112 OFFCURVE",
"1095 131 OFFCURVE",
"1070 131 CURVE SMOOTH",
"1045 131 OFFCURVE",
"1026 112 OFFCURVE",
"1026 87 CURVE SMOOTH",
"1026 61 OFFCURVE",
"1045 43 OFFCURVE",
"1070 43 CURVE SMOOTH"
);
},
{
closed = 1;
nodes = (
"790 432 OFFCURVE",
"808 451 OFFCURVE",
"808 477 CURVE SMOOTH",
"808 502 OFFCURVE",
"790 521 OFFCURVE",
"764 521 CURVE SMOOTH",
"738 521 OFFCURVE",
"720 502 OFFCURVE",
"720 477 CURVE SMOOTH",
"720 451 OFFCURVE",
"738 432 OFFCURVE",
"764 432 CURVE SMOOTH"
);
},
{
closed = 1;
nodes = (
"1168 141 OFFCURVE",
"1187 160 OFFCURVE",
"1187 185 CURVE SMOOTH",
"1187 211 OFFCURVE",
"1168 230 OFFCURVE",
"1144 230 CURVE SMOOTH",
"1118 230 OFFCURVE",
"1099 211 OFFCURVE",
"1099 185 CURVE SMOOTH",
"1099 160 OFFCURVE",
"1118 141 OFFCURVE",
"1144 141 CURVE SMOOTH"
);
},
{
closed = 1;
nodes = (
"908 476 OFFCURVE",
"926 494 OFFCURVE",
"926 520 CURVE SMOOTH",
"926 546 OFFCURVE",
"908 564 OFFCURVE",
"882 564 CURVE SMOOTH",
"856 564 OFFCURVE",
"838 546 OFFCURVE",
"838 520 CURVE SMOOTH",
"838 494 OFFCURVE",
"856 476 OFFCURVE",
"882 476 CURVE SMOOTH"
);
},
{
closed = 1;
nodes = (
"1178 275 OFFCURVE",
"1197 293 OFFCURVE",
"1197 319 CURVE SMOOTH",
"1197 345 OFFCURVE",
"1178 363 OFFCURVE",
"1153 363 CURVE SMOOTH",
"1127 363 OFFCURVE",
"1109 345 OFFCURVE",
"1109 319 CURVE SMOOTH",
"1109 293 OFFCURVE",
"1127 275 OFFCURVE",
"1153 275 CURVE SMOOTH"
);
},
{
closed = 1;
nodes = (
"1034 461 OFFCURVE",
"1052 481 OFFCURVE",
"1052 505 CURVE SMOOTH",
"1052 531 OFFCURVE",
"1034 550 OFFCURVE",
"1009 550 CURVE SMOOTH",
"983 550 OFFCURVE",
"964 531 OFFCURVE",
"964 505 CURVE SMOOTH",
"964 481 OFFCURVE",
"983 461 OFFCURVE",
"1009 461 CURVE SMOOTH"
);
},
{
closed = 1;
nodes = (
"1129 393 OFFCURVE",
"1147 412 OFFCURVE",
"1147 437 CURVE SMOOTH",
"1147 463 OFFCURVE",
"1129 482 OFFCURVE",
"1103 482 CURVE SMOOTH",
"1078 482 OFFCURVE",
"1059 463 OFFCURVE",
"1059 437 CURVE SMOOTH",
"1059 412 OFFCURVE",
"1078 393 OFFCURVE",
"1103 393 CURVE SMOOTH"
);
}
);
width = 1631;
}
);
unicode = 0DDD;
subCategory = Spacing;
}
{
glyphname = ordfeminine;
layers = (
{
layerId = "7B4D842D-CA8D-4153-9CDE-FADFBE419175";
paths = (
{
closed = 1;
nodes = (
"244 500 OFFCURVE",
"223 476 OFFCURVE",
"189 476 CURVE SMOOTH",
"154 476 OFFCURVE",
"138 492 OFFCURVE",
"138 519 CURVE SMOOTH",
"138 547 OFFCURVE",
"161 568 OFFCURVE",
"203 568 CURVE SMOOTH",
"272 568 LINE",
"272 645 LINE",
"189 645 LINE SMOOTH",
"67 645 OFFCURVE",
"10 592 OFFCURVE",
"10 514 CURVE SMOOTH",
"10 444 OFFCURVE",
"56 389 OFFCURVE",
"142 389 CURVE SMOOTH",
"205 389 OFFCURVE",
"237 416 OFFCURVE",
"250 444 CURVE",
"250 392 LINE",
"370 392 LINE",
"370 668 LINE SMOOTH",
"370 778 OFFCURVE",
"311 828 OFFCURVE",
"189 828 CURVE SMOOTH",
"123 828 OFFCURVE",
"68 814 OFFCURVE",
"42 800 CURVE",
"42 689 LINE",
"75 710 OFFCURVE",
"122 727 OFFCURVE",
"171 727 CURVE SMOOTH",
"226 727 OFFCURVE",
"244 706 OFFCURVE",
"244 673 CURVE SMOOTH",
"244 536 LINE SMOOTH"
);
}
);
width = 400;
},
{
layerId = "25BA55F5-DD3E-4682-A696-ADF7D9496427";
paths = (
{
closed = 1;
nodes = (
"256 481 OFFCURVE",
"210 437 OFFCURVE",
"145 437 CURVE SMOOTH",
"84 437 OFFCURVE",
"53 469 OFFCURVE",
"53 513 CURVE SMOOTH",
"53 567 OFFCURVE",
"100 593 OFFCURVE",
"187 593 CURVE SMOOTH",
"267 593 LINE",
"267 643 LINE",
"175 643 LINE SMOOTH",
"71 643 OFFCURVE",
"0 596 OFFCURVE",
"0 512 CURVE SMOOTH",
"0 434 OFFCURVE",
"56 388 OFFCURVE",
"134 388 CURVE SMOOTH",
"184 388 OFFCURVE",
"228 412 OFFCURVE",
"256 446 CURVE",
"256 392 LINE",
"307 392 LINE",
"307 661 LINE SMOOTH",
"307 764 OFFCURVE",
"264 825 OFFCURVE",
"151 825 CURVE SMOOTH",
"109 825 OFFCURVE",
"60 812 OFFCURVE",
"31 794 CURVE",
"31 741 LINE",
"63 763 OFFCURVE",
"111 777 OFFCURVE",
"150 777 CURVE SMOOTH",
"231 777 OFFCURVE",
"256 733 OFFCURVE",
"256 661 CURVE SMOOTH",
"256 527 LINE SMOOTH"
);
}
);
width = 337;
}
);
unicode = 00AA;
}
{
glyphname = ordmasculine;
layers = (
{
layerId = "7B4D842D-CA8D-4153-9CDE-FADFBE419175";
paths = (
{
closed = 1;
nodes = (
"358 386 OFFCURVE",
"432 484 OFFCURVE",
"432 610 CURVE SMOOTH",
"432 733 OFFCURVE",
"361 830 OFFCURVE",
"222 830 CURVE SMOOTH",
"90 830 OFFCURVE",
"10 733 OFFCURVE",
"10 602 CURVE SMOOTH",
"10 482 OFFCURVE",
"81 386 OFFCURVE",
"222 386 CURVE SMOOTH"
);
},
{
closed = 1;
nodes = (
"283 733 OFFCURVE",
"303 675 OFFCURVE",
"303 605 CURVE SMOOTH",
"303 537 OFFCURVE",
"280 482 OFFCURVE",
"223 482 CURVE SMOOTH",
"164 482 OFFCURVE",
"139 538 OFFCURVE",
"139 607 CURVE SMOOTH",
"139 677 OFFCURVE",
"163 733 OFFCURVE",
"220 733 CURVE SMOOTH"
);
}
);
width = 442;
},
{
layerId = "25BA55F5-DD3E-4682-A696-ADF7D9496427";
paths = (
{
closed = 1;
nodes = (
"301 386 OFFCURVE",
"368 483 OFFCURVE",
"368 606 CURVE SMOOTH",
"368 727 OFFCURVE",
"305 827 OFFCURVE",
"177 827 CURVE SMOOTH",
"63 827 OFFCURVE",
"-10 727 OFFCURVE",
"-10 606 CURVE SMOOTH",
"-10 483 OFFCURVE",
"58 386 OFFCURVE",
"177 386 CURVE SMOOTH"
);
},
{
closed = 1;
nodes = (
"279 779 OFFCURVE",
"314 695 OFFCURVE",
"314 606 CURVE SMOOTH",
"314 514 OFFCURVE",
"270 434 OFFCURVE",
"177 434 CURVE SMOOTH",
"94 434 OFFCURVE",
"43 514 OFFCURVE",
"43 606 CURVE SMOOTH",
"43 695 OFFCURVE",
"89 779 OFFCURVE",
"177 779 CURVE SMOOTH"
);
}
);
width = 358;
}
);
unicode = 00BA;
}
{
glyphname = "pa-sinh";
layers = (
{
layerId = "25BA55F5-DD3E-4682-A696-ADF7D9496427";
paths = (
{
closed = 1;
nodes = (
"558 -10 OFFCURVE",
"701 56 OFFCURVE",
"701 210 CURVE",
"701 325 OFFCURVE",
"630 391 OFFCURVE",
"513 391 CURVE",
"463 390 LINE",
"463 449 OFFCURVE",
"485 498 OFFCURVE",
"549 498 CURVE",
"598 498 OFFCURVE",
"619 466 OFFCURVE",
"619 425 CURVE",
"679 425 LINE",
"679 499 OFFCURVE",
"633 553 OFFCURVE",
"545 553 CURVE SMOOTH",
"445 553 OFFCURVE",
"399 481 OFFCURVE",
"399 386 CURVE",
"399 362 OFFCURVE",
"400 349 OFFCURVE",
"402 336 CURVE",
"494 336 LINE",
"592 336 OFFCURVE",
"641 295 OFFCURVE",
"641 211 CURVE",
"641 88 OFFCURVE",
"525 45 OFFCURVE",
"377 45 CURVE",
"242 45 OFFCURVE",
"115 82 OFFCURVE",
"115 208 CURVE",
"115 292 OFFCURVE",
"175 336 OFFCURVE",
"273 336 CURVE",
"353 336 LINE",
"355 349 OFFCURVE",
"356 362 OFFCURVE",
"356 386 CURVE",
"356 481 OFFCURVE",
"312 553 OFFCURVE",
"206 553 CURVE SMOOTH",
"119 553 OFFCURVE",
"76 499 OFFCURVE",
"76 434 CURVE",
"136 434 LINE",
"139 476 OFFCURVE",
"164 498 OFFCURVE",
"207 498 CURVE",
"271 498 OFFCURVE",
"292 449 OFFCURVE",
"292 390 CURVE",
"252 391 LINE",
"135 391 OFFCURVE",
"55 322 OFFCURVE",
"55 207 CURVE",
"55 50 OFFCURVE",
"209 -10 OFFCURVE",
"377 -10 CURVE"
);
}
);
width = 758;
},
{
layerId = "7B4D842D-CA8D-4153-9CDE-FADFBE419175";
paths = (
{
closed = 1;
nodes = (
"620 -10 OFFCURVE",
"777 70 OFFCURVE",
"777 234 CURVE",
"777 349 OFFCURVE",
"690 422 OFFCURVE",
"571 422 CURVE",
"547 422 LINE",
"547 463 OFFCURVE",
"567 492 OFFCURVE",
"603 492 CURVE SMOOTH",
"634 492 OFFCURVE",
"652 472 OFFCURVE",
"652 448 CURVE",
"762 448 LINE",
"758 524 OFFCURVE",
"704 586 OFFCURVE",
"601 586 CURVE SMOOTH",
"484 586 OFFCURVE",
"433 499 OFFCURVE",
"433 387 CURVE SMOOTH",
"433 370 OFFCURVE",
"434 356 OFFCURVE",
"437 338 CURVE",
"508 338 LINE",
"589 338 OFFCURVE",
"648 310 OFFCURVE",
"648 235 CURVE",
"648 134 OFFCURVE",
"541 102 OFFCURVE",
"414 102 CURVE",
"287 102 OFFCURVE",
"184 140 OFFCURVE",
"184 232 CURVE",
"184 307 OFFCURVE",
"243 338 OFFCURVE",
"324 338 CURVE",
"395 338 LINE",
"398 356 OFFCURVE",
"399 370 OFFCURVE",
"399 387 CURVE SMOOTH",
"399 499 OFFCURVE",
"346 586 OFFCURVE",
"227 586 CURVE SMOOTH",
"124 586 OFFCURVE",
"71 520 OFFCURVE",
"70 448 CURVE",
"180 448 LINE",
"180 472 OFFCURVE",
"199 492 OFFCURVE",
"230 492 CURVE SMOOTH",
"267 492 OFFCURVE",
"285 463 OFFCURVE",
"285 422 CURVE",
"261 422 LINE",
"142 422 OFFCURVE",
"55 346 OFFCURVE",
"55 231 CURVE",
"55 71 OFFCURVE",
"203 -10 OFFCURVE",
"415 -10 CURVE"
);
}
);
width = 832;
}
);
unicode = 0DB4;
}
{
glyphname = questiondown;
layers = (
{
layerId = "7B4D842D-CA8D-4153-9CDE-FADFBE419175";
paths = (
{
closed = 1;
nodes = (
"387 -34 OFFCURVE",
"343 -50 OFFCURVE",
"298 -50 CURVE SMOOTH",
"240 -50 OFFCURVE",
"213 -17 OFFCURVE",
"213 29 CURVE SMOOTH",
"213 89 OFFCURVE",
"255 123 OFFCURVE",
"367 123 CURVE",
"364 274 LINE",
"231 274 LINE",
"228 192 LINE",
"178 191 OFFCURVE",
"65 139 OFFCURVE",
"65 11 CURVE SMOOTH",
"65 -103 OFFCURVE",
"152 -172 OFFCURVE",
"275 -172 CURVE SMOOTH",
"337 -172 OFFCURVE",
"387 -163 OFFCURVE",
"428 -144 CURVE",
"428 -7 LINE"
);
},
{
closed = 1;
nodes = (
"390 478 OFFCURVE",
"350 518 OFFCURVE",
"299 518 CURVE SMOOTH",
"248 518 OFFCURVE",
"208 478 OFFCURVE",
"208 427 CURVE SMOOTH",
"208 376 OFFCURVE",
"248 336 OFFCURVE",
"299 336 CURVE SMOOTH",
"350 336 OFFCURVE",
"390 376 OFFCURVE",
"390 427 CURVE SMOOTH"
);
}
);
width = 458;
},
{
layerId = "25BA55F5-DD3E-4682-A696-ADF7D9496427";
paths = (
{
closed = 1;
nodes = (
"352 -101 OFFCURVE",
"300 -115 OFFCURVE",
"248 -115 CURVE SMOOTH",
"148 -115 OFFCURVE",
"104 -60 OFFCURVE",
"104 9 CURVE SMOOTH",
"104 102 OFFCURVE",
"186 143 OFFCURVE",
"306 143 CURVE",
"306 313 LINE",
"245 313 LINE",
"245 197 LINE",
"142 187 OFFCURVE",
"40 132 OFFCURVE",
"40 10 CURVE SMOOTH",
"40 -108 OFFCURVE",
"123 -173 OFFCURVE",
"249 -173 CURVE SMOOTH",
"313 -173 OFFCURVE",
"377 -151 OFFCURVE",
"410 -129 CURVE",
"410 -64 LINE"
);
},
{
closed = 1;
nodes = (
"327 496 OFFCURVE",
"306 517 OFFCURVE",
"277 517 CURVE SMOOTH",
"248 517 OFFCURVE",
"225 496 OFFCURVE",
"225 467 CURVE SMOOTH",
"225 439 OFFCURVE",
"248 416 OFFCURVE",
"277 416 CURVE SMOOTH",
"306 416 OFFCURVE",
"327 439 OFFCURVE",
"327 467 CURVE SMOOTH"
);
}
);
width = 450;
}
);
unicode = 00BF;
}
{
glyphname = registered;
layers = (
{
layerId = "7B4D842D-CA8D-4153-9CDE-FADFBE419175";
paths = (
{
closed = 1;
nodes = (
"291 440 LINE",
"357 440 LINE",
"281 561 LINE",
"220 561 LINE"
);
},
{
closed = 1;
nodes = (
"278 586 OFFCURVE",
"269 571 OFFCURVE",
"250 571 CURVE",
"174 571 LINE",
"174 526 LINE",
"247 526 LINE",
"305 526 OFFCURVE",
"335 555 OFFCURVE",
"335 602 CURVE SMOOTH",
"335 648 OFFCURVE",
"308 677 OFFCURVE",
"244 677 CURVE",
"174 677 LINE",
"174 632 LINE",
"246 632 LINE",
"267 632 OFFCURVE",
"278 624 OFFCURVE",
"278 602 CURVE SMOOTH"
);
},
{
closed = 1;
nodes = (
"228 440 LINE",
"228 677 LINE",
"174 677 LINE",
"174 440 LINE"
);
},
{
closed = 1;
nodes = (
"10 414 OFFCURVE",
"109 317 OFFCURVE",
"246 317 CURVE SMOOTH",
"382 317 OFFCURVE",
"482 414 OFFCURVE",
"482 551 CURVE SMOOTH",
"482 688 OFFCURVE",
"382 786 OFFCURVE",
"246 786 CURVE SMOOTH",
"109 786 OFFCURVE",
"10 688 OFFCURVE",
"10 551 CURVE SMOOTH"
);
},
{
closed = 1;
nodes = (
"72 656 OFFCURVE",
"140 728 OFFCURVE",
"247 728 CURVE SMOOTH",
"353 728 OFFCURVE",
"421 656 OFFCURVE",
"421 551 CURVE SMOOTH",
"421 446 OFFCURVE",
"353 376 OFFCURVE",
"247 376 CURVE SMOOTH",
"140 376 OFFCURVE",
"72 446 OFFCURVE",
"72 551 CURVE SMOOTH"
);
}
);
width = 492;
},
{
layerId = "25BA55F5-DD3E-4682-A696-ADF7D9496427";
paths = (
{
closed = 1;
nodes = (
"262 482 LINE",
"310 482 LINE",
"246 584 LINE",
"201 584 LINE"
);
},
{
closed = 1;
nodes = (
"252 603 OFFCURVE",
"243 591 OFFCURVE",
"222 591 CURVE SMOOTH",
"155 591 LINE",
"155 558 LINE",
"217 558 LINE SMOOTH",
"267 558 OFFCURVE",
"293 584 OFFCURVE",
"293 624 CURVE SMOOTH",
"293 665 OFFCURVE",
"269 690 OFFCURVE",
"214 690 CURVE SMOOTH",
"155 690 LINE",
"155 656 LINE",
"219 656 LINE SMOOTH",
"240 656 OFFCURVE",
"252 648 OFFCURVE",
"252 624 CURVE SMOOTH"
);
},
{
closed = 1;
nodes = (
"196 482 LINE",
"196 690 LINE",
"155 690 LINE",
"155 482 LINE"
);
},
{
closed = 1;
nodes = (
"10 458 OFFCURVE",
"98 371 OFFCURVE",
"219 371 CURVE SMOOTH",
"340 371 OFFCURVE",
"428 458 OFFCURVE",
"428 579 CURVE SMOOTH",
"428 700 OFFCURVE",
"340 788 OFFCURVE",
"219 788 CURVE SMOOTH",
"98 788 OFFCURVE",
"10 700 OFFCURVE",
"10 579 CURVE SMOOTH"
);
},
{
closed = 1;
nodes = (
"55 677 OFFCURVE",
"120 745 OFFCURVE",
"220 745 CURVE SMOOTH",
"319 745 OFFCURVE",
"385 677 OFFCURVE",
"385 579 CURVE SMOOTH",
"385 481 OFFCURVE",
"319 414 OFFCURVE",
"220 414 CURVE SMOOTH",
"120 414 OFFCURVE",
"55 481 OFFCURVE",
"55 579 CURVE SMOOTH"
);
}
);
width = 438;
}
);
unicode = 00AE;
}
{
glyphname = "sa-sinh";
layers = (
{
layerId = "25BA55F5-DD3E-4682-A696-ADF7D9496427";
paths = (
{
closed = 1;
nodes = (
"116 335 LINE",
"80 316 OFFCURVE",
"41 258 OFFCURVE",
"41 181 CURVE SMOOTH",
"41 70 OFFCURVE",
"113 -10 OFFCURVE",
"240 -10 CURVE",
"311 -10 OFFCURVE",
"364 27 OFFCURVE",
"383 64 CURVE",
"398 30 OFFCURVE",
"443 -10 OFFCURVE",
"520 -10 CURVE",
"632 -10 OFFCURVE",
"710 76 OFFCURVE",
"710 196 CURVE",
"710 311 OFFCURVE",
"630 391 OFFCURVE",
"513 391 CURVE",
"472 390 LINE",
"472 449 OFFCURVE",
"494 498 OFFCURVE",
"558 498 CURVE",
"607 498 OFFCURVE",
"633 470 OFFCURVE",
"633 425 CURVE",
"693 425 LINE",
"693 499 OFFCURVE",
"646 553 OFFCURVE",
"554 553 CURVE SMOOTH",
"448 553 OFFCURVE",
"408 481 OFFCURVE",
"408 386 CURVE",
"408 362 OFFCURVE",
"409 349 OFFCURVE",
"411 336 CURVE",
"494 336 LINE",
"602 336 OFFCURVE",
"650 281 OFFCURVE",
"650 197 CURVE",
"650 108 OFFCURVE",
"603 45 OFFCURVE",
"524 45 CURVE",
"448 45 OFFCURVE",
"412 91 OFFCURVE",
"412 149 CURVE",
"412 176 LINE",
"353 176 LINE",
"353 149 LINE",
"353 90 OFFCURVE",
"318 45 OFFCURVE",
"241 45 CURVE",
"155 45 OFFCURVE",
"101 95 OFFCURVE",
"101 182 CURVE SMOOTH",
"101 265 OFFCURVE",
"151 335 OFFCURVE",
"238 335 CURVE"
);
},
{
closed = 1;
nodes = (
"121 424 LINE",
"121 466 OFFCURVE",
"150 498 OFFCURVE",
"198 498 CURVE",
"269 498 OFFCURVE",
"286 448 OFFCURVE",
"286 389 CURVE",
"20 389 LINE",
"20 334 LINE",
"348 335 LINE",
"350 349 OFFCURVE",
"350 362 OFFCURVE",
"350 376 CURVE SMOOTH",
"350 471 OFFCURVE",
"310 553 OFFCURVE",
"197 553 CURVE SMOOTH",
"108 553 OFFCURVE",
"60 492 OFFCURVE",
"60 424 CURVE"
);
}
);
width = 754;
},
{
layerId = "7B4D842D-CA8D-4153-9CDE-FADFBE419175";
paths = (
{
closed = 1;
nodes = (
"125 329 LINE",
"78 307 OFFCURVE",
"51 242 OFFCURVE",
"51 190 CURVE",
"51 60 OFFCURVE",
"141 -10 OFFCURVE",
"269 -10 CURVE",
"343 -10 OFFCURVE",
"411 18 OFFCURVE",
"437 78 CURVE",
"465 24 OFFCURVE",
"523 -10 OFFCURVE",
"598 -10 CURVE",
"735 -10 OFFCURVE",
"811 97 OFFCURVE",
"811 217 CURVE",
"811 342 OFFCURVE",
"730 422 OFFCURVE",
"605 422 CURVE",
"569 422 LINE",
"569 463 OFFCURVE",
"588 492 OFFCURVE",
"629 492 CURVE SMOOTH",
"662 492 OFFCURVE",
"687 476 OFFCURVE",
"687 438 CURVE",
"796 438 LINE",
"796 516 OFFCURVE",
"743 586 OFFCURVE",
"630 586 CURVE SMOOTH",
"503 586 OFFCURVE",
"442 499 OFFCURVE",
"442 387 CURVE SMOOTH",
"442 370 OFFCURVE",
"443 356 OFFCURVE",
"446 338 CURVE",
"542 338 LINE",
"627 338 OFFCURVE",
"676 303 OFFCURVE",
"676 218 CURVE",
"676 140 OFFCURVE",
"640 102 OFFCURVE",
"590 102 CURVE",
"545 102 OFFCURVE",
"508 131 OFFCURVE",
"508 184 CURVE",
"508 230 LINE",
"367 230 LINE",
"367 184 LINE",
"367 131 OFFCURVE",
"331 102 OFFCURVE",
"286 102 CURVE",
"236 102 OFFCURVE",
"189 132 OFFCURVE",
"189 210 CURVE",
"189 285 OFFCURVE",
"240 329 OFFCURVE",
"325 329 CURVE"
);
},
{
closed = 1;
nodes = (
"179 453 LINE",
"179 477 OFFCURVE",
"199 492 OFFCURVE",
"228 492 CURVE SMOOTH",
"269 492 OFFCURVE",
"291 463 OFFCURVE",
"291 422 CURVE",
"20 424 LINE",
"20 329 LINE",
"401 329 LINE",
"404 347 OFFCURVE",
"405 370 OFFCURVE",
"405 387 CURVE SMOOTH",
"405 499 OFFCURVE",
"349 586 OFFCURVE",
"222 586 CURVE SMOOTH",
"124 586 OFFCURVE",
"71 524 OFFCURVE",
"69 453 CURVE"
);
}
);
width = 838;
}
);
unicode = 0DC3;
}
{
glyphname = section;
layers = (
{
layerId = "7B4D842D-CA8D-4153-9CDE-FADFBE419175";
paths = (
{
closed = 1;
nodes = (
"503 87 OFFCURVE",
"531 145 OFFCURVE",
"531 197 CURVE SMOOTH",
"531 299 OFFCURVE",
"476 345 OFFCURVE",
"395 388 CURVE SMOOTH",
"282 448 OFFCURVE",
"234 462 OFFCURVE",
"234 500 CURVE SMOOTH",
"234 527 OFFCURVE",
"256 549 OFFCURVE",
"311 549 CURVE SMOOTH",
"368 549 OFFCURVE",
"429 530 OFFCURVE",
"479 501 CURVE",
"479 645 LINE",
"425 670 OFFCURVE",
"361 680 OFFCURVE",
"305 680 CURVE SMOOTH",
"157 680 OFFCURVE",
"73 606 OFFCURVE",
"73 499 CURVE SMOOTH",
"73 407 OFFCURVE",
"148 364 OFFCURVE",
"228 322 CURVE SMOOTH",
"324 272 OFFCURVE",
"383 257 OFFCURVE",
"383 200 CURVE SMOOTH",
"383 182 OFFCURVE",
"376 162 OFFCURVE",
"353 140 CURVE",
"468 62 LINE"
);
},
{
closed = 1;
nodes = (
"79 386 OFFCURVE",
"57 343 OFFCURVE",
"57 294 CURVE SMOOTH",
"57 207 OFFCURVE",
"99 146 OFFCURVE",
"178 111 CURVE SMOOTH",
"345 38 OFFCURVE",
"362 26 OFFCURVE",
"362 -8 CURVE SMOOTH",
"362 -39 OFFCURVE",
"333 -56 OFFCURVE",
"280 -56 CURVE SMOOTH",
"217 -56 OFFCURVE",
"152 -38 OFFCURVE",
"86 10 CURVE",
"86 -145 LINE",
"136 -173 OFFCURVE",
"210 -187 OFFCURVE",
"280 -187 CURVE SMOOTH",
"428 -187 OFFCURVE",
"520 -119 OFFCURVE",
"520 -8 CURVE SMOOTH",
"520 102 OFFCURVE",
"407 156 OFFCURVE",
"324 192 CURVE SMOOTH",
"238 229 OFFCURVE",
"205 252 OFFCURVE",
"205 291 CURVE SMOOTH",
"205 305 OFFCURVE",
"212 330 OFFCURVE",
"232 350 CURVE",
"110 419 LINE"
);
}
);
width = 599;
},
{
layerId = "25BA55F5-DD3E-4682-A696-ADF7D9496427";
paths = (
{
closed = 1;
nodes = (
"413 93 OFFCURVE",
"439 140 OFFCURVE",
"439 204 CURVE SMOOTH",
"439 318 OFFCURVE",
"346 358 OFFCURVE",
"260 395 CURVE SMOOTH",
"184 428 OFFCURVE",
"114 438 OFFCURVE",
"114 514 CURVE SMOOTH",
"114 583 OFFCURVE",
"171 619 OFFCURVE",
"261 619 CURVE SMOOTH",
"311 619 OFFCURVE",
"369 602 OFFCURVE",
"400 581 CURVE",
"400 650 LINE",
"361 671 OFFCURVE",
"307 680 OFFCURVE",
"260 680 CURVE SMOOTH",
"150 680 OFFCURVE",
"50 629 OFFCURVE",
"50 510 CURVE SMOOTH",
"50 391 OFFCURVE",
"165 371 OFFCURVE",
"259 329 CURVE SMOOTH",
"322 301 OFFCURVE",
"378 269 OFFCURVE",
"378 204 CURVE SMOOTH",
"378 160 OFFCURVE",
"360 126 OFFCURVE",
"329 106 CURVE",
"371 63 LINE"
);
},
{
closed = 1;
nodes = (
"69 392 OFFCURVE",
"50 352 OFFCURVE",
"50 300 CURVE SMOOTH",
"50 174 OFFCURVE",
"165 139 OFFCURVE",
"259 97 CURVE SMOOTH",
"322 69 OFFCURVE",
"376 38 OFFCURVE",
"376 -27 CURVE SMOOTH",
"376 -106 OFFCURVE",
"319 -147 OFFCURVE",
"226 -147 CURVE SMOOTH",
"159 -147 OFFCURVE",
"91 -124 OFFCURVE",
"52 -94 CURVE",
"52 -163 LINE",
"100 -192 OFFCURVE",
"166 -207 OFFCURVE",
"229 -207 CURVE SMOOTH",
"345 -207 OFFCURVE",
"439 -148 OFFCURVE",
"439 -26 CURVE SMOOTH",
"439 88 OFFCURVE",
"346 126 OFFCURVE",
"260 163 CURVE SMOOTH",
"184 196 OFFCURVE",
"112 226 OFFCURVE",
"112 302 CURVE SMOOTH",
"112 336 OFFCURVE",
"126 367 OFFCURVE",
"151 387 CURVE",
"99 422 LINE"
);
}
);
width = 489;
}
);
unicode = 00A7;
}
{
glyphname = "sha-sinh";
layers = (
{
layerId = "25BA55F5-DD3E-4682-A696-ADF7D9496427";
paths = (
{
closed = 1;
nodes = (
"393 553 OFFCURVE",
"288 447 OFFCURVE",
"288 276 CURVE SMOOTH",
"288 253 OFFCURVE",
"292 226 OFFCURVE",
"294 216 CURVE",
"346 216 LINE",
"343 231 OFFCURVE",
"341 250 OFFCURVE",
"341 277 CURVE SMOOTH",
"341 383 OFFCURVE",
"409 498 OFFCURVE",
"555 498 CURVE",
"693 498 OFFCURVE",
"761 413 OFFCURVE",
"761 277 CURVE SMOOTH",
"761 175 OFFCURVE",
"729 71 OFFCURVE",
"681 0 CURVE",
"744 0 LINE",
"781 52 OFFCURVE",
"823 163 OFFCURVE",
"823 277 CURVE SMOOTH",
"823 429 OFFCURVE",
"740 553 OFFCURVE",
"556 553 CURVE"
);
},
{
closed = 1;
nodes = (
"169 543 LINE",
"121 488 OFFCURVE",
"75 384 OFFCURVE",
"75 276 CURVE SMOOTH",
"75 122 OFFCURVE",
"160 -10 OFFCURVE",
"333 -10 CURVE",
"461 -10 OFFCURVE",
"541 72 OFFCURVE",
"541 197 CURVE SMOOTH",
"541 262 OFFCURVE",
"501 332 OFFCURVE",
"429 332 CURVE SMOOTH",
"377 332 OFFCURVE",
"326 303 OFFCURVE",
"326 217 CURVE",
"362 216 LINE",
"362 250 OFFCURVE",
"381 277 OFFCURVE",
"417 277 CURVE SMOOTH",
"460 277 OFFCURVE",
"481 243 OFFCURVE",
"481 196 CURVE SMOOTH",
"481 116 OFFCURVE",
"437 45 OFFCURVE",
"334 45 CURVE",
"207 45 OFFCURVE",
"137 138 OFFCURVE",
"137 276 CURVE SMOOTH",
"137 367 OFFCURVE",
"168 461 OFFCURVE",
"236 543 CURVE"
);
},
{
closed = 1;
nodes = (
"777 235 LINE",
"764 255 OFFCURVE",
"735 274 OFFCURVE",
"696 274 CURVE SMOOTH",
"639 274 OFFCURVE",
"582 237 OFFCURVE",
"582 164 CURVE SMOOTH",
"582 71 OFFCURVE",
"678 60 OFFCURVE",
"678 0 CURVE",
"705 0 LINE",
"712 16 OFFCURVE",
"715 25 OFFCURVE",
"715 36 CURVE SMOOTH",
"715 86 OFFCURVE",
"642 98 OFFCURVE",
"642 164 CURVE SMOOTH",
"642 199 OFFCURVE",
"668 219 OFFCURVE",
"702 219 CURVE SMOOTH",
"728 219 OFFCURVE",
"750 210 OFFCURVE",
"765 195 CURVE"
);
}
);
width = 898;
},
{
layerId = "7B4D842D-CA8D-4153-9CDE-FADFBE419175";
paths = (
{
closed = 1;
nodes = (
"400 576 OFFCURVE",
"284 446 OFFCURVE",
"284 282 CURVE SMOOTH",
"284 263 OFFCURVE",
"285 242 OFFCURVE",
"288 221 CURVE",
"419 218 LINE",
"416 243 OFFCURVE",
"414 268 OFFCURVE",
"414 290 CURVE SMOOTH",
"414 394 OFFCURVE",
"486 464 OFFCURVE",
"616 464 CURVE",
"755 464 OFFCURVE",
"838 384 OFFCURVE",
"838 252 CURVE SMOOTH",
"838 177 OFFCURVE",
"820 65 OFFCURVE",
"777 0 CURVE",
"904 0 LINE",
"934 61 OFFCURVE",
"956 160 OFFCURVE",
"956 243 CURVE SMOOTH",
"956 414 OFFCURVE",
"849 576 OFFCURVE",
"617 576 CURVE"
);
},
{
closed = 1;
nodes = (
"147 576 LINE",
"80 493 OFFCURVE",
"50 394 OFFCURVE",
"50 303 CURVE SMOOTH",
"50 120 OFFCURVE",
"172 -10 OFFCURVE",
"366 -10 CURVE",
"534 -10 OFFCURVE",
"619 90 OFFCURVE",
"619 213 CURVE",
"619 295 OFFCURVE",
"572 370 OFFCURVE",
"492 370 CURVE SMOOTH",
"414 370 OFFCURVE",
"388 303 OFFCURVE",
"388 219 CURVE",
"419 218 LINE",
"419 246 OFFCURVE",
"433 264 OFFCURVE",
"458 264 CURVE SMOOTH",
"484 264 OFFCURVE",
"497 244 OFFCURVE",
"497 210 CURVE",
"497 149 OFFCURVE",
"453 102 OFFCURVE",
"366 102 CURVE",
"257 102 OFFCURVE",
"189 175 OFFCURVE",
"189 303 CURVE SMOOTH",
"189 393 OFFCURVE",
"226 494 OFFCURVE",
"294 576 CURVE"
);
},
{
closed = 1;
nodes = (
"874 234 LINE",
"859 265 OFFCURVE",
"827 289 OFFCURVE",
"778 289 CURVE SMOOTH",
"706 289 OFFCURVE",
"647 238 OFFCURVE",
"647 165 CURVE SMOOTH",
"647 57 OFFCURVE",
"775 33 OFFCURVE",
"775 0 CURVE",
"827 0 LINE",
"834 16 OFFCURVE",
"837 33 OFFCURVE",
"837 44 CURVE SMOOTH",
"837 94 OFFCURVE",
"764 110 OFFCURVE",
"764 154 CURVE SMOOTH",
"764 179 OFFCURVE",
"782 191 OFFCURVE",
"806 191 CURVE SMOOTH",
"829 191 OFFCURVE",
"857 175 OFFCURVE",
"866 155 CURVE"
);
}
);
width = 1011;
}
);
unicode = 0DC1;
}
{
glyphname = snA;
layers = (
{
layerId = "25BA55F5-DD3E-4682-A696-ADF7D9496427";
paths = (
{
closed = 1;
nodes = (
"455 -156 LINE",
"455 309 LINE",
"437 287 LINE",
"466 268 OFFCURVE",
"501 259 OFFCURVE",
"537 259 CURVE SMOOTH",
"605 259 OFFCURVE",
"645 292 OFFCURVE",
"645 362 CURVE SMOOTH",
"645 398 OFFCURVE",
"626 426 OFFCURVE",
"626 457 CURVE SMOOTH",
"626 480 OFFCURVE",
"640 496 OFFCURVE",
"670 496 CURVE",
"670 551 LINE",
"600 551 LINE SMOOTH",
"492 551 OFFCURVE",
"433 506 OFFCURVE",
"422 438 CURVE",
"435 437 LINE",
"425 497 OFFCURVE",
"372 553 OFFCURVE",
"274 553 CURVE SMOOTH",
"174 553 OFFCURVE",
"118 486 OFFCURVE",
"118 411 CURVE",
"178 411 LINE",
"181 458 OFFCURVE",
"206 498 OFFCURVE",
"277 498 CURVE SMOOTH",
"359 498 OFFCURVE",
"396 452 OFFCURVE",
"396 373 CURVE SMOOTH",
"396 335 LINE",
"410 355 LINE",
"380 372 OFFCURVE",
"321 384 OFFCURVE",
"268 384 CURVE SMOOTH",
"148 384 OFFCURVE",
"45 322 OFFCURVE",
"45 190 CURVE SMOOTH",
"45 39 OFFCURVE",
"179 -12 OFFCURVE",
"313 -12 CURVE SMOOTH",
"409 -12 OFFCURVE",
"527 7 OFFCURVE",
"595 34 CURVE",
"595 91 LINE",
"522 63 OFFCURVE",
"400 43 OFFCURVE",
"314 43 CURVE SMOOTH",
"205 43 OFFCURVE",
"105 77 OFFCURVE",
"105 187 CURVE SMOOTH",
"105 281 OFFCURVE",
"170 329 OFFCURVE",
"273 329 CURVE SMOOTH",
"326 329 OFFCURVE",
"374 318 OFFCURVE",
"408 303 CURVE",
"396 317 LINE",
"397 -156 LINE"
);
},
{
closed = 1;
nodes = (
"501 313 OFFCURVE",
"448 329 OFFCURVE",
"434 346 CURVE",
"455 317 LINE",
"455 378 LINE SMOOTH",
"455 456 OFFCURVE",
"514 494 OFFCURVE",
"592 494 CURVE",
"579 485 OFFCURVE",
"568 471 OFFCURVE",
"568 449 CURVE SMOOTH",
"568 416 OFFCURVE",
"587 397 OFFCURVE",
"587 363 CURVE SMOOTH",
"587 328 OFFCURVE",
"569 313 OFFCURVE",
"530 313 CURVE SMOOTH"
);
}
);
width = 700;
},
{
layerId = "7B4D842D-CA8D-4153-9CDE-FADFBE419175";
paths = (
{
closed = 1;
nodes = (
"522 -156 LINE",
"522 268 LINE",
"493 241 LINE",
"529 222 OFFCURVE",
"562 214 OFFCURVE",
"595 214 CURVE SMOOTH",
"670 214 OFFCURVE",
"724 262 OFFCURVE",
"724 341 CURVE SMOOTH",
"724 387 OFFCURVE",
"705 417 OFFCURVE",
"705 447 CURVE SMOOTH",
"705 471 OFFCURVE",
"721 480 OFFCURVE",
"751 480 CURVE",
"750 584 LINE",
"687 584 LINE SMOOTH",
"573 584 OFFCURVE",
"481 556 OFFCURVE",
"447 471 CURVE",
"467 458 LINE",
"447 527 OFFCURVE",
"384 587 OFFCURVE",
"273 586 CURVE SMOOTH",
"156 585 OFFCURVE",
"86 525 OFFCURVE",
"84 418 CURVE",
"214 418 LINE",
"218 455 OFFCURVE",
"241 473 OFFCURVE",
"283 473 CURVE SMOOTH",
"353 473 OFFCURVE",
"382 424 OFFCURVE",
"382 350 CURVE SMOOTH",
"382 324 LINE",
"413 376 LINE",
"376 394 OFFCURVE",
"334 402 OFFCURVE",
"279 402 CURVE SMOOTH",
"137 402 OFFCURVE",
"30 323 OFFCURVE",
"30 198 CURVE SMOOTH",
"30 60 OFFCURVE",
"150 -12 OFFCURVE",
"316 -12 CURVE SMOOTH",
"440 -12 OFFCURVE",
"557 10 OFFCURVE",
"645 37 CURVE",
"645 149 LINE",
"548 115 OFFCURVE",
"433 97 OFFCURVE",
"321 97 CURVE SMOOTH",
"238 97 OFFCURVE",
"165 126 OFFCURVE",
"165 195 CURVE SMOOTH",
"165 262 OFFCURVE",
"222 290 OFFCURVE",
"290 290 CURVE SMOOTH",
"325 290 OFFCURVE",
"362 286 OFFCURVE",
"397 275 CURVE",
"384 295 LINE",
"384 -156 LINE"
);
},
{
closed = 1;
nodes = (
"553 320 OFFCURVE",
"522 331 OFFCURVE",
"511 347 CURVE",
"522 294 LINE",
"522 372 LINE SMOOTH",
"522 434 OFFCURVE",
"557 461 OFFCURVE",
"620 471 CURVE",
"607 463 OFFCURVE",
"602 448 OFFCURVE",
"602 437 CURVE SMOOTH",
"602 409 OFFCURVE",
"615 392 OFFCURVE",
"615 363 CURVE SMOOTH",
"615 337 OFFCURVE",
"602 320 OFFCURVE",
"575 320 CURVE SMOOTH"
);
}
);
width = 779;
}
);
unicode = 0D85;
}
{
glyphname = snDDA;
layers = (
{
layerId = "25BA55F5-DD3E-4682-A696-ADF7D9496427";
paths = (
{
closed = 1;
nodes = (
"312 -10 OFFCURVE",
"354 22 OFFCURVE",
"374 61 CURVE",
"388 24 OFFCURVE",
"430 -10 OFFCURVE",
"497 -10 CURVE SMOOTH",
"660 -10 OFFCURVE",
"696 152 OFFCURVE",
"696 339 CURVE",
"696 546 OFFCURVE",
"611 773 OFFCURVE",
"320 773 CURVE",
"231 773 OFFCURVE",
"150 750 OFFCURVE",
"89 713 CURVE",
"89 658 LINE",
"149 694 OFFCURVE",
"231 718 OFFCURVE",
"320 718 CURVE",
"554 718 OFFCURVE",
"636 544 OFFCURVE",
"636 340 CURVE",
"636 178 OFFCURVE",
"608 45 OFFCURVE",
"501 45 CURVE SMOOTH",
"424 45 OFFCURVE",
"403 94 OFFCURVE",
"403 142 CURVE",
"403 176 LINE",
"344 176 LINE",
"344 142 LINE",
"344 94 OFFCURVE",
"323 45 OFFCURVE",
"249 45 CURVE SMOOTH",
"184 45 OFFCURVE",
"130 90 OFFCURVE",
"130 176 CURVE",
"130 272 OFFCURVE",
"186 326 OFFCURVE",
"253 326 CURVE",
"139 326 LINE",
"101 305 OFFCURVE",
"70 247 OFFCURVE",
"70 175 CURVE",
"70 58 OFFCURVE",
"149 -10 OFFCURVE",
"248 -10 CURVE SMOOTH"
);
},
{
closed = 1;
nodes = (
"130 424 LINE",
"133 471 OFFCURVE",
"164 498 OFFCURVE",
"217 498 CURVE",
"301 498 OFFCURVE",
"321 439 OFFCURVE",
"321 380 CURVE",
"35 380 LINE",
"35 325 LINE",
"383 326 LINE",
"385 340 OFFCURVE",
"385 353 OFFCURVE",
"385 367 CURVE",
"385 462 OFFCURVE",
"342 553 OFFCURVE",
"216 553 CURVE SMOOTH",
"124 553 OFFCURVE",
"70 499 OFFCURVE",
"70 424 CURVE"
);
}
);
width = 776;
},
{
layerId = "7B4D842D-CA8D-4153-9CDE-FADFBE419175";
paths = (
{
closed = 1;
nodes = (
"371 -10 OFFCURVE",
"432 15 OFFCURVE",
"465 78 CURVE",
"499 24 OFFCURVE",
"549 -10 OFFCURVE",
"640 -10 CURVE SMOOTH",
"825 -10 OFFCURVE",
"867 189 OFFCURVE",
"867 358 CURVE",
"867 615 OFFCURVE",
"724 806 OFFCURVE",
"413 806 CURVE",
"291 806 OFFCURVE",
"173 773 OFFCURVE",
"100 744 CURVE",
"100 622 LINE",
"167 654 OFFCURVE",
"289 694 OFFCURVE",
"413 694 CURVE",
"637 694 OFFCURVE",
"732 555 OFFCURVE",
"732 361 CURVE",
"732 217 OFFCURVE",
"719 102 OFFCURVE",
"621 102 CURVE SMOOTH",
"569 102 OFFCURVE",
"536 131 OFFCURVE",
"536 184 CURVE",
"536 230 LINE",
"395 230 LINE",
"395 184 LINE",
"395 135 OFFCURVE",
"363 102 OFFCURVE",
"304 102 CURVE",
"235 102 OFFCURVE",
"196 142 OFFCURVE",
"196 210 CURVE",
"196 275 OFFCURVE",
"237 329 OFFCURVE",
"316 329 CURVE",
"125 329 LINE",
"79 305 OFFCURVE",
"58 247 OFFCURVE",
"58 190 CURVE",
"58 70 OFFCURVE",
"154 -10 OFFCURVE",
"297 -10 CURVE"
);
},
{
closed = 1;
nodes = (
"179 453 LINE",
"179 477 OFFCURVE",
"204 492 OFFCURVE",
"233 492 CURVE SMOOTH",
"284 492 OFFCURVE",
"301 463 OFFCURVE",
"301 422 CURVE",
"30 424 LINE",
"30 329 LINE",
"411 329 LINE",
"414 347 OFFCURVE",
"415 370 OFFCURVE",
"415 387 CURVE SMOOTH",
"415 499 OFFCURVE",
"369 586 OFFCURVE",
"232 586 CURVE SMOOTH",
"125 586 OFFCURVE",
"73 517 OFFCURVE",
"69 453 CURVE"
);
}
);
width = 922;
}
);
unicode = 0DA9;
}
{
glyphname = snE;
layers = (
{
layerId = "25BA55F5-DD3E-4682-A696-ADF7D9496427";
paths = (
{
closed = 1;
nodes = (
"380 367 LINE SMOOTH",
"380 462 OFFCURVE",
"329 553 OFFCURVE",
"223 553 CURVE",
"141 553 OFFCURVE",
"91 493 OFFCURVE",
"90 424 CURVE SMOOTH",
"150 424 LINE SMOOTH",
"150 469 OFFCURVE",
"181 498 OFFCURVE",
"224 498 CURVE SMOOTH",
"288 498 OFFCURVE",
"316 439 OFFCURVE",
"316 380 CURVE SMOOTH",
"30 380 LINE SMOOTH",
"30 325 LINE SMOOTH",
"380 326 LINE SMOOTH"
);
},
{
closed = 1;
nodes = (
"665 567 OFFCURVE",
"543 744 OFFCURVE",
"347 797 CURVE SMOOTH",
"347 739 LINE SMOOTH",
"513 682 OFFCURVE",
"605 535 OFFCURVE",
"605 365 CURVE SMOOTH",
"605 156 OFFCURVE",
"508 45 OFFCURVE",
"345 45 CURVE",
"226 45 OFFCURVE",
"137 103 OFFCURVE",
"137 202 CURVE",
"137 278 OFFCURVE",
"182 326 OFFCURVE",
"249 326 CURVE SMOOTH",
"143 326 LINE SMOOTH",
"106 309 OFFCURVE",
"73 266 OFFCURVE",
"73 201 CURVE",
"73 71 OFFCURVE",
"192 -10 OFFCURVE",
"344 -10 CURVE",
"574 -10 OFFCURVE",
"665 156 OFFCURVE",
"665 366 CURVE SMOOTH"
);
},
{
closed = 1;
nodes = (
"582 541 LINE SMOOTH",
"567 523 OFFCURVE",
"542 506 OFFCURVE",
"501 506 CURVE SMOOTH",
"455 506 OFFCURVE",
"418 533 OFFCURVE",
"418 584 CURVE",
"418 631 OFFCURVE",
"442 673 OFFCURVE",
"472 699 CURVE SMOOTH",
"423 735 LINE SMOOTH",
"386 700 OFFCURVE",
"360 644 OFFCURVE",
"360 586 CURVE",
"360 503 OFFCURVE",
"422 451 OFFCURVE",
"496 451 CURVE",
"552 451 OFFCURVE",
"592 470 OFFCURVE",
"614 502 CURVE SMOOTH"
);
}
);
width = 740;
},
{
layerId = "7B4D842D-CA8D-4153-9CDE-FADFBE419175";
paths = (
{
closed = 1;
nodes = (
"398 385 LINE",
"398 503 OFFCURVE",
"338 586 OFFCURVE",
"228 586 CURVE SMOOTH",
"125 586 OFFCURVE",
"84 516 OFFCURVE",
"80 452 CURVE",
"190 452 LINE",
"190 476 OFFCURVE",
"209 492 OFFCURVE",
"234 492 CURVE SMOOTH",
"273 492 OFFCURVE",
"291 458 OFFCURVE",
"291 415 CURVE",
"20 417 LINE",
"20 320 LINE",
"399 320 LINE"
);
},
{
closed = 1;
nodes = (
"766 619 OFFCURVE",
"625 803 OFFCURVE",
"335 859 CURVE",
"335 744 LINE",
"535 704 OFFCURVE",
"636 582 OFFCURVE",
"636 361 CURVE",
"636 222 OFFCURVE",
"558 102 OFFCURVE",
"388 102 CURVE SMOOTH",
"277 102 OFFCURVE",
"200 134 OFFCURVE",
"200 223 CURVE SMOOTH",
"200 280 OFFCURVE",
"235 320 OFFCURVE",
"302 320 CURVE",
"125 320 LINE",
"98 301 OFFCURVE",
"71 260 OFFCURVE",
"71 206 CURVE SMOOTH",
"71 76 OFFCURVE",
"190 -10 OFFCURVE",
"385 -10 CURVE SMOOTH",
"625 -10 OFFCURVE",
"766 141 OFFCURVE",
"766 361 CURVE"
);
},
{
closed = 1;
nodes = (
"612 643 LINE",
"601 602 OFFCURVE",
"573 567 OFFCURVE",
"529 567 CURVE",
"497 567 OFFCURVE",
"478 587 OFFCURVE",
"478 616 CURVE SMOOTH",
"478 651 OFFCURVE",
"496 676 OFFCURVE",
"520 698 CURVE",
"428 752 LINE",
"388 728 OFFCURVE",
"363 667 OFFCURVE",
"363 613 CURVE SMOOTH",
"363 527 OFFCURVE",
"425 464 OFFCURVE",
"521 464 CURVE SMOOTH",
"602 464 OFFCURVE",
"643 506 OFFCURVE",
"668 561 CURVE"
);
}
);
width = 804;
}
);
unicode = 0D91;
}
{
glyphname = snEE;
layers = (
{
components = (
{
name = snE;
}
);
layerId = "25BA55F5-DD3E-4682-A696-ADF7D9496427";
paths = (
{
closed = 1;
nodes = (
"618 562 LINE",
"618 790 LINE",
"618 815 OFFCURVE",
"616 842 OFFCURVE",
"604 864 CURVE",
"592 833 LINE",
"604 845 OFFCURVE",
"631 858 OFFCURVE",
"654 858 CURVE SMOOTH",
"696 858 OFFCURVE",
"714 833 OFFCURVE",
"714 801 CURVE SMOOTH",
"714 726 OFFCURVE",
"643 716 OFFCURVE",
"577 716 CURVE",
"592 657 LINE SMOOTH",
"694 657 OFFCURVE",
"774 707 OFFCURVE",
"774 797 CURVE SMOOTH",
"774 862 OFFCURVE",
"733 915 OFFCURVE",
"658 915 CURVE SMOOTH",
"619 915 OFFCURVE",
"590 896 OFFCURVE",
"572 872 CURVE",
"601 872 LINE",
"595 889 OFFCURVE",
"589 901 OFFCURVE",
"579 912 CURVE",
"518 912 LINE",
"552 868 OFFCURVE",
"558 825 OFFCURVE",
"558 770 CURVE SMOOTH",
"558 590 LINE"
);
}
);
width = 764;
},
{
components = (
{
name = snE;
}
);
layerId = "7B4D842D-CA8D-4153-9CDE-FADFBE419175";
paths = (
{
closed = 1;
nodes = (
"722 572 LINE",
"722 875 LINE",
"722 883 OFFCURVE",
"719 892 OFFCURVE",
"713 900 CURVE",
"696 851 LINE",
"708 863 OFFCURVE",
"725 877 OFFCURVE",
"748 877 CURVE SMOOTH",
"767 877 OFFCURVE",
"780 865 OFFCURVE",
"780 846 CURVE SMOOTH",
"780 801 OFFCURVE",
"724 785 OFFCURVE",
"658 785 CURVE",
"691 700 LINE",
"793 700 OFFCURVE",
"873 756 OFFCURVE",
"873 846 CURVE SMOOTH",
"873 911 OFFCURVE",
"833 965 OFFCURVE",
"758 965 CURVE SMOOTH",
"703 965 OFFCURVE",
"669 925 OFFCURVE",
"656 890 CURVE",
"701 907 LINE",
"694 933 OFFCURVE",
"685 945 OFFCURVE",
"671 961 CURVE",
"570 961 LINE",
"607 917 OFFCURVE",
"619 874 OFFCURVE",
"619 819 CURVE SMOOTH",
"619 611 LINE"
);
}
);
width = 863;
}
);
unicode = 0D92;
}
{
color = 1;
glyphname = snFA;
layers = (
{
layerId = "25BA55F5-DD3E-4682-A696-ADF7D9496427";
paths = (
{
closed = 1;
nodes = (
"143 548 OFFCURVE",
"70 444 OFFCURVE",
"70 287 CURVE",
"70 132 OFFCURVE",
"141 -10 OFFCURVE",
"302 -10 CURVE SMOOTH",
"320 -10 OFFCURVE",
"334 -8 OFFCURVE",
"354 -5 CURVE",
"354 50 LINE",
"340 48 OFFCURVE",
"327 47 OFFCURVE",
"314 47 CURVE SMOOTH",
"194 47 OFFCURVE",
"130 136 OFFCURVE",
"130 286 CURVE",
"130 421 OFFCURVE",
"181 493 OFFCURVE",
"269 493 CURVE SMOOTH",
"337 493 OFFCURVE",
"368 445 OFFCURVE",
"368 396 CURVE",
"368 342 LINE",
"427 342 LINE",
"427 396 LINE",
"427 445 OFFCURVE",
"458 493 OFFCURVE",
"526 493 CURVE SMOOTH",
"614 493 OFFCURVE",
"665 421 OFFCURVE",
"665 286 CURVE",
"665 136 OFFCURVE",
"601 47 OFFCURVE",
"481 47 CURVE SMOOTH",
"468 47 OFFCURVE",
"455 48 OFFCURVE",
"441 50 CURVE",
"441 -5 LINE",
"461 -8 OFFCURVE",
"475 -10 OFFCURVE",
"493 -10 CURVE SMOOTH",
"654 -10 OFFCURVE",
"725 132 OFFCURVE",
"725 287 CURVE",
"725 444 OFFCURVE",
"652 548 OFFCURVE",
"527 548 CURVE",
"454 548 OFFCURVE",
"414 509 OFFCURVE",
"398 480 CURVE",
"378 514 OFFCURVE",
"338 548 OFFCURVE",
"268 548 CURVE SMOOTH"
);
}
);
width = 795;
},
{
layerId = "7B4D842D-CA8D-4153-9CDE-FADFBE419175";
paths = (
{
closed = 1;
nodes = (
"148 586 OFFCURVE",
"45 484 OFFCURVE",
"45 301 CURVE",
"45 116 OFFCURVE",
"145 -10 OFFCURVE",
"309 -10 CURVE SMOOTH",
"335 -10 OFFCURVE",
"355 -8 OFFCURVE",
"384 -3 CURVE",
"384 109 LINE",
"367 107 OFFCURVE",
"351 105 OFFCURVE",
"337 105 CURVE SMOOTH",
"238 105 OFFCURVE",
"180 164 OFFCURVE",
"180 300 CURVE",
"180 400 OFFCURVE",
"221 474 OFFCURVE",
"295 474 CURVE",
"340 474 OFFCURVE",
"371 445 OFFCURVE",
"371 392 CURVE",
"371 346 LINE",
"512 346 LINE",
"512 392 LINE",
"512 445 OFFCURVE",
"545 474 OFFCURVE",
"590 474 CURVE",
"664 474 OFFCURVE",
"705 400 OFFCURVE",
"705 300 CURVE",
"705 164 OFFCURVE",
"647 105 OFFCURVE",
"548 105 CURVE SMOOTH",
"534 105 OFFCURVE",
"518 107 OFFCURVE",
"501 109 CURVE",
"501 -3 LINE",
"532 -8 OFFCURVE",
"550 -10 OFFCURVE",
"576 -10 CURVE SMOOTH",
"740 -10 OFFCURVE",
"840 116 OFFCURVE",
"840 301 CURVE",
"840 484 OFFCURVE",
"735 586 OFFCURVE",
"598 586 CURVE",
"523 586 OFFCURVE",
"469 552 OFFCURVE",
"441 498 CURVE",
"415 558 OFFCURVE",
"359 586 OFFCURVE",
"285 586 CURVE"
);
}
);
width = 885;
}
);
unicode = 0DC6;
}
{
glyphname = snGA;
layers = (
{
layerId = "25BA55F5-DD3E-4682-A696-ADF7D9496427";
paths = (
{
closed = 1;
nodes = (
"174 543 LINE",
"126 488 OFFCURVE",
"80 384 OFFCURVE",
"80 276 CURVE SMOOTH",
"80 122 OFFCURVE",
"165 -10 OFFCURVE",
"338 -10 CURVE",
"466 -10 OFFCURVE",
"546 72 OFFCURVE",
"546 197 CURVE SMOOTH",
"546 262 OFFCURVE",
"506 332 OFFCURVE",
"434 332 CURVE SMOOTH",
"382 332 OFFCURVE",
"331 303 OFFCURVE",
"331 217 CURVE",
"367 216 LINE",
"367 250 OFFCURVE",
"386 277 OFFCURVE",
"422 277 CURVE SMOOTH",
"465 277 OFFCURVE",
"486 243 OFFCURVE",
"486 196 CURVE SMOOTH",
"486 116 OFFCURVE",
"442 45 OFFCURVE",
"339 45 CURVE",
"212 45 OFFCURVE",
"142 138 OFFCURVE",
"142 276 CURVE SMOOTH",
"142 367 OFFCURVE",
"173 461 OFFCURVE",
"241 543 CURVE"
);
},
{
closed = 1;
nodes = (
"676 0 LINE",
"716 52 OFFCURVE",
"755 163 OFFCURVE",
"755 277 CURVE SMOOTH",
"755 421 OFFCURVE",
"695 553 OFFCURVE",
"521 553 CURVE",
"368 553 OFFCURVE",
"293 447 OFFCURVE",
"293 276 CURVE SMOOTH",
"293 253 OFFCURVE",
"297 226 OFFCURVE",
"299 216 CURVE",
"351 216 LINE",
"348 231 OFFCURVE",
"346 250 OFFCURVE",
"346 277 CURVE SMOOTH",
"346 383 OFFCURVE",
"384 498 OFFCURVE",
"520 498 CURVE",
"648 498 OFFCURVE",
"693 405 OFFCURVE",
"693 277 CURVE SMOOTH",
"693 175 OFFCURVE",
"658 71 OFFCURVE",
"610 0 CURVE"
);
}
);
width = 835;
},
{
layerId = "7B4D842D-CA8D-4153-9CDE-FADFBE419175";
paths = (
{
closed = 1;
nodes = (
"147 576 LINE",
"80 493 OFFCURVE",
"50 394 OFFCURVE",
"50 303 CURVE SMOOTH",
"50 120 OFFCURVE",
"172 -10 OFFCURVE",
"366 -10 CURVE",
"534 -10 OFFCURVE",
"629 90 OFFCURVE",
"629 213 CURVE",
"629 295 OFFCURVE",
"584 370 OFFCURVE",
"502 370 CURVE SMOOTH",
"414 370 OFFCURVE",
"388 303 OFFCURVE",
"388 219 CURVE",
"419 218 LINE",
"419 246 OFFCURVE",
"433 264 OFFCURVE",
"458 264 CURVE SMOOTH",
"484 264 OFFCURVE",
"497 244 OFFCURVE",
"497 210 CURVE",
"497 149 OFFCURVE",
"453 102 OFFCURVE",
"366 102 CURVE",
"257 102 OFFCURVE",
"189 175 OFFCURVE",
"189 303 CURVE SMOOTH",
"189 393 OFFCURVE",
"226 494 OFFCURVE",
"294 576 CURVE"
);
},
{
closed = 1;
nodes = (
"782 0 LINE",
"848 82 OFFCURVE",
"873 183 OFFCURVE",
"873 263 CURVE SMOOTH",
"873 434 OFFCURVE",
"787 586 OFFCURVE",
"569 586 CURVE",
"383 586 OFFCURVE",
"284 446 OFFCURVE",
"284 282 CURVE SMOOTH",
"284 263 OFFCURVE",
"285 242 OFFCURVE",
"288 221 CURVE",
"419 218 LINE",
"416 243 OFFCURVE",
"414 269 OFFCURVE",
"414 291 CURVE SMOOTH",
"414 395 OFFCURVE",
"464 474 OFFCURVE",
"568 474 CURVE",
"684 474 OFFCURVE",
"734 389 OFFCURVE",
"734 263 CURVE SMOOTH",
"734 176 OFFCURVE",
"699 77 OFFCURVE",
"635 0 CURVE"
);
}
);
width = 923;
}
);
unicode = 0D9C;
}
{
glyphname = snJHA;
layers = (
{
layerId = "25BA55F5-DD3E-4682-A696-ADF7D9496427";
paths = (
{
closed = 1;
nodes = (
"89 0 LINE",
"238 253 OFFCURVE",
"326 321 OFFCURVE",
"461 321 CURVE",
"563 321 OFFCURVE",
"622 267 OFFCURVE",
"622 168 CURVE SMOOTH",
"622 102 OFFCURVE",
"606 45 OFFCURVE",
"548 45 CURVE SMOOTH",
"499 45 OFFCURVE",
"474 99 OFFCURVE",
"474 163 CURVE SMOOTH",
"474 181 LINE",
"414 181 LINE",
"414 164 LINE SMOOTH",
"414 108 OFFCURVE",
"403 45 OFFCURVE",
"347 45 CURVE SMOOTH",
"287 45 OFFCURVE",
"261 139 OFFCURVE",
"207 139 CURVE SMOOTH",
"163 139 OFFCURVE",
"153 111 OFFCURVE",
"118 69 CURVE",
"89 0 LINE",
"109 43 OFFCURVE",
"143 86 OFFCURVE",
"183 86 CURVE SMOOTH",
"239 86 OFFCURVE",
"255 -10 OFFCURVE",
"346 -10 CURVE SMOOTH",
"400 -10 OFFCURVE",
"428 25 OFFCURVE",
"444 83 CURVE",
"455 28 OFFCURVE",
"494 -10 OFFCURVE",
"551 -10 CURVE SMOOTH",
"644 -10 OFFCURVE",
"681 79 OFFCURVE",
"681 167 CURVE SMOOTH",
"681 291 OFFCURVE",
"595 375 OFFCURVE",
"467 375 CURVE",
"342 375 OFFCURVE",
"285 328 OFFCURVE",
"213 244 CURVE",
"234 261 LINE",
"332 426 OFFCURVE",
"427 498 OFFCURVE",
"559 498 CURVE",
"698 498 OFFCURVE",
"765 427 OFFCURVE",
"823 348 CURVE",
"868 370 LINE",
"804 477 OFFCURVE",
"710 553 OFFCURVE",
"560 553 CURVE",
"431 553 OFFCURVE",
"325 489 OFFCURVE",
"268 381 CURVE",
"197 275 LINE SMOOTH",
"27 0 LINE"
);
},
{
closed = 1;
nodes = (
"76 553 OFFCURVE",
"34 494 OFFCURVE",
"34 429 CURVE",
"94 429 LINE",
"95 466 OFFCURVE",
"113 498 OFFCURVE",
"169 498 CURVE",
"218 498 OFFCURVE",
"244 466 OFFCURVE",
"244 422 CURVE SMOOTH",
"244 377 OFFCURVE",
"226 331 OFFCURVE",
"189 261 CURVE",
"274 348 LINE",
"284 374 OFFCURVE",
"295 404 OFFCURVE",
"295 425 CURVE",
"295 493 OFFCURVE",
"250 553 OFFCURVE",
"164 553 CURVE SMOOTH"
);
},
{
closed = 1;
nodes = (
"713 682 LINE",
"770 704 OFFCURVE",
"842 718 OFFCURVE",
"909 718 CURVE",
"1143 718 OFFCURVE",
"1237 544 OFFCURVE",
"1237 340 CURVE",
"1237 198 OFFCURVE",
"1204 45 OFFCURVE",
"1097 45 CURVE SMOOTH",
"1028 45 OFFCURVE",
"1004 94 OFFCURVE",
"1004 142 CURVE",
"1004 176 LINE",
"945 176 LINE",
"945 142 LINE",
"945 94 OFFCURVE",
"914 45 OFFCURVE",
"848 45 CURVE SMOOTH",
"776 45 OFFCURVE",
"737 99 OFFCURVE",
"737 174 CURVE SMOOTH",
"737 260 OFFCURVE",
"790 315 OFFCURVE",
"868 315 CURVE",
"868 370 LINE",
"751 370 OFFCURVE",
"677 290 OFFCURVE",
"677 173 CURVE SMOOTH",
"677 76 OFFCURVE",
"741 -10 OFFCURVE",
"847 -10 CURVE SMOOTH",
"911 -10 OFFCURVE",
"955 19 OFFCURVE",
"975 58 CURVE",
"991 29 OFFCURVE",
"1031 -10 OFFCURVE",
"1093 -10 CURVE SMOOTH",
"1256 -10 OFFCURVE",
"1297 172 OFFCURVE",
"1297 339 CURVE",
"1297 546 OFFCURVE",
"1200 773 OFFCURVE",
"909 773 CURVE",
"842 773 OFFCURVE",
"770 760 OFFCURVE",
"713 737 CURVE"
);
}
);
width = 1408;
},
{
layerId = "7B4D842D-CA8D-4153-9CDE-FADFBE419175";
paths = (
{
closed = 1;
nodes = (
"153 0 LINE",
"253 244 OFFCURVE",
"376 319 OFFCURVE",
"501 319 CURVE",
"613 319 OFFCURVE",
"673 264 OFFCURVE",
"673 182 CURVE SMOOTH",
"673 142 OFFCURVE",
"670 96 OFFCURVE",
"627 96 CURVE SMOOTH",
"583 96 OFFCURVE",
"574 139 OFFCURVE",
"574 183 CURVE SMOOTH",
"574 201 LINE",
"432 201 LINE",
"432 184 LINE SMOOTH",
"432 167 OFFCURVE",
"434 96 OFFCURVE",
"385 96 CURVE SMOOTH",
"342 96 OFFCURVE",
"320 170 OFFCURVE",
"273 170 CURVE SMOOTH",
"231 170 OFFCURVE",
"202 135 OFFCURVE",
"167 93 CURVE",
"153 0 LINE",
"173 43 OFFCURVE",
"198 69 OFFCURVE",
"228 69 CURVE SMOOTH",
"276 69 OFFCURVE",
"288 -10 OFFCURVE",
"382 -10 CURVE SMOOTH",
"448 -10 OFFCURVE",
"487 29 OFFCURVE",
"503 87 CURVE",
"514 32 OFFCURVE",
"555 -10 OFFCURVE",
"632 -10 CURVE SMOOTH",
"730 -10 OFFCURVE",
"793 68 OFFCURVE",
"793 180 CURVE SMOOTH",
"793 319 OFFCURVE",
"695 419 OFFCURVE",
"517 419 CURVE",
"400 419 OFFCURVE",
"326 363 OFFCURVE",
"254 279 CURVE",
"284 280 LINE",
"341 414 OFFCURVE",
"493 473 OFFCURVE",
"620 473 CURVE",
"745 473 OFFCURVE",
"833 427 OFFCURVE",
"919 357 CURVE",
"1026 414 LINE",
"926 523 OFFCURVE",
"775 585 OFFCURVE",
"624 585 CURVE",
"481 585 OFFCURVE",
"356 528 OFFCURVE",
"289 441 CURVE",
"208 342 LINE SMOOTH",
"25 0 LINE"
);
},
{
closed = 1;
nodes = (
"84 584 OFFCURVE",
"32 520 OFFCURVE",
"25 435 CURVE",
"150 435 LINE",
"152 466 OFFCURVE",
"173 483 OFFCURVE",
"197 483 CURVE SMOOTH",
"223 483 OFFCURVE",
"238 467 OFFCURVE",
"238 439 CURVE SMOOTH",
"238 418 OFFCURVE",
"228 382 OFFCURVE",
"193 312 CURVE",
"325 375 LINE",
"335 401 OFFCURVE",
"340 425 OFFCURVE",
"340 446 CURVE SMOOTH",
"340 542 OFFCURVE",
"270 584 OFFCURVE",
"189 584 CURVE SMOOTH"
);
},
{
closed = 1;
nodes = (
"828 639 LINE",
"898 667 OFFCURVE",
"999 694 OFFCURVE",
"1102 694 CURVE",
"1326 694 OFFCURVE",
"1429 555 OFFCURVE",
"1429 361 CURVE",
"1429 217 OFFCURVE",
"1408 102 OFFCURVE",
"1310 102 CURVE SMOOTH",
"1258 102 OFFCURVE",
"1225 131 OFFCURVE",
"1225 184 CURVE",
"1225 230 LINE",
"1084 230 LINE",
"1084 184 LINE",
"1084 135 OFFCURVE",
"1053 102 OFFCURVE",
"1002 102 CURVE",
"952 102 OFFCURVE",
"917 137 OFFCURVE",
"917 192 CURVE",
"917 265 OFFCURVE",
"966 302 OFFCURVE",
"1026 302 CURVE",
"1026 414 LINE",
"863 414 OFFCURVE",
"782 315 OFFCURVE",
"782 195 CURVE",
"782 75 OFFCURVE",
"857 -10 OFFCURVE",
"994 -10 CURVE",
"1059 -10 OFFCURVE",
"1121 15 OFFCURVE",
"1154 78 CURVE",
"1188 24 OFFCURVE",
"1238 -10 OFFCURVE",
"1329 -10 CURVE SMOOTH",
"1514 -10 OFFCURVE",
"1564 189 OFFCURVE",
"1564 358 CURVE",
"1564 615 OFFCURVE",
"1413 806 OFFCURVE",
"1102 806 CURVE",
"1000 806 OFFCURVE",
"900 783 OFFCURVE",
"828 758 CURVE"
);
}
);
width = 1609;
}
);
unicode = 0DA3;
}
{
glyphname = snMA;
layers = (
{
layerId = "25BA55F5-DD3E-4682-A696-ADF7D9496427";
paths = (
{
closed = 1;
nodes = (
"55 105 OFFCURVE",
"196 -10 OFFCURVE",
"415 -10 CURVE SMOOTH",
"664 -10 OFFCURVE",
"765 182 OFFCURVE",
"765 361 CURVE SMOOTH",
"765 588 OFFCURVE",
"650 773 OFFCURVE",
"369 773 CURVE SMOOTH",
"280 773 OFFCURVE",
"180 750 OFFCURVE",
"110 720 CURVE",
"110 665 LINE",
"179 694 OFFCURVE",
"280 718 OFFCURVE",
"369 718 CURVE SMOOTH",
"593 718 OFFCURVE",
"705 586 OFFCURVE",
"705 362 CURVE SMOOTH",
"705 208 OFFCURVE",
"628 45 OFFCURVE",
"415 45 CURVE SMOOTH",
"221 45 OFFCURVE",
"115 154 OFFCURVE",
"115 309 CURVE SMOOTH",
"115 430 OFFCURVE",
"164 498 OFFCURVE",
"222 498 CURVE SMOOTH",
"242 498 OFFCURVE",
"251 487 OFFCURVE",
"251 470 CURVE SMOOTH",
"251 434 OFFCURVE",
"237 399 OFFCURVE",
"237 356 CURVE SMOOTH",
"237 246 OFFCURVE",
"317 180 OFFCURVE",
"426 180 CURVE SMOOTH",
"541 180 OFFCURVE",
"611 251 OFFCURVE",
"611 382 CURVE SMOOTH",
"611 480 OFFCURVE",
"560 554 OFFCURVE",
"475 554 CURVE SMOOTH",
"406 554 OFFCURVE",
"354 505 OFFCURVE",
"354 434 CURVE SMOOTH",
"354 357 OFFCURVE",
"404 314 OFFCURVE",
"470 314 CURVE SMOOTH",
"517 314 OFFCURVE",
"567 347 OFFCURVE",
"567 395 CURVE",
"555 425 LINE",
"558 405 OFFCURVE",
"560 394 OFFCURVE",
"560 385 CURVE SMOOTH",
"560 288 OFFCURVE",
"519 235 OFFCURVE",
"427 235 CURVE SMOOTH",
"347 235 OFFCURVE",
"297 278 OFFCURVE",
"297 357 CURVE SMOOTH",
"297 399 OFFCURVE",
"311 435 OFFCURVE",
"311 477 CURVE SMOOTH",
"311 520 OFFCURVE",
"285 553 OFFCURVE",
"228 553 CURVE SMOOTH",
"123 553 OFFCURVE",
"55 457 OFFCURVE",
"55 311 CURVE SMOOTH"
);
},
{
closed = 1;
nodes = (
"519 499 OFFCURVE",
"542 472 OFFCURVE",
"542 434 CURVE SMOOTH",
"542 396 OFFCURVE",
"519 369 OFFCURVE",
"476 369 CURVE SMOOTH",
"436 369 OFFCURVE",
"412 396 OFFCURVE",
"412 434 CURVE SMOOTH",
"412 472 OFFCURVE",
"436 499 OFFCURVE",
"476 499 CURVE SMOOTH"
);
}
);
width = 840;
},
{
layerId = "7B4D842D-CA8D-4153-9CDE-FADFBE419175";
paths = (
{
closed = 1;
nodes = (
"58 121 OFFCURVE",
"239 -10 OFFCURVE",
"478 -10 CURVE SMOOTH",
"763 -10 OFFCURVE",
"903 177 OFFCURVE",
"903 386 CURVE SMOOTH",
"903 643 OFFCURVE",
"749 806 OFFCURVE",
"438 806 CURVE SMOOTH",
"316 806 OFFCURVE",
"182 773 OFFCURVE",
"109 744 CURVE",
"109 622 LINE",
"176 654 OFFCURVE",
"314 694 OFFCURVE",
"438 694 CURVE SMOOTH",
"662 694 OFFCURVE",
"771 583 OFFCURVE",
"771 389 CURVE SMOOTH",
"771 215 OFFCURVE",
"686 96 OFFCURVE",
"478 96 CURVE SMOOTH",
"317 96 OFFCURVE",
"188 182 OFFCURVE",
"188 345 CURVE SMOOTH",
"188 430 OFFCURVE",
"217 477 OFFCURVE",
"252 477 CURVE SMOOTH",
"266 477 OFFCURVE",
"273 471 OFFCURVE",
"273 456 CURVE SMOOTH",
"273 436 OFFCURVE",
"265 413 OFFCURVE",
"265 381 CURVE SMOOTH",
"265 272 OFFCURVE",
"349 199 OFFCURVE",
"488 199 CURVE SMOOTH",
"626 199 OFFCURVE",
"698 293 OFFCURVE",
"698 415 CURVE SMOOTH",
"698 502 OFFCURVE",
"644 585 OFFCURVE",
"535 585 CURVE SMOOTH",
"454 585 OFFCURVE",
"404 534 OFFCURVE",
"404 464 CURVE SMOOTH",
"404 388 OFFCURVE",
"454 352 OFFCURVE",
"512 352 CURVE SMOOTH",
"572 352 OFFCURVE",
"601 390 OFFCURVE",
"606 440 CURVE",
"595 454 LINE",
"604 439 OFFCURVE",
"605 428 OFFCURVE",
"605 408 CURVE SMOOTH",
"605 338 OFFCURVE",
"574 291 OFFCURVE",
"491 291 CURVE SMOOTH",
"413 291 OFFCURVE",
"367 328 OFFCURVE",
"367 391 CURVE SMOOTH",
"367 413 OFFCURVE",
"376 450 OFFCURVE",
"376 478 CURVE SMOOTH",
"376 542 OFFCURVE",
"327 584 OFFCURVE",
"261 584 CURVE SMOOTH",
"137 584 OFFCURVE",
"58 491 OFFCURVE",
"58 347 CURVE SMOOTH"
);
},
{
closed = 1;
nodes = (
"547 498 OFFCURVE",
"559 481 OFFCURVE",
"559 464 CURVE SMOOTH",
"559 444 OFFCURVE",
"547 429 OFFCURVE",
"527 429 CURVE SMOOTH",
"506 429 OFFCURVE",
"493 444 OFFCURVE",
"493 464 CURVE SMOOTH",
"493 481 OFFCURVE",
"506 498 OFFCURVE",
"527 498 CURVE SMOOTH"
);
}
);
width = 964;
}
);
unicode = 0DB8;
}
{
glyphname = snMBA;
layers = (
{
layerId = "25BA55F5-DD3E-4682-A696-ADF7D9496427";
paths = (
{
closed = 1;
nodes = (
"557 499 OFFCURVE",
"580 472 OFFCURVE",
"580 434 CURVE SMOOTH",
"580 396 OFFCURVE",
"557 369 OFFCURVE",
"514 369 CURVE SMOOTH",
"474 369 OFFCURVE",
"450 396 OFFCURVE",
"450 434 CURVE SMOOTH",
"450 472 OFFCURVE",
"474 499 OFFCURVE",
"514 499 CURVE SMOOTH"
);
},
{
closed = 1;
nodes = (
"784 177 OFFCURVE",
"740 45 OFFCURVE",
"608 45 CURVE SMOOTH",
"553 45 OFFCURVE",
"531 53 OFFCURVE",
"507 64 CURVE",
"515 43 LINE",
"579 43 OFFCURVE",
"603 87 OFFCURVE",
"603 142 CURVE SMOOTH",
"603 224 OFFCURVE",
"537 271 OFFCURVE",
"444 271 CURVE",
"351 271 OFFCURVE",
"286 224 OFFCURVE",
"286 142 CURVE SMOOTH",
"286 83 OFFCURVE",
"316 47 OFFCURVE",
"380 43 CURVE",
"381 64 LINE",
"357 53 OFFCURVE",
"335 45 OFFCURVE",
"280 45 CURVE SMOOTH",
"168 45 OFFCURVE",
"130 152 OFFCURVE",
"130 278 CURVE",
"130 409 OFFCURVE",
"189 498 OFFCURVE",
"249 498 CURVE",
"274 498 OFFCURVE",
"284 483 OFFCURVE",
"284 458 CURVE SMOOTH",
"284 426 OFFCURVE",
"273 403 OFFCURVE",
"273 370 CURVE SMOOTH",
"273 280 OFFCURVE",
"343 225 OFFCURVE",
"462 225 CURVE SMOOTH",
"575 225 OFFCURVE",
"649 251 OFFCURVE",
"649 382 CURVE",
"649 480 OFFCURVE",
"598 554 OFFCURVE",
"513 554 CURVE SMOOTH",
"444 554 OFFCURVE",
"392 505 OFFCURVE",
"392 434 CURVE SMOOTH",
"392 357 OFFCURVE",
"442 314 OFFCURVE",
"508 314 CURVE SMOOTH",
"555 314 OFFCURVE",
"605 347 OFFCURVE",
"605 395 CURVE",
"593 425 LINE",
"596 405 OFFCURVE",
"598 394 OFFCURVE",
"598 385 CURVE SMOOTH",
"598 288 OFFCURVE",
"552 272 OFFCURVE",
"462 272 CURVE SMOOTH",
"372 272 OFFCURVE",
"333 312 OFFCURVE",
"333 371 CURVE SMOOTH",
"333 397 OFFCURVE",
"344 421 OFFCURVE",
"344 459 CURVE SMOOTH",
"344 516 OFFCURVE",
"315 553 OFFCURVE",
"257 553 CURVE",
"129 553 OFFCURVE",
"70 415 OFFCURVE",
"70 278 CURVE",
"70 278 LINE",
"70 121 OFFCURVE",
"135 -9 OFFCURVE",
"281 -9 CURVE SMOOTH",
"335 -9 OFFCURVE",
"381 0 OFFCURVE",
"416 18 CURVE",
"416 75 LINE",
"377 73 OFFCURVE",
"345 90 OFFCURVE",
"345 142 CURVE SMOOTH",
"345 185 OFFCURVE",
"381 221 OFFCURVE",
"445 221 CURVE",
"509 221 OFFCURVE",
"544 185 OFFCURVE",
"544 142 CURVE SMOOTH",
"544 90 OFFCURVE",
"511 73 OFFCURVE",
"472 75 CURVE",
"472 18 LINE",
"507 0 OFFCURVE",
"554 -10 OFFCURVE",
"608 -10 CURVE SMOOTH",
"784 -10 OFFCURVE",
"844 149 OFFCURVE",
"844 316 CURVE",
"844 563 OFFCURVE",
"728 773 OFFCURVE",
"407 773 CURVE",
"318 773 OFFCURVE",
"218 750 OFFCURVE",
"148 720 CURVE",
"148 665 LINE",
"217 694 OFFCURVE",
"318 718 OFFCURVE",
"407 718 CURVE",
"671 718 OFFCURVE",
"784 561 OFFCURVE",
"784 317 CURVE"
);
}
);
width = 919;
},
{
layerId = "7B4D842D-CA8D-4153-9CDE-FADFBE419175";
paths = (
{
closed = 1;
nodes = (
"550 508 OFFCURVE",
"562 491 OFFCURVE",
"562 474 CURVE SMOOTH",
"562 454 OFFCURVE",
"550 439 OFFCURVE",
"530 439 CURVE SMOOTH",
"509 439 OFFCURVE",
"496 454 OFFCURVE",
"496 474 CURVE SMOOTH",
"496 491 OFFCURVE",
"509 508 OFFCURVE",
"530 508 CURVE"
);
},
{
closed = 1;
nodes = (
"801 229 OFFCURVE",
"764 90 OFFCURVE",
"656 90 CURVE",
"625 90 OFFCURVE",
"592 99 OFFCURVE",
"580 109 CURVE",
"562 84 LINE",
"625 80 OFFCURVE",
"669 118 OFFCURVE",
"669 183 CURVE SMOOTH",
"669 263 OFFCURVE",
"586 296 OFFCURVE",
"482 296 CURVE",
"378 296 OFFCURVE",
"295 264 OFFCURVE",
"295 184 CURVE",
"295 128 OFFCURVE",
"339 85 OFFCURVE",
"402 89 CURVE",
"392 110 LINE",
"380 100 OFFCURVE",
"347 90 OFFCURVE",
"316 90 CURVE",
"226 90 OFFCURVE",
"160 159 OFFCURVE",
"160 303 CURVE",
"160 388 OFFCURVE",
"191 488 OFFCURVE",
"255 488 CURVE",
"269 488 OFFCURVE",
"276 482 OFFCURVE",
"276 467 CURVE SMOOTH",
"276 447 OFFCURVE",
"268 424 OFFCURVE",
"268 392 CURVE",
"268 290 OFFCURVE",
"357 231 OFFCURVE",
"486 231 CURVE SMOOTH",
"624 231 OFFCURVE",
"703 310 OFFCURVE",
"703 432 CURVE SMOOTH",
"703 519 OFFCURVE",
"645 595 OFFCURVE",
"533 595 CURVE SMOOTH",
"452 595 OFFCURVE",
"402 544 OFFCURVE",
"402 474 CURVE SMOOTH",
"402 398 OFFCURVE",
"451 357 OFFCURVE",
"513 357 CURVE",
"573 357 OFFCURVE",
"612 396 OFFCURVE",
"609 450 CURVE",
"593 464 LINE",
"602 449 OFFCURVE",
"603 439 OFFCURVE",
"603 428 CURVE SMOOTH",
"603 358 OFFCURVE",
"558 317 OFFCURVE",
"489 317 CURVE SMOOTH",
"431 317 OFFCURVE",
"371 338 OFFCURVE",
"371 405 CURVE",
"371 427 OFFCURVE",
"379 461 OFFCURVE",
"379 489 CURVE SMOOTH",
"379 553 OFFCURVE",
"334 595 OFFCURVE",
"268 595 CURVE",
"108 595 OFFCURVE",
"40 450 OFFCURVE",
"40 303 CURVE",
"40 303 LINE",
"40 157 OFFCURVE",
"114 -10 OFFCURVE",
"318 -10 CURVE",
"381 -10 OFFCURVE",
"423 7 OFFCURVE",
"465 28 CURVE",
"465 119 LINE",
"431 119 OFFCURVE",
"411 140 OFFCURVE",
"411 170 CURVE",
"411 198 OFFCURVE",
"434 223 OFFCURVE",
"482 223 CURVE",
"530 223 OFFCURVE",
"553 197 OFFCURVE",
"553 171 CURVE SMOOTH",
"553 140 OFFCURVE",
"533 119 OFFCURVE",
"499 119 CURVE",
"499 28 LINE",
"542 5 OFFCURVE",
"592 -10 OFFCURVE",
"655 -10 CURVE",
"863 -10 OFFCURVE",
"923 188 OFFCURVE",
"923 366 CURVE",
"923 623 OFFCURVE",
"780 806 OFFCURVE",
"438 806 CURVE",
"316 806 OFFCURVE",
"182 773 OFFCURVE",
"109 744 CURVE",
"109 622 LINE",
"176 654 OFFCURVE",
"314 694 OFFCURVE",
"438 694 CURVE",
"693 694 OFFCURVE",
"801 560 OFFCURVE",
"801 366 CURVE"
);
}
);
width = 973;
}
);
unicode = 0DB9;
}
{
glyphname = snNDA;
layers = (
{
components = (
{
name = snDA;
transform = "{1, 0, 0, 1, 175, 0}";
}
);
layerId = "25BA55F5-DD3E-4682-A696-ADF7D9496427";
paths = (
{
closed = 1;
nodes = (
"207 0 LINE",
"163 81 OFFCURVE",
"130 182 OFFCURVE",
"130 281 CURVE SMOOTH",
"130 420 OFFCURVE",
"176 503 OFFCURVE",
"256 503 CURVE SMOOTH",
"299 503 OFFCURVE",
"336 482 OFFCURVE",
"351 464 CURVE",
"375 504 LINE",
"351 535 OFFCURVE",
"307 553 OFFCURVE",
"255 553 CURVE SMOOTH",
"135 553 OFFCURVE",
"70 443 OFFCURVE",
"70 284 CURVE",
"70 171 OFFCURVE",
"102 66 OFFCURVE",
"140 0 CURVE"
);
}
);
width = 706;
},
{
components = (
{
name = snDA;
transform = "{1, 0, 0, 1, 200, 0}";
}
);
layerId = "7B4D842D-CA8D-4153-9CDE-FADFBE419175";
paths = (
{
closed = 1;
nodes = (
"252 0 LINE",
"208 91 OFFCURVE",
"172 192 OFFCURVE",
"172 291 CURVE",
"172 395 OFFCURVE",
"202 481 OFFCURVE",
"271 481 CURVE SMOOTH",
"303 481 OFFCURVE",
"325 465 OFFCURVE",
"340 447 CURVE",
"398 531 LINE",
"372 563 OFFCURVE",
"328 586 OFFCURVE",
"270 586 CURVE SMOOTH",
"107 586 OFFCURVE",
"45 453 OFFCURVE",
"45 294 CURVE",
"45 181 OFFCURVE",
"77 76 OFFCURVE",
"115 0 CURVE"
);
}
);
width = 783;
}
);
unicode = 0DB3;
}
{
glyphname = snNNA;
layers = (
{
layerId = "25BA55F5-DD3E-4682-A696-ADF7D9496427";
paths = (
{
closed = 1;
nodes = (
"437 214 OFFCURVE",
"404 186 OFFCURVE",
"356 186 CURVE SMOOTH",
"309 186 OFFCURVE",
"275 214 OFFCURVE",
"275 267 CURVE SMOOTH",
"275 317 OFFCURVE",
"309 348 OFFCURVE",
"356 348 CURVE SMOOTH",
"404 348 OFFCURVE",
"437 317 OFFCURVE",
"437 267 CURVE SMOOTH"
);
},
{
closed = 1;
nodes = (
"206 553 OFFCURVE",
"82 474 OFFCURVE",
"82 320 CURVE SMOOTH",
"82 211 OFFCURVE",
"166 120 OFFCURVE",
"317 120 CURVE",
"415 120 OFFCURVE",
"495 168 OFFCURVE",
"495 268 CURVE SMOOTH",
"495 347 OFFCURVE",
"439 402 OFFCURVE",
"357 402 CURVE SMOOTH",
"279 402 OFFCURVE",
"217 351 OFFCURVE",
"217 269 CURVE SMOOTH",
"217 222 OFFCURVE",
"246 167 OFFCURVE",
"306 159 CURVE",
"305 171 LINE",
"217 171 OFFCURVE",
"139 218 OFFCURVE",
"139 320 CURVE SMOOTH",
"139 452 OFFCURVE",
"252 498 OFFCURVE",
"352 498 CURVE",
"504 498 OFFCURVE",
"581 408 OFFCURVE",
"581 289 CURVE SMOOTH",
"581 149 OFFCURVE",
"512 45 OFFCURVE",
"340 45 CURVE SMOOTH",
"262 45 OFFCURVE",
"215 75 OFFCURVE",
"157 75 CURVE SMOOTH",
"105 75 OFFCURVE",
"59 47 OFFCURVE",
"47 29 CURVE",
"40 -13 LINE",
"70 12 OFFCURVE",
"103 27 OFFCURVE",
"143 27 CURVE SMOOTH",
"207 27 OFFCURVE",
"257 -10 OFFCURVE",
"341 -10 CURVE SMOOTH",
"533 -10 OFFCURVE",
"641 106 OFFCURVE",
"641 288 CURVE SMOOTH",
"641 448 OFFCURVE",
"528 553 OFFCURVE",
"352 553 CURVE"
);
},
{
closed = 1;
nodes = (
"148 209 LINE",
"40 61 LINE",
"40 -13 LINE",
"192 174 LINE"
);
},
{
closed = 1;
nodes = (
"449 502 LINE",
"571 658 LINE",
"501 658 LINE",
"397 526 LINE"
);
},
{
closed = 1;
nodes = (
"629 13 LINE",
"674 -2 OFFCURVE",
"725 -10 OFFCURVE",
"790 -10 CURVE",
"1020 -10 OFFCURVE",
"1069 161 OFFCURVE",
"1069 328 CURVE",
"1069 451 OFFCURVE",
"1028 553 OFFCURVE",
"921 553 CURVE SMOOTH",
"867 553 OFFCURVE",
"824 519 OFFCURVE",
"812 464 CURVE",
"797 519 OFFCURVE",
"761 553 OFFCURVE",
"698 553 CURVE SMOOTH",
"626 553 OFFCURVE",
"566 499 OFFCURVE",
"560 400 CURVE",
"614 397 LINE",
"620 466 OFFCURVE",
"651 499 OFFCURVE",
"699 499 CURVE SMOOTH",
"761 499 OFFCURVE",
"783 446 OFFCURVE",
"783 381 CURVE SMOOTH",
"783 268 LINE",
"841 268 LINE",
"841 381 LINE SMOOTH",
"841 443 OFFCURVE",
"864 499 OFFCURVE",
"921 499 CURVE SMOOTH",
"987 499 OFFCURVE",
"1009 429 OFFCURVE",
"1009 329 CURVE",
"1009 158 OFFCURVE",
"957 45 OFFCURVE",
"790 45 CURVE SMOOTH",
"728 45 OFFCURVE",
"672 55 OFFCURVE",
"629 69 CURVE"
);
}
);
width = 1149;
},
{
layerId = "7B4D842D-CA8D-4153-9CDE-FADFBE419175";
paths = (
{
closed = 1;
nodes = (
"426 262 OFFCURVE",
"406 248 OFFCURVE",
"381 248 CURVE SMOOTH",
"355 248 OFFCURVE",
"335 262 OFFCURVE",
"335 294 CURVE SMOOTH",
"335 327 OFFCURVE",
"355 340 OFFCURVE",
"381 340 CURVE SMOOTH",
"406 340 OFFCURVE",
"426 327 OFFCURVE",
"426 294 CURVE SMOOTH"
);
},
{
closed = 1;
nodes = (
"195 589 OFFCURVE",
"70 499 OFFCURVE",
"70 344 CURVE",
"70 207 OFFCURVE",
"191 142 OFFCURVE",
"342 142 CURVE",
"468 143 OFFCURVE",
"541 196 OFFCURVE",
"541 294 CURVE SMOOTH",
"541 384 OFFCURVE",
"468 432 OFFCURVE",
"380 432 CURVE SMOOTH",
"292 432 OFFCURVE",
"230 376 OFFCURVE",
"230 307 CURVE SMOOTH",
"230 249 OFFCURVE",
"262 223 OFFCURVE",
"301 217 CURVE",
"338 227 LINE",
"231 227 OFFCURVE",
"190 274 OFFCURVE",
"190 342 CURVE",
"190 438 OFFCURVE",
"265 485 OFFCURVE",
"375 485 CURVE",
"519 485 OFFCURVE",
"602 419 OFFCURVE",
"602 304 CURVE SMOOTH",
"602 172 OFFCURVE",
"548 90 OFFCURVE",
"392 90 CURVE SMOOTH",
"312 90 OFFCURVE",
"272 120 OFFCURVE",
"202 120 CURVE SMOOTH",
"123 120 OFFCURVE",
"102 74 OFFCURVE",
"63 43 CURVE",
"34 -6 LINE",
"62 15 OFFCURVE",
"89 32 OFFCURVE",
"141 32 CURVE SMOOTH",
"232 32 OFFCURVE",
"287 -10 OFFCURVE",
"389 -10 CURVE SMOOTH",
"565 -10 OFFCURVE",
"727 75 OFFCURVE",
"727 301 CURVE SMOOTH",
"727 477 OFFCURVE",
"593 587 OFFCURVE",
"375 587 CURVE"
);
},
{
closed = 1;
nodes = (
"138 256 LINE",
"34 132 LINE",
"34 -6 LINE",
"226 195 LINE"
);
},
{
closed = 1;
nodes = (
"505 498 LINE",
"687 700 LINE",
"545 700 LINE",
"391 532 LINE"
);
},
{
closed = 1;
nodes = (
"734 16 LINE",
"776 0 OFFCURVE",
"850 -10 OFFCURVE",
"892 -10 CURVE",
"1123 -10 OFFCURVE",
"1224 148 OFFCURVE",
"1224 355 CURVE",
"1224 474 OFFCURVE",
"1173 586 OFFCURVE",
"1036 586 CURVE SMOOTH",
"964 586 OFFCURVE",
"924 548 OFFCURVE",
"904 494 CURVE",
"884 547 OFFCURVE",
"845 586 OFFCURVE",
"761 586 CURVE",
"662 586 OFFCURVE",
"614 499 OFFCURVE",
"614 403 CURVE",
"707 406 LINE",
"707 452 OFFCURVE",
"733 480 OFFCURVE",
"773 480 CURVE",
"814 480 OFFCURVE",
"836 448 OFFCURVE",
"836 392 CURVE",
"836 266 LINE",
"973 266 LINE",
"973 392 LINE",
"973 442 OFFCURVE",
"988 480 OFFCURVE",
"1026 480 CURVE SMOOTH",
"1079 480 OFFCURVE",
"1089 419 OFFCURVE",
"1089 355 CURVE",
"1089 211 OFFCURVE",
"1056 102 OFFCURVE",
"892 102 CURVE",
"851 102 OFFCURVE",
"794 108 OFFCURVE",
"734 128 CURVE"
);
}
);
width = 1279;
}
);
unicode = 0DAB;
}
{
glyphname = snNYJA;
layers = (
{
layerId = "25BA55F5-DD3E-4682-A696-ADF7D9496427";
paths = (
{
closed = 1;
nodes = (
"748 342 LINE",
"821 342 OFFCURVE",
"857 394 OFFCURVE",
"857 448 CURVE",
"857 501 OFFCURVE",
"827 555 OFFCURVE",
"758 555 CURVE SMOOTH",
"701 555 OFFCURVE",
"676 510 OFFCURVE",
"663 467 CURVE",
"684 437 LINE",
"684 474 OFFCURVE",
"707 502 OFFCURVE",
"748 502 CURVE SMOOTH",
"784 502 OFFCURVE",
"803 481 OFFCURVE",
"803 448 CURVE",
"803 414 OFFCURVE",
"777 391 OFFCURVE",
"733 391 CURVE"
);
},
{
closed = 1;
nodes = (
"207 0 LINE",
"163 81 OFFCURVE",
"130 182 OFFCURVE",
"130 281 CURVE SMOOTH",
"130 420 OFFCURVE",
"171 503 OFFCURVE",
"246 503 CURVE SMOOTH",
"274 503 OFFCURVE",
"301 488 OFFCURVE",
"316 470 CURVE",
"361 493 LINE",
"341 525 OFFCURVE",
"297 553 OFFCURVE",
"245 553 CURVE SMOOTH",
"130 553 OFFCURVE",
"70 443 OFFCURVE",
"70 284 CURVE",
"70 171 OFFCURVE",
"102 66 OFFCURVE",
"140 0 CURVE"
);
},
{
closed = 1;
nodes = (
"773 -10 OFFCURVE",
"930 59 OFFCURVE",
"930 209 CURVE",
"930 324 OFFCURVE",
"850 391 OFFCURVE",
"733 391 CURVE",
"688 390 LINE",
"685 407 OFFCURVE",
"684 417 OFFCURVE",
"684 437 CURVE SMOOTH",
"684 531 OFFCURVE",
"719 611 OFFCURVE",
"819 611 CURVE",
"819 665 LINE",
"669 665 OFFCURVE",
"623 562 OFFCURVE",
"623 435 CURVE",
"623 399 OFFCURVE",
"629 352 OFFCURVE",
"634 336 CURVE",
"712 336 LINE",
"810 336 OFFCURVE",
"868 294 OFFCURVE",
"868 210 CURVE",
"868 91 OFFCURVE",
"740 45 OFFCURVE",
"605 45 CURVE",
"463 45 OFFCURVE",
"335 94 OFFCURVE",
"335 213 CURVE",
"335 297 OFFCURVE",
"391 336 OFFCURVE",
"489 336 CURVE SMOOTH",
"571 336 LINE",
"573 349 OFFCURVE",
"574 362 OFFCURVE",
"574 386 CURVE",
"574 481 OFFCURVE",
"536 553 OFFCURVE",
"430 553 CURVE SMOOTH",
"342 553 OFFCURVE",
"301 499 OFFCURVE",
"300 434 CURVE",
"360 434 LINE",
"362 474 OFFCURVE",
"388 498 OFFCURVE",
"431 498 CURVE",
"495 498 OFFCURVE",
"510 449 OFFCURVE",
"510 390 CURVE",
"470 391 LINE",
"353 391 OFFCURVE",
"275 327 OFFCURVE",
"275 212 CURVE",
"275 62 OFFCURVE",
"430 -10 OFFCURVE",
"605 -10 CURVE"
);
}
);
width = 985;
},
{
layerId = "7B4D842D-CA8D-4153-9CDE-FADFBE419175";
paths = (
{
closed = 1;
nodes = (
"849 359 LINE",
"936 359 OFFCURVE",
"982 409 OFFCURVE",
"982 472 CURVE SMOOTH",
"982 536 OFFCURVE",
"932 587 OFFCURVE",
"855 587 CURVE SMOOTH",
"801 587 OFFCURVE",
"772 545 OFFCURVE",
"760 520 CURVE",
"778 446 LINE",
"778 477 OFFCURVE",
"791 503 OFFCURVE",
"827 503 CURVE SMOOTH",
"853 503 OFFCURVE",
"868 487 OFFCURVE",
"868 463 CURVE SMOOTH",
"868 438 OFFCURVE",
"852 422 OFFCURVE",
"821 422 CURVE"
);
},
{
closed = 1;
nodes = (
"262 0 LINE",
"218 91 OFFCURVE",
"182 192 OFFCURVE",
"182 291 CURVE SMOOTH",
"182 395 OFFCURVE",
"212 481 OFFCURVE",
"281 481 CURVE SMOOTH",
"307 481 OFFCURVE",
"328 470 OFFCURVE",
"343 452 CURVE",
"408 531 LINE",
"382 563 OFFCURVE",
"338 586 OFFCURVE",
"280 586 CURVE SMOOTH",
"117 586 OFFCURVE",
"55 453 OFFCURVE",
"55 294 CURVE",
"55 181 OFFCURVE",
"87 76 OFFCURVE",
"125 0 CURVE"
);
},
{
closed = 1;
nodes = (
"867 -10 OFFCURVE",
"1026 67 OFFCURVE",
"1026 227 CURVE",
"1026 342 OFFCURVE",
"946 422 OFFCURVE",
"821 422 CURVE",
"780 422 LINE",
"779 430 OFFCURVE",
"778 438 OFFCURVE",
"778 446 CURVE",
"778 547 OFFCURVE",
"810 631 OFFCURVE",
"927 631 CURVE",
"927 734 LINE",
"758 734 OFFCURVE",
"681 623 OFFCURVE",
"681 462 CURVE",
"681 425 OFFCURVE",
"690 373 OFFCURVE",
"706 338 CURVE",
"758 338 LINE",
"845 338 OFFCURVE",
"897 303 OFFCURVE",
"897 228 CURVE",
"897 136 OFFCURVE",
"790 102 OFFCURVE",
"663 102 CURVE",
"527 102 OFFCURVE",
"423 135 OFFCURVE",
"423 227 CURVE",
"423 302 OFFCURVE",
"484 338 OFFCURVE",
"571 338 CURVE",
"637 338 LINE",
"640 356 OFFCURVE",
"641 370 OFFCURVE",
"641 387 CURVE SMOOTH",
"641 499 OFFCURVE",
"586 586 OFFCURVE",
"468 586 CURVE SMOOTH",
"365 586 OFFCURVE",
"313 513 OFFCURVE",
"311 437 CURVE",
"421 437 LINE",
"421 469 OFFCURVE",
"441 492 OFFCURVE",
"472 492 CURVE SMOOTH",
"508 492 OFFCURVE",
"527 463 OFFCURVE",
"527 422 CURVE",
"508 422 LINE",
"383 422 OFFCURVE",
"294 341 OFFCURVE",
"294 226 CURVE",
"294 66 OFFCURVE",
"457 -10 OFFCURVE",
"662 -10 CURVE"
);
}
);
width = 1071;
}
);
unicode = 0DA6;
}
{
glyphname = snOO;
layers = (
{
layerId = "25BA55F5-DD3E-4682-A696-ADF7D9496427";
paths = (
{
closed = 1;
nodes = (
"451 33 OFFCURVE",
"497 -10 OFFCURVE",
"578 -10 CURVE SMOOTH",
"746 -10 OFFCURVE",
"790 163 OFFCURVE",
"790 322 CURVE",
"790 614 OFFCURVE",
"668 823 OFFCURVE",
"420 823 CURVE",
"314 823 OFFCURVE",
"235 784 OFFCURVE",
"229 699 CURVE SMOOTH",
"228 680 OFFCURVE",
"232 665 OFFCURVE",
"239 643 CURVE",
"290 669 LINE",
"286 677 OFFCURVE",
"284 687 OFFCURVE",
"284 698 CURVE SMOOTH",
"284 745 OFFCURVE",
"333 769 OFFCURVE",
"420 769 CURVE",
"582 769 OFFCURVE",
"686 656 OFFCURVE",
"716 534 CURVE",
"718 538 LINE",
"673 637 OFFCURVE",
"548 703 OFFCURVE",
"394 703 CURVE",
"305 703 OFFCURVE",
"205 680 OFFCURVE",
"135 650 CURVE",
"135 595 LINE",
"204 624 OFFCURVE",
"305 648 OFFCURVE",
"394 648 CURVE",
"608 648 OFFCURVE",
"730 537 OFFCURVE",
"730 323 CURVE",
"730 189 OFFCURVE",
"696 45 OFFCURVE",
"574 45 CURVE SMOOTH",
"510 45 OFFCURVE",
"469 95 OFFCURVE",
"461 147 CURVE",
"401 147 LINE",
"393 97 OFFCURVE",
"364 45 OFFCURVE",
"296 45 CURVE",
"192 45 OFFCURVE",
"140 152 OFFCURVE",
"140 279 CURVE",
"140 400 OFFCURVE",
"179 498 OFFCURVE",
"247 498 CURVE",
"267 498 OFFCURVE",
"276 487 OFFCURVE",
"276 470 CURVE SMOOTH",
"276 434 OFFCURVE",
"262 399 OFFCURVE",
"262 356 CURVE SMOOTH",
"262 246 OFFCURVE",
"342 180 OFFCURVE",
"451 180 CURVE SMOOTH",
"566 180 OFFCURVE",
"636 251 OFFCURVE",
"636 382 CURVE",
"636 480 OFFCURVE",
"585 554 OFFCURVE",
"500 554 CURVE SMOOTH",
"431 554 OFFCURVE",
"379 505 OFFCURVE",
"379 434 CURVE SMOOTH",
"379 357 OFFCURVE",
"429 314 OFFCURVE",
"495 314 CURVE SMOOTH",
"542 314 OFFCURVE",
"592 347 OFFCURVE",
"592 395 CURVE",
"580 425 LINE",
"583 405 OFFCURVE",
"585 394 OFFCURVE",
"585 385 CURVE SMOOTH",
"585 288 OFFCURVE",
"544 235 OFFCURVE",
"452 235 CURVE SMOOTH",
"372 235 OFFCURVE",
"322 278 OFFCURVE",
"322 357 CURVE SMOOTH",
"322 399 OFFCURVE",
"336 435 OFFCURVE",
"336 477 CURVE SMOOTH",
"336 520 OFFCURVE",
"310 553 OFFCURVE",
"253 553 CURVE",
"132 553 OFFCURVE",
"80 419 OFFCURVE",
"80 281 CURVE",
"80 281 LINE",
"80 141 OFFCURVE",
"147 -10 OFFCURVE",
"294 -10 CURVE",
"375 -10 OFFCURVE",
"412 37 OFFCURVE",
"433 88 CURVE"
);
},
{
closed = 1;
nodes = (
"544 499 OFFCURVE",
"567 472 OFFCURVE",
"567 434 CURVE SMOOTH",
"567 396 OFFCURVE",
"544 369 OFFCURVE",
"501 369 CURVE SMOOTH",
"461 369 OFFCURVE",
"437 396 OFFCURVE",
"437 434 CURVE SMOOTH",
"437 472 OFFCURVE",
"461 499 OFFCURVE",
"501 499 CURVE SMOOTH"
);
}
);
width = 870;
},
{
layerId = "7B4D842D-CA8D-4153-9CDE-FADFBE419175";
paths = (
{
closed = 1;
nodes = (
"508 24 OFFCURVE",
"558 -10 OFFCURVE",
"649 -10 CURVE SMOOTH",
"834 -10 OFFCURVE",
"909 189 OFFCURVE",
"909 358 CURVE",
"909 712 OFFCURVE",
"745 905 OFFCURVE",
"451 905 CURVE",
"315 905 OFFCURVE",
"209 845 OFFCURVE",
"209 745 CURVE SMOOTH",
"209 726 OFFCURVE",
"212 705 OFFCURVE",
"219 683 CURVE",
"348 709 LINE",
"344 717 OFFCURVE",
"342 727 OFFCURVE",
"342 738 CURVE SMOOTH",
"342 785 OFFCURVE",
"386 809 OFFCURVE",
"460 809 CURVE",
"586 809 OFFCURVE",
"721 746 OFFCURVE",
"755 615 CURVE",
"762 619 LINE",
"704 700 OFFCURVE",
"596 746 OFFCURVE",
"428 746 CURVE",
"306 746 OFFCURVE",
"179 713 OFFCURVE",
"106 684 CURVE",
"106 582 LINE",
"173 614 OFFCURVE",
"304 654 OFFCURVE",
"428 654 CURVE",
"647 654 OFFCURVE",
"774 555 OFFCURVE",
"774 361 CURVE",
"774 217 OFFCURVE",
"728 96 OFFCURVE",
"630 96 CURVE SMOOTH",
"579 96 OFFCURVE",
"550 131 OFFCURVE",
"544 174 CURVE",
"405 174 LINE",
"399 138 OFFCURVE",
"380 96 OFFCURVE",
"329 96 CURVE",
"235 96 OFFCURVE",
"180 177 OFFCURVE",
"180 291 CURVE",
"180 376 OFFCURVE",
"208 477 OFFCURVE",
"255 477 CURVE",
"269 477 OFFCURVE",
"276 471 OFFCURVE",
"276 456 CURVE SMOOTH",
"276 436 OFFCURVE",
"268 413 OFFCURVE",
"268 381 CURVE",
"268 277 OFFCURVE",
"342 199 OFFCURVE",
"475 199 CURVE SMOOTH",
"610 199 OFFCURVE",
"696 293 OFFCURVE",
"696 415 CURVE SMOOTH",
"696 502 OFFCURVE",
"647 585 OFFCURVE",
"538 585 CURVE SMOOTH",
"457 585 OFFCURVE",
"407 534 OFFCURVE",
"407 464 CURVE SMOOTH",
"407 395 OFFCURVE",
"455 349 OFFCURVE",
"513 349 CURVE",
"557 349 OFFCURVE",
"594 375 OFFCURVE",
"605 431 CURVE",
"595 451 LINE",
"598 436 OFFCURVE",
"600 422 OFFCURVE",
"600 408 CURVE SMOOTH",
"600 338 OFFCURVE",
"554 291 OFFCURVE",
"478 291 CURVE",
"407 291 OFFCURVE",
"370 328 OFFCURVE",
"370 391 CURVE SMOOTH",
"370 413 OFFCURVE",
"379 450 OFFCURVE",
"379 478 CURVE SMOOTH",
"379 542 OFFCURVE",
"334 584 OFFCURVE",
"268 584 CURVE",
"108 584 OFFCURVE",
"50 420 OFFCURVE",
"50 293 CURVE",
"50 293 LINE",
"50 133 OFFCURVE",
"146 -10 OFFCURVE",
"321 -10 CURVE",
"386 -10 OFFCURVE",
"441 15 OFFCURVE",
"474 78 CURVE"
);
},
{
closed = 1;
nodes = (
"550 498 OFFCURVE",
"562 481 OFFCURVE",
"562 464 CURVE SMOOTH",
"562 444 OFFCURVE",
"550 429 OFFCURVE",
"530 429 CURVE SMOOTH",
"509 429 OFFCURVE",
"496 444 OFFCURVE",
"496 464 CURVE SMOOTH",
"496 481 OFFCURVE",
"509 498 OFFCURVE",
"530 498 CURVE SMOOTH"
);
}
);
width = 959;
}
);
unicode = 0D95;
}
{
glyphname = snPHA;
layers = (
{
layerId = "25BA55F5-DD3E-4682-A696-ADF7D9496427";
paths = (
{
closed = 1;
nodes = (
"603 164 OFFCURVE",
"507 45 OFFCURVE",
"336 45 CURVE SMOOTH",
"207 45 OFFCURVE",
"106 94 OFFCURVE",
"106 207 CURVE SMOOTH",
"106 291 OFFCURVE",
"164 336 OFFCURVE",
"262 336 CURVE SMOOTH",
"344 336 LINE",
"346 349 OFFCURVE",
"347 362 OFFCURVE",
"347 386 CURVE SMOOTH",
"347 481 OFFCURVE",
"305 553 OFFCURVE",
"205 553 CURVE SMOOTH",
"123 553 OFFCURVE",
"73 499 OFFCURVE",
"72 434 CURVE",
"132 434 LINE",
"134 475 OFFCURVE",
"163 498 OFFCURVE",
"206 498 CURVE SMOOTH",
"266 498 OFFCURVE",
"283 449 OFFCURVE",
"283 390 CURVE",
"245 391 LINE SMOOTH",
"128 391 OFFCURVE",
"46 321 OFFCURVE",
"46 206 CURVE SMOOTH",
"46 62 OFFCURVE",
"173 -10 OFFCURVE",
"335 -10 CURVE SMOOTH",
"573 -10 OFFCURVE",
"663 163 OFFCURVE",
"663 323 CURVE SMOOTH",
"663 558 OFFCURVE",
"537 740 OFFCURVE",
"313 797 CURVE",
"313 739 LINE",
"503 680 OFFCURVE",
"603 524 OFFCURVE",
"603 323 CURVE SMOOTH"
);
},
{
closed = 1;
nodes = (
"554 550 LINE",
"539 532 OFFCURVE",
"514 515 OFFCURVE",
"473 515 CURVE",
"427 515 OFFCURVE",
"390 542 OFFCURVE",
"390 593 CURVE SMOOTH",
"390 640 OFFCURVE",
"414 682 OFFCURVE",
"444 708 CURVE",
"395 744 LINE",
"358 709 OFFCURVE",
"332 653 OFFCURVE",
"332 595 CURVE SMOOTH",
"332 512 OFFCURVE",
"394 460 OFFCURVE",
"468 460 CURVE SMOOTH",
"524 460 OFFCURVE",
"564 479 OFFCURVE",
"586 511 CURVE"
);
}
);
width = 741;
},
{
layerId = "7B4D842D-CA8D-4153-9CDE-FADFBE419175";
paths = (
{
closed = 1;
nodes = (
"627 222 OFFCURVE",
"548 102 OFFCURVE",
"358 102 CURVE",
"262 102 OFFCURVE",
"166 140 OFFCURVE",
"166 234 CURVE",
"166 309 OFFCURVE",
"228 338 OFFCURVE",
"306 338 CURVE",
"372 338 LINE",
"375 356 OFFCURVE",
"376 370 OFFCURVE",
"376 387 CURVE SMOOTH",
"376 499 OFFCURVE",
"322 586 OFFCURVE",
"206 586 CURVE SMOOTH",
"103 586 OFFCURVE",
"50 522 OFFCURVE",
"46 448 CURVE",
"156 448 LINE",
"156 472 OFFCURVE",
"174 492 OFFCURVE",
"205 492 CURVE SMOOTH",
"242 492 OFFCURVE",
"262 463 OFFCURVE",
"262 422 CURVE",
"243 422 LINE",
"123 422 OFFCURVE",
"30 351 OFFCURVE",
"30 233 CURVE",
"30 69 OFFCURVE",
"194 -10 OFFCURVE",
"357 -10 CURVE",
"624 -10 OFFCURVE",
"757 153 OFFCURVE",
"757 373 CURVE",
"757 623 OFFCURVE",
"621 801 OFFCURVE",
"333 857 CURVE",
"333 742 LINE",
"532 698 OFFCURVE",
"627 562 OFFCURVE",
"627 372 CURVE"
);
},
{
closed = 1;
nodes = (
"599 643 LINE",
"588 602 OFFCURVE",
"560 567 OFFCURVE",
"516 567 CURVE",
"484 567 OFFCURVE",
"465 587 OFFCURVE",
"465 616 CURVE SMOOTH",
"465 651 OFFCURVE",
"483 676 OFFCURVE",
"507 698 CURVE",
"415 752 LINE",
"375 728 OFFCURVE",
"350 667 OFFCURVE",
"350 613 CURVE SMOOTH",
"350 527 OFFCURVE",
"412 464 OFFCURVE",
"508 464 CURVE SMOOTH",
"589 464 OFFCURVE",
"630 506 OFFCURVE",
"655 561 CURVE"
);
}
);
width = 806;
}
);
unicode = 0DB5;
}
{
glyphname = snTHA;
layers = (
{
layerId = "25BA55F5-DD3E-4682-A696-ADF7D9496427";
paths = (
{
closed = 1;
nodes = (
"293 734 LINE",
"475 673 OFFCURVE",
"590 526 OFFCURVE",
"590 321 CURVE",
"590 162 OFFCURVE",
"521 45 OFFCURVE",
"344 45 CURVE SMOOTH",
"220 45 OFFCURVE",
"119 104 OFFCURVE",
"119 233 CURVE SMOOTH",
"119 339 OFFCURVE",
"193 396 OFFCURVE",
"279 396 CURVE",
"279 452 LINE",
"137 452 OFFCURVE",
"55 355 OFFCURVE",
"55 232 CURVE SMOOTH",
"55 72 OFFCURVE",
"186 -10 OFFCURVE",
"343 -10 CURVE SMOOTH",
"587 -10 OFFCURVE",
"650 162 OFFCURVE",
"650 322 CURVE",
"650 558 OFFCURVE",
"505 735 OFFCURVE",
"293 793 CURVE"
);
},
{
closed = 1;
nodes = (
"377 737 LINE",
"340 702 OFFCURVE",
"314 646 OFFCURVE",
"314 588 CURVE SMOOTH",
"314 505 OFFCURVE",
"376 453 OFFCURVE",
"450 453 CURVE SMOOTH",
"506 453 OFFCURVE",
"546 472 OFFCURVE",
"568 504 CURVE",
"536 543 LINE",
"521 525 OFFCURVE",
"496 508 OFFCURVE",
"455 508 CURVE",
"409 508 OFFCURVE",
"372 535 OFFCURVE",
"372 586 CURVE SMOOTH",
"372 633 OFFCURVE",
"396 675 OFFCURVE",
"426 701 CURVE"
);
}
);
width = 725;
},
{
layerId = "7B4D842D-CA8D-4153-9CDE-FADFBE419175";
paths = (
{
closed = 1;
nodes = (
"274 741 LINE",
"474 697 OFFCURVE",
"574 578 OFFCURVE",
"574 361 CURVE SMOOTH",
"574 218 OFFCURVE",
"513 102 OFFCURVE",
"364 102 CURVE SMOOTH",
"264 102 OFFCURVE",
"173 146 OFFCURVE",
"173 255 CURVE SMOOTH",
"173 334 OFFCURVE",
"216 388 OFFCURVE",
"293 388 CURVE",
"293 500 LINE",
"100 500 OFFCURVE",
"35 373 OFFCURVE",
"35 255 CURVE SMOOTH",
"35 84 OFFCURVE",
"180 -10 OFFCURVE",
"363 -10 CURVE SMOOTH",
"616 -10 OFFCURVE",
"706 194 OFFCURVE",
"706 361 CURVE SMOOTH",
"706 615 OFFCURVE",
"566 798 OFFCURVE",
"274 857 CURVE"
);
},
{
closed = 1;
nodes = (
"350 752 LINE",
"310 728 OFFCURVE",
"285 667 OFFCURVE",
"285 613 CURVE SMOOTH",
"285 527 OFFCURVE",
"347 464 OFFCURVE",
"443 464 CURVE SMOOTH",
"524 464 OFFCURVE",
"565 506 OFFCURVE",
"590 561 CURVE",
"534 643 LINE",
"523 602 OFFCURVE",
"495 567 OFFCURVE",
"451 567 CURVE",
"419 567 OFFCURVE",
"400 587 OFFCURVE",
"400 616 CURVE SMOOTH",
"400 651 OFFCURVE",
"418 676 OFFCURVE",
"442 698 CURVE"
);
}
);
width = 761;
}
);
unicode = 0DAE;
}
{
glyphname = snTTA;
layers = (
{
layerId = "25BA55F5-DD3E-4682-A696-ADF7D9496427";
paths = (
{
closed = 1;
nodes = (
"65 667 LINE",
"126 698 OFFCURVE",
"214 718 OFFCURVE",
"295 718 CURVE",
"504 718 OFFCURVE",
"596 574 OFFCURVE",
"596 370 CURVE",
"596 191 OFFCURVE",
"509 45 OFFCURVE",
"332 45 CURVE SMOOTH",
"208 45 OFFCURVE",
"120 111 OFFCURVE",
"120 230 CURVE SMOOTH",
"120 336 OFFCURVE",
"196 396 OFFCURVE",
"302 396 CURVE SMOOTH",
"323 396 OFFCURVE",
"343 395 OFFCURVE",
"366 391 CURVE",
"366 445 LINE",
"346 450 OFFCURVE",
"327 452 OFFCURVE",
"303 452 CURVE",
"141 452 OFFCURVE",
"56 352 OFFCURVE",
"56 229 CURVE SMOOTH",
"56 79 OFFCURVE",
"174 -10 OFFCURVE",
"331 -10 CURVE SMOOTH",
"575 -10 OFFCURVE",
"656 191 OFFCURVE",
"656 371 CURVE",
"656 578 OFFCURVE",
"561 773 OFFCURVE",
"295 773 CURVE",
"214 773 OFFCURVE",
"126 754 OFFCURVE",
"65 722 CURVE"
);
}
);
width = 706;
},
{
layerId = "7B4D842D-CA8D-4153-9CDE-FADFBE419175";
paths = (
{
closed = 1;
nodes = (
"74 629 LINE",
"141 661 OFFCURVE",
"224 694 OFFCURVE",
"338 694 CURVE",
"539 694 OFFCURVE",
"594 543 OFFCURVE",
"594 399 CURVE",
"594 232 OFFCURVE",
"520 102 OFFCURVE",
"375 102 CURVE",
"273 102 OFFCURVE",
"200 157 OFFCURVE",
"200 254 CURVE",
"200 337 OFFCURVE",
"248 388 OFFCURVE",
"341 388 CURVE",
"362 388 OFFCURVE",
"381 387 OFFCURVE",
"402 383 CURVE",
"402 495 LINE",
"381 499 OFFCURVE",
"361 500 OFFCURVE",
"340 500 CURVE",
"147 500 OFFCURVE",
"62 391 OFFCURVE",
"62 254 CURVE",
"62 90 OFFCURVE",
"186 -10 OFFCURVE",
"374 -10 CURVE",
"644 -10 OFFCURVE",
"729 217 OFFCURVE",
"729 396 CURVE",
"729 603 OFFCURVE",
"626 806 OFFCURVE",
"338 806 CURVE",
"226 806 OFFCURVE",
"147 780 OFFCURVE",
"74 751 CURVE"
);
}
);
width = 784;
}
);
unicode = 0DA7;
}
{
glyphname = snYA;
layers = (
{
layerId = "25BA55F5-DD3E-4682-A696-ADF7D9496427";
paths = (
{
closed = 1;
nodes = (
"655 304 OFFCURVE",
"575 391 OFFCURVE",
"458 391 CURVE",
"427 390 LINE",
"427 449 OFFCURVE",
"449 498 OFFCURVE",
"513 498 CURVE",
"562 498 OFFCURVE",
"588 471 OFFCURVE",
"588 426 CURVE",
"648 426 LINE",
"648 500 OFFCURVE",
"601 553 OFFCURVE",
"509 553 CURVE SMOOTH",
"403 553 OFFCURVE",
"363 481 OFFCURVE",
"363 386 CURVE",
"363 362 OFFCURVE",
"364 349 OFFCURVE",
"366 336 CURVE",
"439 336 LINE",
"547 336 OFFCURVE",
"595 274 OFFCURVE",
"595 190 CURVE",
"595 111 OFFCURVE",
"568 45 OFFCURVE",
"489 45 CURVE",
"420 45 OFFCURVE",
"392 94 OFFCURVE",
"392 142 CURVE",
"392 176 LINE",
"333 176 LINE",
"333 142 LINE",
"333 93 OFFCURVE",
"307 45 OFFCURVE",
"243 45 CURVE SMOOTH",
"171 45 OFFCURVE",
"125 106 OFFCURVE",
"125 201 CURVE",
"125 317 OFFCURVE",
"183 396 OFFCURVE",
"289 396 CURVE",
"289 452 LINE",
"127 452 OFFCURVE",
"65 333 OFFCURVE",
"65 200 CURVE",
"65 83 OFFCURVE",
"133 -10 OFFCURVE",
"242 -10 CURVE SMOOTH",
"308 -10 OFFCURVE",
"344 24 OFFCURVE",
"363 61 CURVE",
"378 27 OFFCURVE",
"413 -10 OFFCURVE",
"485 -10 CURVE",
"597 -10 OFFCURVE",
"655 79 OFFCURVE",
"655 189 CURVE"
);
}
);
width = 730;
},
{
layerId = "7B4D842D-CA8D-4153-9CDE-FADFBE419175";
paths = (
{
closed = 1;
nodes = (
"779 340 OFFCURVE",
"709 422 OFFCURVE",
"584 422 CURVE",
"548 422 LINE",
"548 463 OFFCURVE",
"567 492 OFFCURVE",
"608 492 CURVE SMOOTH",
"641 492 OFFCURVE",
"666 476 OFFCURVE",
"666 438 CURVE",
"775 437 LINE",
"775 515 OFFCURVE",
"722 586 OFFCURVE",
"609 586 CURVE SMOOTH",
"482 586 OFFCURVE",
"421 499 OFFCURVE",
"421 387 CURVE SMOOTH",
"421 370 OFFCURVE",
"422 356 OFFCURVE",
"425 338 CURVE",
"521 338 LINE",
"606 338 OFFCURVE",
"650 301 OFFCURVE",
"650 216 CURVE",
"650 138 OFFCURVE",
"615 102 OFFCURVE",
"565 102 CURVE",
"520 102 OFFCURVE",
"487 131 OFFCURVE",
"487 184 CURVE",
"487 230 LINE",
"346 230 LINE",
"346 192 LINE",
"346 143 OFFCURVE",
"322 102 OFFCURVE",
"268 102 CURVE SMOOTH",
"202 102 OFFCURVE",
"178 154 OFFCURVE",
"178 229 CURVE",
"178 332 OFFCURVE",
"231 387 OFFCURVE",
"325 387 CURVE",
"324 502 LINE",
"156 502 OFFCURVE",
"43 404 OFFCURVE",
"43 232 CURVE SMOOTH",
"43 92 OFFCURVE",
"127 -10 OFFCURVE",
"264 -10 CURVE",
"338 -10 OFFCURVE",
"390 18 OFFCURVE",
"416 78 CURVE",
"444 24 OFFCURVE",
"498 -10 OFFCURVE",
"573 -10 CURVE",
"710 -10 OFFCURVE",
"779 95 OFFCURVE",
"779 215 CURVE"
);
}
);
width = 839;
}
);
unicode = 0DBA;
}
{
color = 1;
glyphname = snmAE;
layers = (
{
layerId = "25BA55F5-DD3E-4682-A696-ADF7D9496427";
paths = (
{
closed = 1;
nodes = (
"239 -85 OFFCURVE",
"250 -83 OFFCURVE",
"267 -79 CURVE",
"267 -24 LINE",
"255 -26 OFFCURVE",
"240 -28 OFFCURVE",
"220 -28 CURVE SMOOTH",
"163 -28 OFFCURVE",
"115 -7 OFFCURVE",
"115 70 CURVE SMOOTH",
"115 178 OFFCURVE",
"175 265 OFFCURVE",
"257 389 CURVE",
"257 437 LINE",
"30 437 LINE",
"30 382 LINE",
"182 382 LINE",
"117 279 OFFCURVE",
"55 186 OFFCURVE",
"55 70 CURVE SMOOTH",
"55 -33 OFFCURVE",
"115 -85 OFFCURVE",
"210 -85 CURVE SMOOTH"
);
}
);
width = 312;
},
{
layerId = "7B4D842D-CA8D-4153-9CDE-FADFBE419175";
paths = (
{
closed = 1;
nodes = (
"262 -91 OFFCURVE",
"281 -88 OFFCURVE",
"300 -84 CURVE",
"300 26 LINE",
"288 24 OFFCURVE",
"273 22 OFFCURVE",
"253 22 CURVE SMOOTH",
"206 22 OFFCURVE",
"178 47 OFFCURVE",
"178 97 CURVE SMOOTH",
"178 178 OFFCURVE",
"222 252 OFFCURVE",
"290 347 CURVE",
"290 437 LINE",
"33 437 LINE",
"33 325 LINE",
"144 325 LINE",
"99 252 OFFCURVE",
"50 182 OFFCURVE",
"50 82 CURVE SMOOTH",
"50 -34 OFFCURVE",
"128 -91 OFFCURVE",
"233 -91 CURVE SMOOTH"
);
}
);
width = 340;
}
);
unicode = 0DD0;
subCategory = Spacing;
}
{
glyphname = snmII;
layers = (
{
layerId = "25BA55F5-DD3E-4682-A696-ADF7D9496427";
paths = (
{
closed = 1;
nodes = (
"-551 672 OFFCURVE",
"-476 706 OFFCURVE",
"-383 706 CURVE SMOOTH",
"-264 706 OFFCURVE",
"-200 674 OFFCURVE",
"-200 630 CURVE SMOOTH",
"-200 609 OFFCURVE",
"-210 595 OFFCURVE",
"-231 595 CURVE SMOOTH",
"-253 595 OFFCURVE",
"-268 611 OFFCURVE",
"-268 641 CURVE SMOOTH",
"-268 658 OFFCURVE",
"-264 682 OFFCURVE",
"-252 706 CURVE",
"-306 714 LINE",
"-318 689 OFFCURVE",
"-324 663 OFFCURVE",
"-324 640 CURVE SMOOTH",
"-324 585 OFFCURVE",
"-291 543 OFFCURVE",
"-231 543 CURVE SMOOTH",
"-180 543 OFFCURVE",
"-144 576 OFFCURVE",
"-144 629 CURVE SMOOTH",
"-144 724 OFFCURVE",
"-260 761 OFFCURVE",
"-383 761 CURVE SMOOTH",
"-497 761 OFFCURVE",
"-611 711 OFFCURVE",
"-611 598 CURVE",
"-551 598 LINE"
);
}
);
width = 0;
},
{
layerId = "7B4D842D-CA8D-4153-9CDE-FADFBE419175";
paths = (
{
closed = 1;
nodes = (
"-550 693 OFFCURVE",
"-494 727 OFFCURVE",
"-397 727 CURVE SMOOTH",
"-282 727 OFFCURVE",
"-239 708 OFFCURVE",
"-239 662 CURVE SMOOTH",
"-239 641 OFFCURVE",
"-248 628 OFFCURVE",
"-266 628 CURVE SMOOTH",
"-291 628 OFFCURVE",
"-298 650 OFFCURVE",
"-298 675 CURVE SMOOTH",
"-298 692 OFFCURVE",
"-295 712 OFFCURVE",
"-287 733 CURVE",
"-390 739 LINE",
"-396 717 OFFCURVE",
"-399 691 OFFCURVE",
"-399 672 CURVE SMOOTH",
"-399 591 OFFCURVE",
"-351 543 OFFCURVE",
"-267 543 CURVE SMOOTH",
"-188 543 OFFCURVE",
"-136 588 OFFCURVE",
"-136 658 CURVE SMOOTH",
"-136 767 OFFCURVE",
"-231 839 OFFCURVE",
"-411 839 CURVE SMOOTH",
"-586 839 OFFCURVE",
"-695 757 OFFCURVE",
"-695 619 CURVE",
"-550 619 LINE"
);
}
);
width = 0;
}
);
unicode = 0DD3;
subCategory = Spacing;
}
{
glyphname = snmvLL;
layers = (
{
layerId = "25BA55F5-DD3E-4682-A696-ADF7D9496427";
paths = (
{
closed = 1;
nodes = (
"321 67 LINE",
"291 102 OFFCURVE",
"246 124 OFFCURVE",
"197 124 CURVE SMOOTH",
"157 124 OFFCURVE",
"130 110 OFFCURVE",
"130 86 CURVE SMOOTH",
"130 61 OFFCURVE",
"157 47 OFFCURVE",
"200 47 CURVE SMOOTH",
"320 47 OFFCURVE",
"372 142 OFFCURVE",
"372 258 CURVE SMOOTH",
"372 383 OFFCURVE",
"336 458 OFFCURVE",
"223 458 CURVE",
"214 458 OFFCURVE",
"204 458 OFFCURVE",
"195 458 CURVE",
"195 508 LINE",
"207 510 OFFCURVE",
"220 511 OFFCURVE",
"235 511 CURVE SMOOTH",
"377 511 OFFCURVE",
"432 393 OFFCURVE",
"432 258 CURVE SMOOTH",
"432 107 OFFCURVE",
"352 -8 OFFCURVE",
"200 -8 CURVE SMOOTH",
"133 -8 OFFCURVE",
"70 21 OFFCURVE",
"70 87 CURVE SMOOTH",
"70 149 OFFCURVE",
"126 181 OFFCURVE",
"196 181 CURVE SMOOTH",
"271 181 OFFCURVE",
"324 147 OFFCURVE",
"360 105 CURVE"
);
},
{
closed = 1;
nodes = (
"120 508 LINE",
"113 486 OFFCURVE",
"105 450 OFFCURVE",
"105 415 CURVE SMOOTH",
"105 355 OFFCURVE",
"124 312 OFFCURVE",
"175 312 CURVE SMOOTH",
"218 312 OFFCURVE",
"237 344 OFFCURVE",
"237 390 CURVE SMOOTH",
"237 418 OFFCURVE",
"229 458 OFFCURVE",
"200 458 CURVE",
"241 486 LINE",
"274 471 OFFCURVE",
"292 433 OFFCURVE",
"292 388 CURVE SMOOTH",
"292 316 OFFCURVE",
"253 257 OFFCURVE",
"172 257 CURVE",
"96 257 OFFCURVE",
"45 314 OFFCURVE",
"45 417 CURVE SMOOTH",
"45 444 OFFCURVE",
"49 480 OFFCURVE",
"57 508 CURVE"
);
}
);
width = 600;
},
{
layerId = "7B4D842D-CA8D-4153-9CDE-FADFBE419175";
paths = (
{
closed = 1;
nodes = (
"374 72 LINE",
"353 104 OFFCURVE",
"308 134 OFFCURVE",
"262 134 CURVE SMOOTH",
"236 134 OFFCURVE",
"215 126 OFFCURVE",
"215 106 CURVE SMOOTH",
"215 89 OFFCURVE",
"235 78 OFFCURVE",
"263 78 CURVE SMOOTH",
"348 78 OFFCURVE",
"398 168 OFFCURVE",
"398 265 CURVE SMOOTH",
"398 370 OFFCURVE",
"369 427 OFFCURVE",
"283 427 CURVE SMOOTH",
"272 427 OFFCURVE",
"243 427 OFFCURVE",
"230 426 CURVE",
"230 524 LINE",
"249 526 OFFCURVE",
"256 527 OFFCURVE",
"272 527 CURVE SMOOTH",
"445 527 OFFCURVE",
"525 435 OFFCURVE",
"525 265 CURVE SMOOTH",
"525 92 OFFCURVE",
"421 -18 OFFCURVE",
"267 -18 CURVE SMOOTH",
"187 -18 OFFCURVE",
"96 23 OFFCURVE",
"96 111 CURVE SMOOTH",
"96 195 OFFCURVE",
"167 232 OFFCURVE",
"244 232 CURVE SMOOTH",
"326 232 OFFCURVE",
"391 195 OFFCURVE",
"421 135 CURVE"
);
},
{
closed = 1;
nodes = (
"179 524 LINE",
"172 504 OFFCURVE",
"159 466 OFFCURVE",
"159 421 CURVE SMOOTH",
"159 377 OFFCURVE",
"177 350 OFFCURVE",
"213 350 CURVE SMOOTH",
"240 350 OFFCURVE",
"256 369 OFFCURVE",
"256 394 CURVE SMOOTH",
"256 410 OFFCURVE",
"250 426 OFFCURVE",
"233 426 CURVE",
"303 481 LINE",
"324 463 OFFCURVE",
"356 428 OFFCURVE",
"356 382 CURVE SMOOTH",
"356 305 OFFCURVE",
"295 253 OFFCURVE",
"209 253 CURVE",
"103 253 OFFCURVE",
"35 321 OFFCURVE",
"35 424 CURVE SMOOTH",
"35 456 OFFCURVE",
"41 491 OFFCURVE",
"52 524 CURVE"
);
}
);
width = 600;
}
);
unicode = 0DF3;
subCategory = Spacing;
}
{
glyphname = snmvR;
layers = (
{
layerId = "25BA55F5-DD3E-4682-A696-ADF7D9496427";
paths = (
{
closed = 1;
nodes = (
"320 316 LINE",
"320 392 OFFCURVE",
"301 453 OFFCURVE",
"199 453 CURVE SMOOTH",
"162 453 OFFCURVE",
"112 444 OFFCURVE",
"85 435 CURVE",
"85 489 LINE",
"115 500 OFFCURVE",
"160 508 OFFCURVE",
"198 508 CURVE SMOOTH",
"324 508 OFFCURVE",
"380 423 OFFCURVE",
"380 316 CURVE SMOOTH",
"380 0 LINE",
"220 0 LINE",
"115 0 OFFCURVE",
"50 66 OFFCURVE",
"50 153 CURVE SMOOTH",
"50 251 OFFCURVE",
"129 311 OFFCURVE",
"238 311 CURVE SMOOTH",
"275 311 OFFCURVE",
"312 306 OFFCURVE",
"336 298 CURVE",
"336 244 LINE",
"307 252 OFFCURVE",
"263 256 OFFCURVE",
"240 256 CURVE SMOOTH",
"162 256 OFFCURVE",
"110 222 OFFCURVE",
"110 155 CURVE SMOOTH",
"110 86 OFFCURVE",
"163 55 OFFCURVE",
"239 55 CURVE SMOOTH",
"331 55 LINE",
"320 42 LINE"
);
}
);
width = 445;
},
{
layerId = "7B4D842D-CA8D-4153-9CDE-FADFBE419175";
paths = (
{
closed = 1;
nodes = (
"302 316 LINE",
"302 372 OFFCURVE",
"270 407 OFFCURVE",
"198 407 CURVE SMOOTH",
"143 407 OFFCURVE",
"98 398 OFFCURVE",
"68 391 CURVE",
"68 500 LINE",
"115 512 OFFCURVE",
"159 518 OFFCURVE",
"199 518 CURVE SMOOTH",
"345 518 OFFCURVE",
"432 439 OFFCURVE",
"432 306 CURVE SMOOTH",
"432 0 LINE",
"199 0 LINE",
"96 0 OFFCURVE",
"32 58 OFFCURVE",
"32 151 CURVE SMOOTH",
"32 279 OFFCURVE",
"130 321 OFFCURVE",
"229 321 CURVE SMOOTH",
"266 321 OFFCURVE",
"303 315 OFFCURVE",
"337 305 CURVE",
"337 195 LINE",
"313 205 OFFCURVE",
"277 209 OFFCURVE",
"254 209 CURVE SMOOTH",
"211 209 OFFCURVE",
"172 201 OFFCURVE",
"172 154 CURVE SMOOTH",
"172 119 OFFCURVE",
"195 105 OFFCURVE",
"228 105 CURVE SMOOTH",
"323 105 LINE",
"302 82 LINE"
);
}
);
width = 492;
}
);
unicode = 0DD8;
subCategory = Spacing;
}
{
color = 1;
glyphname = "ta-sinh";
layers = (
{
layerId = "25BA55F5-DD3E-4682-A696-ADF7D9496427";
paths = (
{
closed = 1;
nodes = (
"102 0 LINE",
"243 251 OFFCURVE",
"327 319 OFFCURVE",
"444 319 CURVE",
"526 319 OFFCURVE",
"577 269 OFFCURVE",
"577 189 CURVE SMOOTH",
"577 113 OFFCURVE",
"538 45 OFFCURVE",
"445 45 CURVE SMOOTH",
"345 45 OFFCURVE",
"297 139 OFFCURVE",
"220 139 CURVE SMOOTH",
"176 139 OFFCURVE",
"166 111 OFFCURVE",
"131 69 CURVE",
"102 0 LINE",
"122 43 OFFCURVE",
"156 86 OFFCURVE",
"196 86 CURVE SMOOTH",
"275 86 OFFCURVE",
"318 -10 OFFCURVE",
"449 -10 CURVE SMOOTH",
"560 -10 OFFCURVE",
"636 70 OFFCURVE",
"636 188 CURVE SMOOTH",
"636 293 OFFCURVE",
"558 373 OFFCURVE",
"450 373 CURVE",
"352 373 OFFCURVE",
"294 335 OFFCURVE",
"226 253 CURVE",
"253 269 LINE",
"333 418 OFFCURVE",
"425 498 OFFCURVE",
"548 498 CURVE",
"709 498 OFFCURVE",
"771 393 OFFCURVE",
"771 250 CURVE SMOOTH",
"771 171 OFFCURVE",
"753 86 OFFCURVE",
"714 0 CURVE",
"777 0 LINE",
"816 89 OFFCURVE",
"831 180 OFFCURVE",
"831 250 CURVE SMOOTH",
"831 427 OFFCURVE",
"730 553 OFFCURVE",
"549 553 CURVE",
"427 553 OFFCURVE",
"329 491 OFFCURVE",
"278 385 CURVE",
"210 275 LINE SMOOTH",
"40 0 LINE"
);
},
{
closed = 1;
nodes = (
"89 553 OFFCURVE",
"47 494 OFFCURVE",
"47 429 CURVE",
"107 429 LINE",
"108 466 OFFCURVE",
"126 498 OFFCURVE",
"182 498 CURVE",
"231 498 OFFCURVE",
"257 466 OFFCURVE",
"257 422 CURVE SMOOTH",
"257 377 OFFCURVE",
"239 331 OFFCURVE",
"202 261 CURVE",
"287 348 LINE",
"297 374 OFFCURVE",
"308 404 OFFCURVE",
"308 425 CURVE",
"308 493 OFFCURVE",
"263 553 OFFCURVE",
"177 553 CURVE SMOOTH"
);
}
);
width = 906;
},
{
layerId = "7B4D842D-CA8D-4153-9CDE-FADFBE419175";
paths = (
{
closed = 1;
nodes = (
"153 0 LINE",
"253 237 OFFCURVE",
"359 295 OFFCURVE",
"448 295 CURVE",
"513 295 OFFCURVE",
"555 268 OFFCURVE",
"555 203 CURVE",
"555 144 OFFCURVE",
"524 106 OFFCURVE",
"462 106 CURVE",
"383 106 OFFCURVE",
"346 170 OFFCURVE",
"269 170 CURVE SMOOTH",
"227 170 OFFCURVE",
"202 135 OFFCURVE",
"167 93 CURVE",
"153 0 LINE",
"173 43 OFFCURVE",
"194 69 OFFCURVE",
"224 69 CURVE SMOOTH",
"292 69 OFFCURVE",
"350 -10 OFFCURVE",
"465 -10 CURVE",
"624 -10 OFFCURVE",
"692 93 OFFCURVE",
"692 205 CURVE SMOOTH",
"692 324 OFFCURVE",
"615 412 OFFCURVE",
"489 412 CURVE",
"382 412 OFFCURVE",
"326 363 OFFCURVE",
"254 279 CURVE",
"284 280 LINE",
"341 414 OFFCURVE",
"462 472 OFFCURVE",
"569 472 CURVE",
"719 472 OFFCURVE",
"795 378 OFFCURVE",
"795 245 CURVE SMOOTH",
"795 173 OFFCURVE",
"770 68 OFFCURVE",
"731 0 CURVE",
"875 0 LINE",
"910 63 OFFCURVE",
"929 174 OFFCURVE",
"929 243 CURVE SMOOTH",
"929 434 OFFCURVE",
"803 584 OFFCURVE",
"579 584 CURVE",
"450 584 OFFCURVE",
"350 528 OFFCURVE",
"289 441 CURVE",
"208 342 LINE SMOOTH",
"25 0 LINE"
);
},
{
closed = 1;
nodes = (
"84 586 OFFCURVE",
"32 522 OFFCURVE",
"25 437 CURVE",
"150 437 LINE",
"152 468 OFFCURVE",
"173 485 OFFCURVE",
"197 485 CURVE SMOOTH",
"223 485 OFFCURVE",
"238 469 OFFCURVE",
"238 441 CURVE SMOOTH",
"238 420 OFFCURVE",
"228 384 OFFCURVE",
"193 314 CURVE",
"325 377 LINE",
"335 403 OFFCURVE",
"340 427 OFFCURVE",
"340 448 CURVE SMOOTH",
"340 544 OFFCURVE",
"270 586 OFFCURVE",
"189 586 CURVE SMOOTH"
);
}
);
width = 984;
}
);
unicode = 0DAD;
}
{
glyphname = threesuperior;
layers = (
{
layerId = "7B4D842D-CA8D-4153-9CDE-FADFBE419175";
paths = (
{
closed = 1;
nodes = (
"168 654 OFFCURVE",
"200 666 OFFCURVE",
"200 695 CURVE SMOOTH",
"200 723 OFFCURVE",
"179 736 OFFCURVE",
"148 736 CURVE SMOOTH",
"118 736 OFFCURVE",
"80 723 OFFCURVE",
"51 701 CURVE",
"51 802 LINE",
"82 820 OFFCURVE",
"120 829 OFFCURVE",
"158 829 CURVE SMOOTH",
"254 829 OFFCURVE",
"311 778 OFFCURVE",
"311 708 CURVE SMOOTH",
"311 655 OFFCURVE",
"280 620 OFFCURVE",
"230 610 CURVE",
"277 605 OFFCURVE",
"318 572 OFFCURVE",
"318 510 CURVE SMOOTH",
"318 438 OFFCURVE",
"260 388 OFFCURVE",
"165 388 CURVE SMOOTH",
"125 388 OFFCURVE",
"68 397 OFFCURVE",
"35 415 CURVE",
"35 509 LINE",
"69 491 OFFCURVE",
"106 479 OFFCURVE",
"148 479 CURVE SMOOTH",
"187 479 OFFCURVE",
"209 499 OFFCURVE",
"209 524 CURVE SMOOTH",
"209 546 OFFCURVE",
"193 565 OFFCURVE",
"124 565 CURVE SMOOTH",
"109 565 LINE",
"109 654 LINE",
"123 654 LINE"
);
}
);
width = 353;
},
{
layerId = "25BA55F5-DD3E-4682-A696-ADF7D9496427";
paths = (
{
closed = 1;
nodes = (
"174 632 OFFCURVE",
"215 659 OFFCURVE",
"215 708 CURVE SMOOTH",
"215 756 OFFCURVE",
"184 777 OFFCURVE",
"137 777 CURVE SMOOTH",
"109 777 OFFCURVE",
"74 764 OFFCURVE",
"46 746 CURVE",
"46 799 LINE",
"65 811 OFFCURVE",
"102 825 OFFCURVE",
"136 825 CURVE SMOOTH",
"228 825 OFFCURVE",
"269 771 OFFCURVE",
"269 711 CURVE SMOOTH",
"269 657 OFFCURVE",
"238 623 OFFCURVE",
"191 611 CURVE",
"239 607 OFFCURVE",
"283 564 OFFCURVE",
"283 507 CURVE SMOOTH",
"283 439 OFFCURVE",
"236 388 OFFCURVE",
"145 388 CURVE SMOOTH",
"111 388 OFFCURVE",
"66 397 OFFCURVE",
"35 412 CURVE",
"35 463 LINE",
"72 443 OFFCURVE",
"109 436 OFFCURVE",
"145 436 CURVE SMOOTH",
"197 436 OFFCURVE",
"229 463 OFFCURVE",
"229 508 CURVE SMOOTH",
"229 557 OFFCURVE",
"190 586 OFFCURVE",
"128 586 CURVE SMOOTH",
"101 586 LINE",
"101 632 LINE",
"128 632 LINE"
);
}
);
width = 318;
}
);
unicode = 00B3;
}
